<mxfile host="app.diagrams.net" modified="2020-10-15T17:45:53.467Z" agent="5.0 (X11)" etag="89Kyo9aV5fAxVbqUsuyx" version="13.8.0" type="github">
  <diagram id="7JCX04nQxVqkHLdCOL2K" name="Page-1">
    <mxGraphModel dx="1137" dy="570" grid="1" gridSize="10" guides="1" tooltips="1" connect="1" arrows="1" fold="1" page="1" pageScale="1" pageWidth="827" pageHeight="1169" math="0" shadow="0">
      <root>
        <mxCell id="0" />
        <mxCell id="1" parent="0" />
        <mxCell id="qNlBSglNtdx8bkVUjUxn-4" value="" style="rounded=1;whiteSpace=wrap;html=1;" vertex="1" parent="1">
          <mxGeometry x="220" y="230" width="160" height="90" as="geometry" />
        </mxCell>
        <mxCell id="qNlBSglNtdx8bkVUjUxn-7" value="" style="rounded=1;whiteSpace=wrap;html=1;" vertex="1" parent="1">
          <mxGeometry x="624" y="240" width="180" height="80" as="geometry" />
        </mxCell>
        <mxCell id="qNlBSglNtdx8bkVUjUxn-8" value="" style="rounded=1;whiteSpace=wrap;html=1;" vertex="1" parent="1">
          <mxGeometry x="414" y="240" width="170" height="80" as="geometry" />
        </mxCell>
        <mxCell id="qNlBSglNtdx8bkVUjUxn-11" value="" style="shape=image;verticalLabelPosition=bottom;labelBackgroundColor=#ffffff;verticalAlign=top;aspect=fixed;imageAspect=0;image=data:image/jpeg,/9j/4AAQSkZJRgABAQEAAAAAAAD/4QBCRXhpZgAATU0AKgAAAAgAAYdpAAQAAAABAAAAGgAAAAAAAkAAAAMAAAABAIIAAEABAAEAAAABAAAAAAAAAAAAAP/bAEMACwkJBwkJBwkJCQkLCQkJCQkJCwkLCwwLCwsMDRAMEQ4NDgwSGRIlGh0lHRkfHCkpFiU3NTYaKjI+LSkwGTshE//bAEMBBwgICwkLFQsLFSwdGR0sLCwsLCwsLCwsLCwsLCwsLCwsLCwsLCwsLCwsLCwsLCwsLCwsLCwsLCwsLCwsLCwsLP/AABEIAS4B2gMBIgACEQEDEQH/xAAfAAABBQEBAQEBAQAAAAAAAAAAAQIDBAUGBwgJCgv/xAC1EAACAQMDAgQDBQUEBAAAAX0BAgMABBEFEiExQQYTUWEHInEUMoGRoQgjQrHBFVLR8CQzYnKCCQoWFxgZGiUmJygpKjQ1Njc4OTpDREVGR0hJSlNUVVZXWFlaY2RlZmdoaWpzdHV2d3h5eoOEhYaHiImKkpOUlZaXmJmaoqOkpaanqKmqsrO0tba3uLm6wsPExcbHyMnK0tPU1dbX2Nna4eLj5OXm5+jp6vHy8/T19vf4+fr/xAAfAQADAQEBAQEBAQEBAAAAAAAAAQIDBAUGBwgJCgv/xAC1EQACAQIEBAMEBwUEBAABAncAAQIDEQQFITEGEkFRB2FxEyIygQgUQpGhscEJIzNS8BVictEKFiQ04SXxFxgZGiYnKCkqNTY3ODk6Q0RFRkdISUpTVFVWV1hZWmNkZWZnaGlqc3R1dnd4eXqCg4SFhoeIiYqSk5SVlpeYmZqio6Slpqeoqaqys7S1tre4ubrCw8TFxsfIycrS09TV1tfY2dri4+Tl5ufo6ery8/T19vf4+fr/2gAMAwEAAhEDEQA/AMbSNfil1QQXQjEG0FWG7JJHTivRINN0i72XCxSZZFY7nce4xg4rwe0l23iEAfMrJ+Yr07w1rjWh2XMhW3kEUKtIzuI9g+6FX1qr9B9DuotPtCG2xFRkD77EMMepPWoZtFspUMbM3kkr8u8b1bjjI7VagneRSW2+W3zxsDjI9MVOrjA3BznhcYwfrRcRiSaLYSCFRC4EbkSYd2O3kjIUn86hh0m1tnlm2NsYx/u0Ls0b/dLAsenfmt10liDvFIwB4lLZIx6DHNRFZl2mRV+cEHaSN7fietAFRdNtW27ZCdvMRXnA6EN2p/8AZcRzgNtIK5JI5PJqZVcfPCxDKASFAAfjGATVkSmQrtiLklTIAx+Xtk4ouBR/se0GWTdv5bknnP8ACKhbT4gXGXVmIIyCQBwMH3rbHkryNwLHIyeTjjiglC3zAMPlXnkhm9cdqQHMNosMM9xPAcu4VW3P8uR7dferK2mIGiDtskLS/d5JbrjOK2nhC/dAUqG3HGCSe6k1XdWxCqljjJ75wByFI5zTApR2aYQ795kY4ABA3dDnvTzp0MyhT5mAzBw3dfYrVlcYBIIYng5H1+vFJG4YB1k3qGYE8na2fQc0AY03hexO7ynlSRsn5jlcA/d6dazBozJJGHjk3h9wwc5A+XC9jXdBI2DEHLD+/nA9aja3hkSMcA7so+CWU4xkUvUDkl0oDy1eNgEYsg3HdhuNp96lTS4dxOxju+VuWOQBjHBwK3ZoGtygnIkRiQJCvfPG/HpUQXDPgDj5SVJHH97PSq0A50eG1hkvJbaZ1F1IHeKQBhHJwvykc4qU281u4jmkAeZ1WNDsDZxg4I45rdYFmDYBLoNxYlQ3PApt1awXEO27VGIZfLdMrLA/s6559KlxugM9LRSx8xlTYFLKGBA/4FUx06MhArnOV3Y5yp54qFo5LNUy4ktt5LTSlcxj+LzBjp71dtbmzu0Z7eeMxEbU2srA9iQR29K52pGiZk6h4V0+/wDmkLmRA3l/MwX5u521zy+Gbzw/DJNC0k8S5LIVBdyTwE216EY1kOQ8y4ABA7jGNy4qVVIULgFCuDuyWyp+9mld7MpHD2GqPbbJASqjlhIgU5xyCCM111hqkN4I42ISRhwOilsZ+Umor7R7K8wUVVdiAWZcjHXFYM1ne2JCh3ZIwwSQc7AThQSB1oUrbCaT3O1MIDE7jwRuBHbHHSoXGCzJgsDwCcY9DjrXP6drkoEdvd+Y6xbSH+YNuJwCfWuit54LwPtxG6OFCkqSyjoQR2NbRkmQ42IBCEJBzkkknt1OetUDp8tqXl06dVM0TjyrhCUds7sb+orYeEh2GWbkE7jnHHYmmFU3Nk465B46nPQ8VZJQjvQrR/aI5LSYnJEu0o7gAkAjOKsNcpHsaRgRMw2bAzAZ9SoOKkZVlRkYh1bKlZFGSpPINUf7PuIpXe1vGSBnB+zMgKj1G/rgdqkC7ks3DABQwDcYNIGLoo4KnAVhwGx1waqPfrA0Uc0U0UhDjEi/umK8ZLDjHfrTo7uCR1jyQZOIuRtbHzHYB6fSmBUTQtPjvTfxeYJJCTKu75ZGwVAOeRj2NRXYGmwxQykfZmVbaWYn958x3YWNQcn+EdK2cFWLDoWwMdQSPuY/WmFGIxtVj82NpznHTAbjNAGRDqETGCJo5TbMsT2spwDhHxseP72RWl55Yu2DtjbCkgAHknOSe9Vr7T2u4VieVsRAvCVRVZZlJKyZHv1FZMDa1Ha3l3qijbErKIlKBhEjbdwi56jmlqtgN7fMBF5JTe775S7JgIR2AqJXlMlwVaIyxhsBtww/XnHaqNre208EqWjQyPAVjKcASKecIRwD7dqvQm3YoX8sMgJARw4ABwcOODjvQgKrwrLKjyMY2yXkZUfyy+3tv5x6VH5t3alvPiSSEsS8sbFQoHCMoPP1rQfeGkYNG8MjsY2MmSQRjGD+lNjXLMCqK0QGA5yroRnqeM07gUliiMEyxlnU/MCpBAYnnpzSywBUUPvbO1uBjao6FiBjJqSaFJGdoCbe6ZcxMnCkkZO9ehx9KqSzT2cxkmBMMyZEiKxgUxqPvMORk9KdwHnzZN8zISjKxUL1wONprNvNNsr1SJJmDMqoQGQZKMJBgDJ5qwuq5iDmKIJK2Z2aUAoMZVwAOQelZ8mowvb3SyRogRxuaEsigMASwA5z+NFxDZbW5hhmIckhWG0BDIc84QdDVaK5QoXw2wKu5MjO4HAU55z61nT3zJ50azT7cfumVyZWwNxJGO1ZK6pKktrDI5LE5kK4AYk53ZxU82o7aHTyMRJHG0f7yQAbhu2KoOeORk+nNQraiGR3G7aokiQ5DLtcbiDjnNMT9+IEVv3Kne8jkHaS3UE9/pU6LvjfymUvLcGSSVSDvj3cgIemOlXe4D2Z03lmAXy1SIjGC+3LN+HpUMbxuFncyKzNHxKoDs+NhO1egPalQxPvlK7FaR3hTBbaudu49i3pUylXlnkUgBYXEXm7geQMsQOTQBYVpkM3mRkSqqHCfMibvVvTFBvvtQi8tSUlLBzgKA6t2LdaqPuwhBmMSRkS7FwZQ7Doo9elTrxAWEKmRpEEEcoPyAcHofTtQAai8pAIUvm5iKKmAPl/hdm6c1LFGRG5c75ZnLz+XhUMgwSoLdhVa6lh+S1WQl5J/MdwPlBGMDceMH0FSvcxIsO597/aG2KSGKKMqzHtyeBWXLrcd9LFqF1JdFY7UIbaRwWY84PX6Vdt4oVE5yY5i6SJuIIJBxtIPtVK2NzKl2xDI3mARr8qkLtyzA46DpWpaGAxpJI3C4jGQCZwfujJ6U1ETZehbyy8SkjOHh3YGR3AB54qzsP/AD9x/wDfAqpvR7iEmJBsDeUfvOQR8wBNP3P/AM8E/wC+RV8ornz9Y4NyGYj5VJFdhA4msi8eC6MAEztJcYwSa4q1z56bQTgMcfhW/azGNTCcHcVk3E5JAGNpqHoUlpY9I0PW3aRLWZww4hB6cquThjxx6V2CSgA5bauFwxAYn1yB2ryRpJDbp5Y37gCFc4KnIywxXZ6BrAu44LKV5DcxrnzCv3kXqWb+QxTCx16EFTvA2kcgjAI7Gomtw5DB3wgOwEhky3HTrmqyuZGK7lJUtkfMFcHoRmrSiXYoKoFXaVIPAYcd6E+4iuxZUCHgZdckhQmOQeaRAFdinz+YFVlD7VcgHhT6mp50LKPmfIUhtqbhuPJwfSq5hSEI3lkBeXI4HAzkL7VQDo7pGLqkbqYJDGVkDAgkZwD3HvVkOVZnwxMwb0G3joTVGcb0RjK6btjb0bD4ByAufWrEV5HIRDjMmSrKwKtv65x6YpgWldNpR0XDr97ccvt9jzUcyOysYyeAGGT174FG87kAONu4KWTI6+tTIV2kFlJOSq4IHFAFZ9zohDAkKemOG6Z9aqpJJtYsQmDjkj5G/vMf5VflRcpKy8r82BkdPTAqs0Up3rgPFKS/OByeR2zigBvmEMSX5GV+Qnlyc7sCpQyIRuypyAPnyGBGeh6VWCxIF2sB94HaGXY2cc5/nTo5E+aKdiBllWSTC+ZjuBySO1Ggi4DGwK7yzNjbuAOVPr2qBoEjXdAz7d21wACdwGaf5mACUGxMBtgI+U8Zye4p4EQKshJJOWOCvQcMRSGVX2OqOgIDDHluOBxTN0QEcZIjDgq2QcZHPzVLPZ+cyyxNkgjJDsAAfvbQKgBCsYpY2LJuILZA49MjGaABjG8UsQdZEcMCHUMHQjoykYxUDWtohhliQQyoqqqooWHA/iEY49qskxHYzbBGyoGVsZLHPLD27U5YhtjbfuAVgCVy7HoDzzgUNaDWhVkkaDLSXKoGPylF4GDxuGKtRkI24yySGVlZiCxjyeMFccVFKhKhM78jPkuDg7eSwbqDUJkazgM6yyy2qKwmSTDyQBOSw7kVk6aWqK5mzS8pN0pHUYG3e3ReenvTwoZGQrg/6zHBBJ7etVLPU7W/to7m2kDKysOB86Mv98GrjbTGH3kEqWJTGee+ay5S0zJvdHWdjLC4SfHOMDIzyCfSsYf2nBK6eWY2iL+RKsgzJjnJHoK65TCGYdd4D7uR8uMkknio5Ireb5D5ZkkB2qyhcr7U7MTdzN0vX3eOQ3u0xLuIkB5JHByK2oZdOux5kEiSEAEgEEjPPNc9d6I0YElqNqgKNir8zZ4+bJxiqMFxc6bKqEqkjlvNESkxeXndksRVqVtxOJ2JgUbiOvr1HTOKhYZbGThVDYUY49STVDTfEVndxD7RJGjFnjyrZVgp2rj3NbRiRsMgBOASvXaB0GP51onfYixTlUTqyyKrxuBHtflceigd/WqktssbLcRLCDHHtKHgRqOpjPrV1h5LHeFL4LgZ5wOCQtVm+zbleeZULfJGhbBLHjbgcc1VhEFvcwrK0DSMZZCLiNJ0IIU4/jHGB/WrpOAc8MMEjoMnJGBUMktmdsEjqrkLtXcN5YnO0GqEss0UbrbXvnKrkRmdUZ1DHO3ePToM1NrAaDZDrgjgKCCORu7A96QwhvLIRSn7zJJJ+U9UJP61ijV7mR7mOKMxvGUEbtt4Yrno3X6inWmpXrzgz3EMhCSJMFjwvmDBJUdOaauBcn0bT54HhWJYyYvLhaMCN4ULbjGNvHPc9awr03mjXOnG2ltzaNFLDNEkeZEKLlUUeta73bNMytK6ebG2z5ApDeoJ71zGv3CK9rYks7XkqeYA2yaPAyJNy8Zah2A1P7VlJiUwIIWiIDZRVD9VUg8gnnPFaL37yRQt5KqgOzzMK4cHkgEHGPpXO2Vnd+XLDcOj4XMjEKzPNuyfwAwB71f2KrDygXFuCwiZSEUEFV2kcA5oAsveXLmYyZZc7QsTBSqgY3Env7VmXrSTWVyTK8p8g/K5ZdsgG7B+lTjMUQMm+RztkJVcqj5zjJqhqm+SxliTchmQ5YHGw7gXPrzSQCQsyxWYeTMrQxyOJFDAZBAyT61SudsRaMsNskjYCqSrA4OcfnV92XcNoCs0UZ3YUbMDCqfasq5LkIzMm45IKnCsx6gAUdAM26ljAJ25dXJAB25XHAx/npXOyODfSuvXKMedwyRjiti8kJVhk7mXB7fr7VhID50+MD58Z9cdqQzqtPm2LEqhXY4IxuB3HsP61sjJXaF2mSJFeSNMIitywQt1b1rmbNmABIOzyio2t85c8ZBFbds5dVTErqqLGcuXwg7BRgD3Jq0IvofKjiQboIlwMTrmQs5/hzxmnJ9nicnD4C7igw2cngkevpUDSXxt0G8iWVZlhi2KDyMBgTwPXrT42dpIQF2o5RGZwAGRBjC7enPX1NMCWEF96DzCFLlyWO/eTnaaZIkbfZonaSR4JQYlAI8s4HJKn+fWnxs80kyGPbApBD/MWd1P8RHYUkUs0cVzJbbcxtHBECVjUOr4Mjk/XigBpBnAdlUFJX+WTYWZQcZQDgAVMvlh1BjjjAVZNgTeQqksV3dz71BJGlxPLtcolvIsaOwXMzyj51AXtnqamDbJJY3BZYggO0ja+eMIx79zQA+zSS4e3uJpXQl3uHwDkRgYUcnAA71pWJuFCxt5SSXFxM68Ex/ZwcBG9yOc1RV44/NZ4pZUMaxHbGSNrDKgAHjtyc1rW0TIIk+WO5EQkC7iwijJ+cl+/bPSgRObeATRMxXMCkRZYh9j8sCPT0qfzLL0ufyNVC0SGZkYyOFj2ySNuMqud+R247U7zpf+ekv/AHyKYjwS1bbcQnJHzdv5VuCORo/lXcWbadvXB5FYUA/fR5PfPHqBXUacVZVLPt3E5QYwSOOanc0iTWDvE7Ry7tijCFiMbvdhWhb3M8VzHPG8ibA/lc53ODtJJ9MVW2ghYlJDhDK7r0VTnkr+lJHKAbnoZUTZAGOF8pzgsfepdwPTdE1Gz1GAGM7ZlykynJY49M1qxNPtIchcuEOwEqV6jI9fWvJ7HVX04W9zFjcNyKxcquQBnIXrmvQrPX7G7SBt6iaURiNF5jZwNzgMO4p2vqI3A7KXIDcD5doOMd8UpaV1LOQx2/K8fyvgnP3T6U2GVZiHjwyE5YoCMY4wc1MscZL/ADHJ5AP8OeMCnZIRW2TCVt6xhNuI93Ls3dsHjFQTQGU27gGOVA2XVgHA/uk+laHlqAygs54KeYxOPXBNVzbyhvknLKQSNy5KjPXjt+FAEcT52pJPJ5+D90EB888Y4qxslBG3LNtwAzfOCOciq8kTtE6F2R49ojmjGGGf4go/WqttdTN/ot78sgYCNwxRZR18xd3OPXmjUDWUl0XIJPIJUkMvbg02YuFbcNxXn7p+YdDuI70qiJpAB97luGxuIGNyjpU+C4YHcOm5Rjnj1qU31AoMWG4kbgoBZW+6FPQI1NKsHGI1YsmA2AQnfnPNXTEhQuPmLYBVsHp061EqmMyMwYFcoqqN3ykZODVAQAuGYlcbcYYdD9d1SRyM4lJC7M7A6kFskcgioSYlhztLMoVFAfft3HjO717UJJGXIjIDIfLZCwOWHzfPjmgCQC4BwJ9wVgW/d4Gwj7pI/nUnyyo8bjcCAGbPJ+hNNCnMaiQq7DOwNuQn7xOTzj2qfnGcIP4eT8rY69P0qWtQM24YW8yRzRfuG3j7S4QQqwGVWTuD6cU2KK3Ki5tmHALZDsRIwG3A7YNXprW3vY5IrmE7TsLAN8pKngbxWPqFs1hJBcwJPJbIXWaGJM28QJBLMq8/T0qkBbRpFB3neSpDkdRuGSrChyW+bamwBcCRdo2gcKMd896q2up2F1EFilRHZiFk+YlyDnkDqfSr0VxA8yRMIVlK+b5ZJPmKDjKZ4x6igCt9ktpJDNGvl3ToUE0Z8shm4IdVG0+2RSPdz2EiRXip5MhWOC5HCuSfuMvY1eRWxMD5ag4Vyh3NuyWGBmqdyNNu7ZrW63eXKUdjHuG3Yc7dxyQe5pNXHc0BcW20jeFCABtvJAbjBFPKR7Iyx3EHYGkwN/HcjiuPthrFhdXcdzNKbdhH/Zk6ooMsAJwshX5c/XnArTh1S7cOu4JsdWkaZAyyRkcBEH8XrUW6DubZVAAgA2/dZHzjb6ZzUN1Y2l2jRPkIxUKyDoAchcVTtr65a3aWYJHMkgSZcmQbS3DIT2pLnUr1Z4jCF8piGXau5flUlmc9gahx1uh37mNqfh+7t4new+404zFHHlxk8BAOhqazvNQEMcKXUyzxXBkl8zqoQbXhOe9ar6hJscxyDzH+UtnOVK5GD61iR7lvVEkRSS6hLq4VykjqcbyelaRXclmlf3d1KsLRYcxlidgHmKGG0mNj+PWqkJhVw8kf7uF1aJNxDCNU2nzd3oeatlJXimhRR5gT7ijI4OdxFQxW0zFz5LlnUyTfxbVHGXxwc1oIrIrtKkzYKEyPA+cFAOjEGorx1trW6QL+7jj835OeS2Ru9eetaUOnXDvE7soAZUAK8RrjIzt/Wq19pF7dxTQRsqliqlm+UCNX5bNIDPWG4mt7SJpM+bEQ0sf/ACz3Enep7DqBWhAtrGBAuDIoWZ0/55qBtBU984yamg066iARjCUj3FiMkbcD5iG7enpU/wBhnUjaYsSAiUZ5O0dIzjO0UxEBiR+QxDlmZc/MQx5wu79a4vxHNFLrekWToz7BG0xj+VmZzhcn1GK7mS0vtp/djch+cLKuG3Yxg+nArGu/DepXOrWergW+I42iuYs/6sr/AKtye/XB9KTVxkcEcsSzAuGkaYoCuSY0IzlT1zVtg4jSOJlzsD46MwU9WI79ant9HuVe5kUxb5S67A7MCP4dtK2n3skkipbKGRkWXJwxb0PtRYRntIX8yN5CI5HPzrkBH3AZxjt3rO1Etv0+EPuae5YK+MIixAsxkz2rcuLTUg7qlpKWA3EhQO+CF96yf7G1S41Gxn+zYsYraVZZJmKh5XfI2qeSfwoGVXVCZS3yhpMs27aQyjOcEd+MCs+dkYXEYKpI4Lq3OGCjJJ9K6GbRNWEr4jLq26RWJUoyDjG7ufwrPl0LWZPMhhsWKFd5ZioyV9GJ/SlYZyN/KGSJv4gpwi5wvHOSfWseFnbezDBY5OO2fSuwk8IeKbt5NliIhslcNcyoofkBUUDPNUrPwX4pllmtjY+RLEpceewCSEHlYmXIzS5WBTs3EIyGyo+YKBklhzjJrWhfLhArsZRlkR9q4znBA5xSxeF/EUMkEdxZshllVd4YMigjJZtnp34rUTw74lXYgs1CKZGZtykyxqM5z1BNOzEIkjuCu4GNRsUsS+CnZAOT6VOpS1MkRTJUmQopG05X7hPUHvSQ6NrNsGH2SZJdq4dQCY43JOc9OfSpLfTNQXAFnOXMjuQ+4q0gPBdj6VQDgzfu43Ks88bSkFiEjUc8Y5/OhJ7J/OtbfaMFGuNyAc4z1PpUl0k1qAptWMjhUczZUPu5yPxqFdqZyqo2AHMcagyTH5B09BQA7Fmt1KYfLEojbMeRghsHePQmlaNUneSSIMAVZhuyEcLjcc9cdABTWMECyhIPmfay7iMHB/iPr3qVhA6+VFguJAp25yCx3EZbnA70xEsHk7RLIRvcARytuQM7HAATPYdq3VDLBNtDMxG6RpDkk4ACVQsYpB9mlliEZlneYuCjbYolIxjrzxVu4LxozIjFd5aTy3G7GAc4PGRxQBBvRVmMcbOwkhMkbgN8qgjCFu9HmW/9+7/z+NSyFy9qZVO0HdMQpyrMp4LD1qn/AGZp/wDz2b/v/wD/AF6APErYbZkyM7gw+nHWtazkC3AUqWYYKFuFwfpWXGCsqDnBBzn09BV0b1IcYBA+Uk5wf7uKjYpHUW7o6YkI+03B/eYBIKLnaFI9KbNHEm1QQ7PGWAxy7A/Mxx+FV7O5EkUGxcSlhE+ACy4+Ytz0zV24YIjskbAoMJgbnk3naEJXoCeaTYFG4tcwwmIEOp86ZFIK5PGAPWtfTpms7izMJO5CBIi/6vI6FlP5GstoJFi3zLgriS4VR8oA5CqfbvT4JJjcpdwGMs06DDnCfONvFOIHoVpf3bRrEZ3S487YzIqiIEsWAAH8HatcX4YhMMsq43gFS3IxvC1iw200UplWPP7oKqqQw3bckAnnjv8AX2qwxh8w3T/JMYooAiFdp2/OWx6VQjbkviFjIXIOMNIu1sj+FvrVaXWDi4jC7ZsQ+SSPlwx53msWfUFDQRoxkmeZApjXeUJ6g4rQewv3nYI8IUYYMQ2GwM7Dn060CCW7m2xzEnPlH92WCqpV8bsjuQarX9xDcWyqzyKYnDwuigMqIckj1z0/GpW068UBjB5aLlTGCpEig8lRz1+tF3p1xtlCOiMYWEKdZfMZeAA3y57DmiwENtP5ixsjyok8YMPzkt5gO4jD8/UVKL6/LRx/bJHkRd8kkeVUAkgLj19ai0y2vfskAu7aSKaNWWRWjyeTjdx3I64q5JCwChY96tIJJAFKuoA2559qVhkpvbp4Qs0gSXLECM5+RTgNgfnUDSXb3DKLvy1aAyQlN25ZEYFix+6VI7e9NkiniESpGQrudm1GYhCc5cjnafSn+VIbhlCussalRGFO3dKMBkPsKYFKNrm4vbjyHZbeLG6Ns5LbfmOM/l/9amXOprAtvdiEyRRuyOd+GVTgBwB83XOTmpUjeJJDcMyyrG8e+MDzBlsZbHXdWDqd8EvIbVY2dp7dIyyqBEQXyQW6YAGcD1pAdPHqlwWmYwRyqzgwsH2tFDgHJB6k1L/a8xE2LaIvGZO53BSBiQAcY9aqQp9njgG8lCNilkGJFIycDqPan+RHGJV3bMBIxsIZynBKr/WmBeW9uTvzGjqUZXBJA37QSMDHFQia7zcGKX935Yga2KlkAA5cHrzTx84bzSivKjYCk4BIwu4nnNNs9y28E2CGiY5I43BPlHB59xUMDz+3gM1zHCsscULzNJmCR8wXEJZgmDwSfQ11enSmeGOe4lLGQJGIxtj3Bywbc55rnNPIuZdUuWjSOS+1af7FsY7VK7lLkevf8a3reAJGrzjzZI0JRMFTHt4wdhwfUVYF6KRoZTGWk+yO6hJJCHdGXnBx1FSIWj3OJXDtPI2wFQJ42XO5lbnH0quR5WJgxeJolCRscrwdwI9hzzSebCxWOJWYjYWldgAIvvHDD9KAG6lcW39n2doJNkssvliSVzGu4Anao9O1Uba6lW2WSUqGgfyGMpG9hH8pyF4we1VPEV+0baZCLa3aGWaQSGbgR7AHUxjqW7isGXUYhbyxlm2KoGG54z+dZy3GjoJdaitxId+QxDDZkfMOgwazpfE0jMCquFzyVbAz7iuTkuXkbnPI+UE5A9Wpu9iME54JHYAY5pajPQPDusSXOpwxTYEaCSTC8BsDPQjrXfeTEYllHy7s84JARznG0815L4WnKakDgn/RpG+bsVwQa9PaW9NvcSR+RPgFoFVyrOGwPnyOCOtWtiSw8fmbVXywSGOSCH+XglWFRC28hDsZicFv3jB1AznYec5NQC82xyrcBYnS3WRyAQq84JK9feo9P1C7nleO4iZdqxtFIQhWYNlRkDp7Yp3AvETrEUTyo3YGTYAfnAPztj+VKxiw6hgflBVS2NjYyQMc4PpWXf6i1sGmKpLM0zQrtDBeB8qMx6fWq0eoLPbXFw9q4Ns5kWJ5PKkRkIJjaQjHvQB0O1WZg6OycMNmGWUsuCAT0x3pm1d4RpXUYbGQCFXGcE+lZC3glkgljjmKPE5lQMQyyv0VAOMetQnW3gtIppreVHLPbJBsPmEqxxyf4R1yaYG6iLGkbYC5Jdy5A+bGFIocrsYI6ttUs2Dt37id2SeuKox38FxFGWD/ADlWyRlgxHABPbrmql/fTRFhECyrFK+5VwqJw24k5y34UXA249qlXXYmSu7bkFnAx1PH5UxkXfE6HaN77iMsXU/xNnvmsC21tpokCQSRAeXEstyjfOzd1CjHP0q1f6m0AaTy0YRiNsKT83GM4zjnvRcRsGKYK587d82UKtzu6EjHHHpUUwm/ddi8gjdHwPlHXaRwGxzXP2+svIvmTpFtctjyndSCDj5D93I7nHNWm1SJXRkE1z5kQjVCpwdzAbRnjcOp9qLjNiNEkbYZWG1Mx4AUoc4JJPrT1t0cSlZGZuV8t1CjjPTvzWM2sNDIE+xl4pCqmSJldd6nGFzycd/SrsGpxXC4jSSOc5kzL12hsBiAc80XAtNCyIrGQxksFzgAOQOMAZprjyopNz4jXLM3XYfTjmqkmtraBiYCIgxkSMYLsg+8oznknpTZNa0wwq8jOGlcIoXJ2BiGw+O/ai4F0RKAhxgyYZWORkY6HnP4UyMCVpPLkQ+TIwYLkYTGc81TN/btKwYr5kcqqpctswVzkEcAkUSajpkbt9oeONpJAoZEZdxxuGccbqALbJGMKwLqYy8j7jlAOeAD0pihpYysAIDBWjwCGZCMkknv3qpLqumx/amZ3jZbdJsqNyeXnAAz6VIL+whVRJJJ8wSVgQwQs3yjkjI9etABd2sF7E9rP1Q7reQDewlA45HH1rj3+2wymNwibZPIEbr825jnzDvOPpXW3OoWsIJt1aWTYXhVgQNwPKHuCeSOKzdYkt762WXZsuYYyyiVfLlljxhiQecLnigRhpMjxEklVV2cmQAMGJ2KB2x9KQyMkhd0ICIQXXLbOcMMdee9RRvGH8uNy3kruHy5ChVwoJbjPenlw8Z3IWk8wkRl8GbYOCR15PagZt6esohWbHBUxMJCFKq2SXX2GBgVZj5WKE5Mawsd8eHLIW+Qknux5zVazSc2qZ/e71YcfwM/DbSPTnmrM6iM26FmWCFg8ax8fJGNg3kdhnIoERNdLIhZCGjO+ORmYHDxnG0Ac1P5dv8A8+E//fa1nvFFFdwRxKj2pyZPMwGSdiCjADrnvxWt5q/9MvzoA8CjIEsI+Ygkgk9yRV8IT8q88EkdazstGUkAztYHBrXtmVvKl3DaQCwBHGe1SykPgElrJDLkhsEuvUD3Pat62xhHMudwWdFjx1PHU8ZrKlaF0+9kkHopwTxwKW1mMckcBI27snJ5A69BSTGblzAsqJE+MucuDkSN35xxVK3tkaVLREVnW7imGWbaIlIzkj1q6LouNiqzO6HdIvBYBsADPOPWm2pkjnzu3TvP5X3CA7c/dz2/wqhHVz38cMGJncPCZYlEZwWRsYK4PpxzXM6jrkyBBCdnlKygnazuAf4s1R1e9niaVQ43NhSQM/MDWVaLHdX1jHIpdZLqAOpyWfLglQfep3YWPTPDGlX9sseoXgLXlyqTkow/cxN0TjkHHJrromVjIm5CMZwCQ3PqDWLbajc2yK1xbIxkm8lEt3G3KjqzD0HFXW1u3W8gtTHsa4QSxuwUrtAJeMkHhhViNMBiUbAwp6tgfL0PPSoz5RT5l5RgWJ5HX7y5qm2tWi3AgOCAm+Rh90Fj8qjPyn35q2L+zkiMmw7DuUKE+b5ewFIBw3Kc7t/zblx8rZHAAI4qUj5g24EA9WGSuR0PeqxvLT5fMzGGAClkwOeRyO9Wd0Kpl3B3tjqME9OAKQAflYYK7WPzbSMnH93FNEkTSEqQGBPOeg+tNOnWALSqhRyACyuTkZ7DOM1KtuqmPa+BzhdoO76k0wI9lq77wkbSqSBjGdx67uKjK6dPCYmtozEJMJG8YCgqeqjt61fEe3+7nsVUAnjvTPKYHK7QCAxBUYZvegCidOsAiBbdd38QBbIT6npTf7GsMr5YmR0JO9HO456kE9qvBNzt5gQ7QCNpYEE84YVJt3DIUd1bB5X6EUrgZ76fbhAMkMj798mXJfPBI/lVUWEoY7pDglfubj8pJyWPTitwx5BGWUKQUIPIwO9QgTK+1lLrgkSZA4x7d6AOIHhzVTql6/kr5KEra3IKrGROAXYRjnI78c5rYn0m7RQkKrIytFukXCNKoGGDr09q6DyyDH5RUIPv78s3PPy+9LLgjAONwOcjrgcAk07hY5d9N1UyxoIFDfJsmQ4j8sfNsKn/AAqr/Y+rxKq+VI6eaW2qyYVQPlDAdhXUxCWNnaW4EkRw0YePHl9ipZP04qyd7FiWHDg5TIyuMgf40XA8j8QWPiC5kgEenXUypc/NJBCzLGy8ADHHNYV/oniS32vLpd6GnOyM+SzZ9VITPPpmvcmjuiHQugyHG6EFWIb7p2nj60+KGdI0WSV3IHzSBthyOMkCjQD53e1vonEc9ndJJjARoZFc5OAANtV92MBxtKn7rcEH6HmvpBbdw773Lc5jLBCQcdc9aoXemaPeFDc2FnLKhVoZJbdDIGHGWxz+dKyA8j8JyOdWAyWja1nVo+pfAyMAenWvTYi7rAY5WzGQkpOAd7AYUD+ea1orOzMjBYLNXRRv8uBFkJIxkMAOKV7a0QZFsZPLOWKcyENwCop2AydX/wBIjuLJnSN7lIvMlRQZPLzwMHnrx+NUbZpYJrKC4lDSOr4fG3yBGpB8xRwc9q2302JZmnDzCcKhBcbx5Y4wxA9+aytVjmkmX/WRNbN548lVw0JBjOGxzntSsBGH2NKxWN4WaO5DkEidSDu2huDnsOtVYw11CrW5YPJKFmzg7Q+cFVbg8Y+lW5bpXttpjQCOMtCADgCP5cZH8XrWMtzPa+bdgBBF5m2N8lTtGdqkdz1oA1LW2WK3uI4HmmFwbnY7S7lUxns5xgE1DJcO6W4MiszRBJnYA5n5LoV+vFUItUcpbotkyQvIszQggLKZWBKoxIw2fvCnXlz9milcxxG4Ez4RU2uZWJ+Zdueg4PrQBdgnleJXlQW0sLsssKASDAxtAPTnrTZJZ4IY2kkEsQuNlvuXdNlyVCORgdehxWTbXKx2Ez/v4ZGug0Dgs5R3IB3qQTjt3qybhDAv2i3Wd4GjdPILMsku4lWTPJx6nv8ASmIveaMKv2fEbPJ5/mOQYXUcYKnFVL4TXlg6wkI+5Awx8hiLAYQjGTiokv4jOoI3pslmmY8pDcHDeWezZ7+lWftKyzLco21scxlSoQMMFdvoaAJ1t4FeA4/eETRpFIUCkIFAJRemelWLe2SJoo0O1ZZJpZQGyoJ5A571nR3dtcBHOI55Vy0hBaSJlbam3PXPNPeeyJtD57I8HmApn5Zt7dWZsD1oAjd8vaC3SJVtZJY4Yjny1bfkuuOpPar3nqfLuGTy5W8sFHYI3BP8eMn6YqvFLp0U6Kpj8rfvy4J2gjnJ7e1P8+JvNZ3VPK+YtIAWYnKllA6YHAoAtXAeQSmTGyGNH2gqQpbptI5LD+VQ+RDF9o8xN6knaUYEnGGVXBwBnn8qrxzWH2lAp3tFC5tpyxXbA3zMAOmf1okv1a2mdQvko6zIG2hnLEA7s9QM5OKALkBW4kd5kjHyRFNn/LIRnjzA3Xj+dVLyaAM8JTywgWaR0BYbt+5VVjxlhUjmOCMnz0+zRrLukfDzSlh8jpt9z3FNWS3a0jFyoTGHX94jM6pkCRmHBFIBtvbRTs007ynZKXMON3lmVBiNl64XqPrViMThDuDPDBJK6SsQh3EZ2OG7dhSiYKJFDR71j8xpEYjajEBFbPOT2OaerFtyyTI8hzNKG2skZZcKgA7jrTArSwxStbyIJWdHWQIrYZJFXIJfrtxwapzu00N1doyllnkikWbli78NgOM7F6CtL93bW5jaR9yhgrFgPNEo5AJ+oH4Vkao4toWQy7ppkCPsbzNkceDsOe/OKAKZ2hopFIaNkcxxKg2fKOXwOT7Cm2waeS4fa0TxtA8bj5zJGo3Mj+nvj6VDK5LDOd4CgoPvLGcZUEHFXdOt2kuIZBuwHJaPkqYgNoPqfemM3oY7eJkeMOPkUsqsQkMLchAp7EiiZZIirgybp5HLRykNHIMBufYVKI2jZjGJCM+WgZl2hAM85ouIlmRXOVLKwSMMMcdWDdRigRSaB41nluCGmZ1mJCu3lBvuhCBkHFWPMtP+ed1+X/1qFEpQKzMzHGcOQCAcggDt2NWNtz/eT86APAZMhe1WtOkXcYSCS7Aj+WKqSFD3z7UtqSJcjOQMjHXiluNHTMGDwxoVDEgcYzxyQM8c02ZGQbSq+axUMUXABJztHep4PLmkjlO2SVYQ6KM7Fxxz71YRgymSbYGBbO1fulf4s1m9CyrHcFJY5BkyQqVVSDt3YwRitfTfPlAu5GfzWQKBKPkBckEJgdqx512SLJGCeVkYE5Gwdjj1rctGkMNskbtJIP3iqDtXAPO4fpRe6AwtUkUT3cDH5oXJTPR8jsfaotFPlatpMmBlbmMnJJI5OCAeKk1Ut9qlkUoQxcPgZAK8HFN0KKSbVbAeeEmZt0AdVKNKqkhX3djyKcBM9KWRDGshDRu8biTYGL7i5AOw8D86mMsRli81UK+YIxJGnySBgB35BY8VXsh59vIjBo0A3sz5LMeecfewtW4I2AiMpjZXiSISAkRTSqcDap5Delat21JGNDcTgsqRr5Bkbyj0APGxxVlZnQA5WJvL2hBkqpAH3c+varStMI5vOXa3ys+flYMOAN3eq7pCY9km8tw0b8F1AO7Ofas+dD5WPjmQAeeAyhR5TbixbPBLIOc5qSB5J5YI12GEo/mFSwYzfe3ZI9KyLxI7k2rRTyLcW7AxMo/dPNneN49q3oXd4LV2Xy32FZowc/vT1bI9etVYQ5mCZyz4iCybSzcBTtGP609WjYORcOrPtJIbcUbPT6HvVWCWW4+2qroiRSgQSK6uJdw+bcO2OmKfHbwgu37wZD7wjcO3XCg0AWJ5rjBcTsfs43kgFmOOoQUJLM5NxG8gSeMSBWbO0EckjpVd0d4trEqk5O9gAZEXsADxTo9sQRYnyNvl7WIwcjBIFSwJpbu/eW3EUmIWAzKAoXP+13waa89+7fuZ2hkSQFlkUMpQcbW9M+tNwpzE3yowWI5+VeaSfzYNjKpLGWO3nYYOUY4GfXHFGg7F8X0jRSIwVZFHVWyufQ1Wl1G6XySyDeA4kWEFvuj1PHvUc7QxRvGoG53ypxxubjL/AEpqyneWYArt+6B8si4HSpbsNInTU5jCzlFjdZCCv95UPzFCBnJ7VDNrOZEgijdZm2ucAPgZwDIvp61EsMUETLFudZXUk5JYDOeapTKk90bO0hJFqii5uN5X7OZcn5ujHPt0qhGzJqVtH5kXkkExLLcHacspO08CqUfiSwkWYQQyKIZTCFkG1wRjEhxkbDxgk1nNa6hIL7z/ADEhmZIIvKO6R4ApXcSemTVuz060t5Ps6lo8QJG/TM8HXy2B9DQBqprmnOxildop1jDyrjPlZGcM4yuD2NPfWNNAT97iB9g845wdwyvvz61z0lm99JewpKLPMKRo4XLMhfJ+Xpx0/Gp5LSBbZ4prYPFajdGIyMtEB82wcH0yKQWOg+02s6wyIyurH9z8ww3bO70qWPyd0ixybpFfa4zl155ALc4Fcd9g+xanpbW1w8dmyS77dQWWSRxlRg8DHpV6SxhdrjzruaOcSPdJPCdpBkXZsdRzii9gsdA1xYNKXMyb4wQrZ+UleGxt64qT7VAyy4ZWCbBIVBO0tyu4CuMlt5rW8a4d2MKQottgqIopF4Pyqf4uvNMjmuLK8KNO0SXQd0c/PFdAjMiYHPHUd6d+wHbmfesrAJgLt3htx35wUwvNJL5Zx5u1QVCqSMk57BTXPZkjS18yILbGTAVmcSEsQySYHPPU5NS395JGHY7pGUCWBByTwQQp680K4CXtrALiMspTy8gDJWOQE9x0Oe1Z915TXQlkjjCDZHJ5PzHnhNynj0zxUlxeXE1kI1yVfybgRyRkhFU/MqsTnd6UQ+Usd467WmlaUwk7cggbtuDkZx1p+oiklvbl7q6iWOUrOkomueUlfO19iJ02444qOf7O9qojUmUyLGzz5V2EjFgqgDOVJBNLaC7Ec6lcsrmRFB2IWLFpML12j+GpZ5IoxeXAEZ8m3LDaTuywBBYetMCpLAhnDok8Qa3eGUKMqwX/AJarnj196fPZ2sdtaiNyrRbUV8fOIlIJRl75HWnC5jitraR03OVmW2GG/wBYxAKSL07cHNMuSsccc0RdppHcyAruFw6AE4TtGvc0CBo7JZPLeBkjeNntpExgOBuO0jj14PoTUS20XmEAnyBJGu1OQzyj7pkb/PNacFub+cxb4vOa3lk25cRRKyqGIbGeBx071mzMIWPlyPKQE3RSKTGWWQYWMqNvpg0DGXC6fawhZGZG3uEEpIaKQHGc4zgcAcULb206TkkNEsirF5rAM8rrlhz3Xtipb/dHLbhQkkjh5NkwBbGMtu+hp6/ZxNaCFAEhnMSLMA6ySbNzySMvcZ+U0CGSWMFzI9lbs0M8aRfv3JKK56jHQt1NRx2azeWVcLb7n3MVLsy7SGZCTx0NLcPJGL5TLKzy286RkMNxKoZCwcDG4dB7HFTwv9p02xddrKfKlccoxxgbCo6Y+tAFc2ILW0KoZUcu4kYFcK3Ko+OgxRJbQRxXUjltsDkgsFVREuBhD2PpWjJKFMwlRmWFDO7BTghUK/IBzx6YrOctcQRvAqG1uooleGQjMabssw3cknv3/KmARWKvE/lMphlnAjaXO8q6biCO+KZNpwW0i8povtlrIEaO4b9zdRHLsY1B4561btxGl3PEVAVUFuiszZOxS5XYeACOh9ql8u2uoo1mAVHKk8BHQxk8KTyT0zSA5d5blpJoydlumJIZMMmAvLIRjOF6AVr6emyN5WjXcRu2M5bcBliVzycdqfdQm/gDMDDPZzsYm2B4yOgLKOoI/Woks2gNskxCyTSLcIyylQwwSUWM88Dgj3oA0pDJcwnOwKsCTo+0sd3UNsI+8PSsLU3ZZY4iHadiskkkqqHfeuSZAO+Pat7/AEgxq6yRNKrxsu4fL5bH7pHTOMViX7pPd3EjqQpcAbTuYhBtGWHOKAKQUE/KBI0jgyHIIAHPXOcfSt3RowHkB8tVjXJ3Eg7364PXgY/OueKeUfNZkkxGctCCCiA5bavSuxtIGS2geNU3lA6OeSytg5ZKBk/mFzIjKF+UEKwHBGQCQOearz3UUTr5u8F43jiCpyrEZBI6VbjKSM5dg4AeQ5QAhQCSuTz+dee32o+K9SF7EkMEUP2llzbkmRFj553djxRK9tAR1pu7RIjvkUSk4dSQH2KuVwi/rUX9vWv963/KsayurOzS0iuYJ1cxqxleLzI2nPZpByR3/GtH+04P+nH/AL9J/wDE1mk7AeNVPa/60fQ1Gwp9t/rPwNWBt2khifKkrwAQBnI9K1VmjaINIHCgCJgF+c7j0rGgU7ye20Yxyc+2a0rF1d2tWZg3EkecYPqM+1DRSZclQvHKYhgsAowTkkYwB24FO02UW01zA8czM8ZZSGJKqo+ZAfUmpFWZnkjjUKEQKhZwc5IJOAOKS0txG0eSSUMrwsW5fB4Y47VCWo9zGvVAuLrbyiyEMV4BPXGD2qtauIry0lC70juIXMYJG4hh8oNX9YcNOzNHsZ1V+P4ieCBVCBzHNaNgHy5om+b7pAYcMBTixWPZZIWnNu8TeXmPYhC/eRhv2My9qQ24u4o4bjfiOQzI0QwVKEEbT060+Bi1oqplmUKUBz9wDI9+lSROExGofMhlnjEgHAA/hPr7UN3FsDi+uJpk2iPMcRSWY/cPQDYO/r9ain3RuZAmPJhZMfMyuxwCNvX6VfZUmjV3wZlyUUnAZv7rCs+QPb3TNMzSiRFYNtJjhcDaEwfXrUOI7mbDNb3hvrSNWjlOy4mJZlWSJjgKjdAT09q2I7iYTwRGJjEYSHfcdu1evB5PsawzZ3EOoT3E7L5AhBjdcpGHYkHGP8K24rmPzACuFiZBEd/+tYqdy1cb2ExIpIox84ihklEv2ZeRHIQ397H0qWW4eIxNgeWoDyAfPgjsCKba28MEsl2oZPMjEcsErFzGpbKkqc4z7VZlszJCYFZRIkplXCkDY3I3dqGwKB1ezkl+yxzL5vmxBllBUsH7xZFWWIJRWCZ3b1BGDnd2xXPa1HbyOsbqYrhYHeO4ib5TPGMiIY5yeop3h26vLqx0/wDtHc/mmeSKdsgxCMlVLFe9RF3GdJ5r4Tcpb5z86kbfLXksc09iAnmbg+V8wYyCyfwkD1qsAFijQv5hcedjhS2ORlR2J4NTQkTxI0ieXIccoT8snsT2puIrgzKBJLuZlZFxFwy5xk5AGfrWbJqMFtJBFIypLIDNEz58nEnGG9D6VuGJvKZ0jUiMN5ZX0x8xwKx5bSL93KGD+dCxaNwrqeSflLdKlvoUkyeOXMZkiJ2OjSmN+DknkA9vWkM6ETbWDMyiJQuA7blByG74zzWNpU80jTSYC204m+Zl3YdCMHHoa0LWNkiuCuDIWWSNgMiQEZKgtx64xVrVXJZo+Y8H2UHAUMY52ckgErlcfWpBKPOVSjJKgMsTlfkKH5eW/WqxRZGRyMh4MiRuVO47TlRxx0p92zWIc4cwSJDDH84YNM7BVjUN096h9xomBVy5KIzlVeGQAgE52sBn1pzwoxjzsLpC8aE8MC/B21z2s319pLTyGJmtZBGokXpEmMOCOvHtWpDLFfxxSQqj+RHvt5UJLqxjHzIDxn1FNNS2HZolkQl4GKrmFo4zu4Mg2naY8dCO9OkKrw6k+YmzcF3cj5stj8hUUp3PFbpO/mqA5VVBJBXl3Y/pj1qwFG5CMjCbWYEY3nAKEH0pNW3GmQzRWZtnt51+WcNGsZcbiUGTtb1HU1RjeK9trTbLDLtjKJLCA3lzwttaB2x6dTV6/k8kCWSNSUKxRhsEOJM7gR2+tZkM9hE8ChntPtGHSHgRXDAkPl/QZzUX6Iou3N5PbSym6iR4LdcssYLEJgASr3PpVi5Nilqbo7TFsEyhWOHbHCqfU5ApDy0wfm4iTyRKpynkt8y7h0x3FZktmtzPYNaX7wWg2uYSgWGS4B2cbu/UjHWtI7mbLMkscFvLK6mI+XmZJyG8okg4DDsKjie0uIonQkGKX7SzFSNpkXCgEc4xVO/hlCFL5ZGzcsoMXAMSjKGTHqe3rUXmXVvCJYy5muEjLG4AjhgQ8LJJtzwPT1rYks3TeTcW2oRN+7mZYzFCxLB03KWUHjHrSzsI3hnXcbe4lC3BC4G8gYYE8jHpVQR3EqafE6DzBNGsrSAK8wGctEFOF55BqNphbXyTSybbNVZJlkVwRJvC+YiY5Pb9aAJGIQXIhKi7WKSKGELtaMl8vKVcYy1Ma4sILmzliWQQiGaBN6GQhrghWdlTJKAgA8e9S6oqSubhWjUzhRHl2WaJTlFd8cgnsKyreJ7ecyGYTlQLaKVc740HzSRMO7E96BAbiWL7PtkllOGgupYp/wDVENwQ3dW6YrQuZIYI7e4+dLeRI7cGIMCEEisQVPJOetU5ZYLeONYhGfPnEhG3IjAbOdv0q59rt5WjZZT9meaSSAGPCsMgMjD7wBPOaAJLmyjulSe4mMcJn+0ZJIjkhUsxiY9cMccUSiYGyuCziR55LoxFT5LEqP3eIxkcY25qATOl1eDiW3iKiESsDHCx6Bj93PUiq1vebJLnd9oLR4KyksELyOS25Rx3+U0DJ8SPJYApHtEs1qqyMdwZpNxWYDgD07nFXLaLdbEQ5EnmXCFH4jeQMQQceuBtrOlch1myybYpYfnGZJZN2QSR04OFqVbzCxyRRsY0ZWndicuRwAAO3vzQIvpvN0iRzMJY44GuN7DBUnbIrg5xk980SQvD5kkqxNE1yZ41VDvbPyoCF/hHUnvVRLxAERI3e3cqZXfKvJExJKsx5GKkfUXnX5Qwh3n7NvypZV4VG9s/p9aLgRxRzRNJOiyyTrEJbhGXaAm4oGRjzgdfpU/n2ccNxNJOp8iCN2cMfK8znlXbnioVuJXECSSFJhiKdiCzXTAEeX+HUY6YrM1IzzosUiqYlkZSkZTe7KD8jhew7UXGa0E1zH507v8A8fMaptnA3SYGVl+XjODxiobW13tbK6lri0aWQySsDL5WCRGrN1yKisbyZrTzLoM6W4VFaKPf5ZXhYyAc5XjJpj3LSyIOHnuriPeYpMxwxj5d6OePTIpCNYShbVkMgZnQbWVdyxtztkZe+OOB6Vxsb6rYSfZrqOS6iy2LhEYSfM2csp7e1dfF5QjtiRtVnkCMUKERoxGfn7HGQMd6tNGsoiU/MgO4bRguSPumk2NI5iIRsd8jxxQRJvkCDczoxzhY/f610FpqaC1hlkiaJWlkiSPkzAbflJB4x7VBPYxmKeaGNlILoyRqsjkEgZCjsOwpj2z+cdr/ADAF4k/hUcDee3HpWTqNMrlFi1+1ldkgQSMQYbhiMg7vlHy+1RKNpkYKuQPLIA+9g5BYDvVWPS4xOc2x8xgz/blG3zSDkeYikAY9cUha4t7e68r9/PE7GZTlXwf4oh3zTVTXUOXTQskCRXibdtIQuPujn0b19RSeRYf3P0X/AApltcwXsUSgSxKQfmlxs3r1XI53euat/Z/dK2uidTxRuB/WnW3+s/A01/SnW3+s/A0gNeDPUfhUgYrcHcSq7EIYDkHPUUyA4HHGelSoMnccAnC+uBk5xTGb6ArtuUcSIyqA7Z2Sd2q3EV8+FlAVWGxQP4FHzEn+QrH02di32V3CQyOXjaQfMmf4PxrXiLpdW8eP3XRSCMMV74PNZS0Lic/rEgkmchjncV+ZcdOTjNZsP+ttiScCWMep+8CcYrR1cH7UzFgQHkIPQ9emB2rKOQ2VzhdpBP8AvA0RYj3C1aOSLzAxUSKHQn+E9Npp8jhXjPls0g+6VO0hQMlQTxVa1kwLYFUEbwQNuVcIHKgcirLs6uitGoUuyxszHK5BwzUdRMihubcyMqRuN6q58wNuDDkhS3cVaWaURt5oV18xldyuS3GVZgOh9aobg5HmwjzVeQBwT8gXoD7mszz7mMPglv3jqU3lCXQ9Sx7c1pYk17m1jueLkAIpiddhIVSOMDHUHr9akP2jfJ5HlMotzFEWOdsoGNpU/nWck8igGXLYCoIyOVDf3iO59adm7dcW7JFv3FyOTvU5+Y/oTTsBo75ni8sb/MYIkr9DuGCRnHT+6avG5QRu4icIoPmqW+bBAJZc/rWW07eW+BjbGpkU5O1gemR60Rb5IxJFKw84bwjA/I5zuVt3OPalYAvbCyvFt2kB2xSRzo8XB+Rt6qwPNPjSzjt2h2EBct8g2mNTukwgHepFaMxLgllyJCE5yRyCM9qa+1zJvZmJRBsC4Gw/eKMOpNJIB4Fu8ltcZbd5fkwFw2CHGSz4qxEWQhQCT8u9DyvHXB9e9VyxRYhGCMFf3bYzj7uVB9OpoWYFJEhwXUMpLZ2qwb5kb3oeoF5J5THIGkGcupdPu+Wx4yB3rNvY5ZVt/m8ueB0Qqq8OrEgqp9DUqbo1lRDsfjYgOQnfJ9jU20DdsGQI9o3EsxJBZtpNRy9S1Io2tmttB5SrtkMzvIFAbzAM4VSex6GnRJLFBHC7x742Zso5RVPUjuOOn609Fhm8nfN+9I8yHDAHA5wrdef4qkdUk3EgBgwUA9gVzukH8hVolu4+NtqSI8QEAhLIY3yGYHJG3rzU135D2EbohYOP3cTdiTk9ehFVrtZZbd44XEd06q8bA5BKMMqR6H0zTx9rVPMlCvjcu1eWIb5sr7jgColG6BOxz+u/abnTn8kM/PkEBtxAB3c98+tW9GtIre1i+0b1lWFFIlZgFh9Bt65z1rQxbTQk5FumfMnV1CtvHUuT3HTNNEgt0fzVdhb4a1bblVSTBA3Hrk8fjUKFmW5FlEH2oSkwiQr5BVRkxwKM/e/vHjNSxRRM06nLINmTIcnbnO8MPeqZ8uNxJIHDTOnmHgs4UdCBxhR1qzaSRyAhJFMaB48IPkkfgnb7CraILN1HC/EkPmL5QVwME7gcLjPp1riNdh/4m2mIYwfLXBccFYM8j069K7GWaV4t0ZPy/u3+XLSE4I4FZsunWss8MsuTI5JjjY5LlOiDPp1rL2bNOYu6WCI51fLMQrhnGAQEwFcNzmrxton8tPLAHYjGUY9GUeoqpMDHFFMkjmSAHIIBMyqNu2THH0pqXNy1jPM+0ziH9y0QO1fMbaBgc8d605SLlHxIBA1rLEAXhaNZkV/9ZE3GGTuSaz7kiaLyoXARzZvHEPumOJvMkJJ68jGKn1BoBDNdHMk0Mwsod3MYKgEPg989SaqWglDyq65xD5rgncoQkyFYSOdzdjnjFbLYksL5txJKm6NoTMs6q2QzKRukKkc/QVFuMzSTA+aZJfsykjhCAoVSp7f7WO3vViBYWeFIJPLDmNlSTPmqAOVbPJY96q30zo0TQ72vLmWZUgUghIo0MeS4GB6igCO4lf7RNDPCHh8lZYJzwWcH5xgcnbjNPmWGSW1SUxMZl3h4crGjJgkAKMEkVY8mPNnDIU+1y+V9nEhJVSEIPK+nJI9TWfLcXUFyrIk0iGSeGSLy8MskbYExxxjsSKAHFv3ksztHu3STGGNdnmEfIJGLfw9qmh+zrIdiE3HlSDecDYXUMwbbnp2+tQXKvKNziGSaKaOa6eL/AFZXdtEKBuRwSSD/AFp1suxmiaNVjjhmn3hyMeaQvLDnJ6Y9BQIW5j8qMm2EYEypLIm0ASRJ1JzyaSWILHIodkhcMyuzhwIwu8MvbIpTdPFcxqyxYkiTa7rl2LHaqf7vb/8AVTVRHuLyLZ+9snjxE7b0UMpJ29iMHAPagCK3ghWCZZZJyRKQZMfO8i/Os+D29KskSyxXU22ONLhI4bXYfLKRxja0jqRjaOTnHJpgdWuWtm3xW4MluEXcpuUYBtpc8juOKmimlb7WRC6TCVYYkdsxthAFKE9FA4X9aAE8rLSIrhBIrFIpgFlkDR4OD/d/iBFD28ZEVubdmEeyVHJOIdoI+V+mRj5qd59g2Jpgzy2pWFcgsDJuxgsfSoZo7l7qWK3M0kckbh/LQsRwuRnOOpNADjYRyzBY5ESQIsySKP3sUnO54yezcEnvVZctFbTzJCt3FPM90YlLQyRupUMhPUE1qI8dtJcJG45gCxnYHY3AySrE8jAHyipIofsvlM9uqQSIjCST5mjZgcmMc/Nnp9aQzmYreS0lng3SmRLMPNxiCNXk3I2z7xY8Z9K1rVFmnhUSRGEkm6Ii2rJOp2r5RxjYe+OeKrXUs6XN4oDH7CbWG4u5YyrXLysCYvc4PJqyIvsEFxLbzg2tvIPKWY5eO5Lj5iF57420mBZmtpJBCkjecFLiaNZFAdI+hjOcjB5qtA8+n+dHK11JtdUi/dmR8S/cG/IGMdatRQW4V2t335k+0iRjuIZwNwx05qaSSRQCQ6ZQbgDuJJb8qpoCtbziWO5ALpJtZkMRCsyhtrAj1qbMkhEkY8yNEj3pyH2jqwwMHtWVf6bFO8FzBPcW9zau8gERAjbnOHTvnvVy0nuwpW4CJKqo4SJsh2PVMccDrWfKMvAbi8WJBKSFd+qgMNwAyMcd6hmtYgHm2ksAy/J98r32nrUIuyxnYtvYkEbFJRRjPVeD0Pep47qKQCWMSB3jWVPMVghUnGBn07io5EO5GLaUmcjyQpQsiFNpDYB+ZehJ9aq4f/ngfzatOZw5dEfduOTtII3Y6En0qPbe/wDPVfyT/ClZgeDtyeaktRl29MD+dRNUlswEqg/xcfjW5JrRnB+nr0qYfMWOGUAbASOSx5yKrr0OemRj61NyRLkkgBeASOSeoxVIZI8jo1oUb55LgMhGABjA7109k4eaJ3ZHld3VQ7/MoxhioA6nsK5racKCB+6K7W67dxzxWzB5iYdAQ8ZRmK5BbccEZx6Vk0UihquxpZQ+WETbFJAAbnnmsKU7cqOByQAc8DmtLUZiskqqrspkYAHg4B4Cg1iPMh8zKvkdN2OvoQKcUDbPbdLuEubLTJQwKz2ttkLjKYQDcR6Zqad4jdLPDJIShVJYgMqyAEF1zxxWfo7mKys5NkaFba2E8aRsgWPytwA38cd8VZBnZojJGwTepXavyncdwx6gDrVW1uS3ck+0F8zodgWVIzIx3IGYYTcO2fSoZYVYPhd00UmJl/vFuDnPbuKtpHEEZWMEUU7Ttvj5himHO6RT3A71my6e0wEhkdT57XWYpG81ykeIyCOMHqAaYiSIRuz5BBTMe8Md0h7ADpj1qSWLyysjlljBCyYB+ZcYABH61k6Rd3eoCZGixd2dw0EzREKkiYyG29ie/vW95LPGNzFXY/Ksh4j7EAD9KBEBnnT7OrRTssoKtIuCqBfusQeee1SxzHMImUmQkOrEqOW6k7f4sdqJI2RRlvMQMIkwDz5h+7kdqivTcWlxp9tHHFJLcTqsO4YCoqcs2P4vTmgB24vcTpv2qioCoOAEPAAA71cUhQ56qEwuDwgHTNcudQ1Cxkvi1tDNaRTiK4nU+XN5fOMFs7iDnr6VuiUBFkAyHjVo8thWUj5dwANAy4I33/aDtfYp8levzMPmO78qSISlFOBl2cszZId3Xp69aaJ3UINh8vaGV4sPwx5AHWl87YhkUhIIgd5zjO4cRgHuaQFk+eQu3EbvtEik7l+Vednfk8ZpEA3I4mbbvDINuGTIOV+lUWuyzMLUGS8ZBcNBIwDW0SfKVkdMgZ7Cq1p4itZ7r7FLBJBcxoZD5u070B+fYw6kdhUtgaeIlk2jajmMiANgtheSR9aIiZt7NGUkljbfu5JKcAHPHHamvJk7/IWVg/7plBGS4+Utnv6gU4OEZ2LxiTeVYq26MYH3vqKoCckOowW/dgSE/KpLN8oVaYJ0l3CN42AnBdi24xFTtcZHQ1FlXfy1ba4k3l+obdllAz69j2qs32OzJiWRIo90lxe4ZCwkAHyMMc5/pUsZoTjc0anGwsfNV1V1MeCfLbP55qtdwvKgt4maOIxhtxzmI7wU2Z689qSWe4ihWa1aOaMxs6hmRgYSeWG09ewzU0ciqYizHLDe0T/Ns3AKoG7t6UxCtHnEJbd5ibGJYhztBJZQOM5py+ehdVAUxqDuAUrIACCEHXOev0qpDPcbmkf95D9pENtsIDxKMo5L+vc1PFI0n2yJ22eSWEXylWPzbQ289z6UANKSxwzCMl57lEVplPyw7F3Fhz0H9abh7i4eTIVbcQTxMCz/ACuu0unvnP50SSQQ/ZF2lVmVhKyAlNvKuQfX1pLeWVJi8pfLSyoqKA4MCLhAoHPuaALkTNIQFLFQ0qsTgb0kGFJVuvPNV4k1IXECxSwJaQzCWaLozxRjOfboc05GSeQy2x84oS0ZLsAE+6wTijUNRtYtJ126RgJbXTLmJWkOCrOuwZzznmkMzhHBK89yXV7eYzyTQH5kyW3qyFcAZ7mktktoCJMiNboCZkwrb2b5VkQntgYFeb6Xrs1rElpdtcT2iQ+SYI3ZFZW+ZdzDkgH+dddbmyuobeCIIj+QJ40yXSK3Jy0Z54z7nirEdXHZ2rPFcTYQuXWCNsHeJM4Xg7tw68GqtzCHtYg8rrNBM6vJHFjEinI3g+3T61lLbxPJbTbmhaPcLaaORs2ygEqNhOfm55AppizKoMcx85nl3JIxcbE/u7sEeuTQBsL5EUcTHy3IRZJULASR5+6xJ6H0plxCWjjnspNi7PNMasGcoFz1JIIJ5asua0sbiOxD7iWmWNiZACHVQwEg6kf40PbWYMcZ85FxkJGZBjcTiPP86AGPatN5gitzJG7bXdGYBC3zSbuR14C/X2qzcXNnaKXdoAt2imRDIgaVEHlKFXJPBNZ89jOJYFsrmQw+SzTQZYFlbjPm5yGA9azbCzWWcvc2qLCrSJaOSX3ycn52HIPGQM0rjNO1ZJbG1aWbyr/yriG2VjhTO2UH+s+XgfdojcWllbM1yrxxyos87umVJONzknIwcgjNQGOynDi+XfF8ot1IPkx7wQWBXv6HNS/2davG1qiNtkVHMb8qsOdu4HH5VHNboHKXJJVItJhPCZJSZEmjzJ5KElTKG+6Ca07JEEd6yiIKZtqBjlZsrwocngZrHlsLGaFLeGMpFEwChSURlHRXHQ0l3YQmK2jSUx26gBoByA+cgMCc0KVw5WaNkI4op7QhT9nlkE6F1LHD5LfLyRnFX4mijVIoWQA/6R5aZRvNMnzsVByM8cE1y1vpwtr2aOHzTI4E08ssgAjGA3koAc5qS3s7aOS7KSzLJLKsxAlZZE2HPlrtPfqRVXuI3YUkae482SGOVJzK5Rl+0TW6AgyNGeVyOM46fWrUKvPBbtvCO0iCBWUBPIDF8tu7n61z5soGmF28Jlnyu6dJCrsmdoQ85IHGasNEzgq7SbSuMMS0eGGGyuePQU7agaZhivpdQWQo8LsspnDDYk6gKEGD90cHJ9KhaCPyZvtiwkRo5KQudruGDI7EdfesdbZYh5UcKrDO2LmOJnjVyBtBEZP9ae1oIogYY40Bj8oBpGJV88YPQj0otqBaEpi2KI1Lh9rRqR5biQ5AXHJFPRzvYgAwn90FfdkOTt24zketVktRbD90pAYKYllzuS4Jyz7e3pToXJeYN+5dWZZVc71d3HylcdfU0xFsGQeY0mGYoI4gT824NjGR296G2sXABZ1k/dkjaC2OgNROzMqtls4UsAeeV2jIHapUjKlWfIdmXOw/LjGCysR1qrAZerQ6vYwW0mmW6u8kqrcWykeYUxuLR4xnnrxUWlXdtJbRkKyTiaTzYJZGd4GbncVbnn0Nb2CzeZIu8klYgVIaF04ypBzisrUtI0+7uo5pUnF3hVE1sxhd1HzBiOhb/CokrjLsflLIHcyIWLSyyKv7skjGzk/nWjmw/uN+Z/xrkI7XXtJDHMt5au2zZDvkkAY90PQ/3uasfb2/59L7/wABj/jU2bA8lYg9KYM5GPUU5uvJpg6j61QGxCxZB0yPvZ7VZi3N0A4bv3zVOA8YPIOMHuauxnkrlQCM5OckelUgLFuxLFW7Oi4zjnPGK24zkOAxUYGD9DxxWLAhSSEjcxMikgkYzjAbFdFpiRtMFYhmKsULfd356c1FruxS2MDXLS/klhmijbygjfNyOc9MVzL20oI3kDcWyfQj1r1rVjBHsiWIthQZp8ERw5GMKO5+lcbe6UVkheNZGF05bzJEwFULnPSmlYk7PTy+3wtFHJvmmtFe8heQunkRRbfN9MjjAraaF0ECrIzSRu23eQPlJzhNvA4rO8PWlqmm2V0zIJo4UUyI2+REDbevQD2rVcsbgy/IbQxMu5cbvMzu3EeppgS2sUv2gq8m4FpBNF5alTk/KS3SnS2U0UUyI6lWZtrfdILcBTj07VFC7SbWjj2xrkq6EncCeCF9fWrDuIxcuXOTIgAbqRj+Be/vSYGbpmlxWCzZZjJNOzySMRuZu+4+9WSysN5hkURxPLnH3dh6Hv702S6t4t/2grtcjOAR8rdNw/lVryxGJGR32hFypIwcdGBPf1pgMdPuASLhYRJGF6BmIYMR6jpU17As0RKhc7Dhjxh9uMA9c1XYnzXkZyyJKka4XJVnXJB9hU5lK+Ygf/WlQu4bgN3BNIDlxZujXsdzGWF8zkFW/cp5SBEbnjcOtadhC0VtbQM7Hy4x5b8EEf3Rmrz26yyfZ3CG1SJx5POZAeFlVh0we2amVIxKiMu4rjy0CgFmUZLg+1AEQITawAUHahAIADHuhHFOiEErBG2yoshCqRgqwHJPrzUbW8Enki5d/ndnUDdjeTgbsce4q0Y4SrRFSqhyd4PVlI/u84NO4FJYIrRrmCEGGYyOrupOJTt3PyerD+tcz/Zs93rtlN80a2wWXzFX5YTn7rnnJNdr800kjM42kRgk4O0xsflU+rDg0y3iVTM+FVA7S7WQgsMZOG68HpUdRog8tixlkkPmQsdyklVwWyMjOOOOagiHlMWi+Zc+WlvsxuY8Fxn860JEE7KC6eQYyXAyJAxXgqRwakCOFb1CKMtyqhV4YY55707iIYIDctbiQ5kildd8BxkhfmTrnA6VSvLKKO3u4ypYNM80j4UyO7sMnJ4wPStFT/qHRGHltlGhHErsv38f40lzD5wdVX70RJMZHLE/3T3pMaOK0TfHqOqrGNlhK7BxPl4yy8koDj8K3bedbm2icRTq0srsBLJtaFoC2N2/5tp7/WnCwhhhXAJWGUSqFDb5bhSx/fgcbRweKkMD+XmNVeSZAk25toPOXbe1NbCGyBFMUDKFQH7QxjJUbX69OOT0qzcBg8Nq3mFJvLYlM+VEFfcGfPOW789qd5KuVVQG/fBCCMLiMhjt96nuZ8oyWYH2gL9nQ5wysZAXVQ3GMDr+VMDn9X+1z2DrCxtp4J5UtniOTIkZL5AfOQef8ir2l3KXdvps5I8wxtGucB5CMMzHHT0PPNVtVhjubq3S2mkRpHmt440DCK2ZYyrjPTJ5/PNa1jaQRQW9uhTYkcYYlcyMyZKbWHGOpxUX1HYfEiwbvLdjNOz/ADk53Lxny17KK5nxrDdW2jX80+2FbuW0tsp83m5YttJHTpz9K7ILtlVpdh2lfJJGGJxgk1w/xLvX+wabZY+WS/eRcn7whj++p9OcU07sR5xEzqzA4Khtqn1U+jVrWd1JaeZJGx8ucqksPByAeA1YMTkKRnIJI2noPpWhD8yIUZS+/lcdR6VQHd22pyXMfnuolQzvtfYUVpwm0QPgdBxgVrRNKwR5oxDMVRJvL4gcj7sSH73HGTXC2OoXVik8Cuz2so8wKduwzDlWXPpWjp+uaiZIhfTxygoEYkhHj3kdWwRj6UAdVFHbxzSXEwjIiHmRhkJaAFhkRg/nmpNryyySZIYgMhbJyDl1AOcEdzVW2nWdRKAskMu+OSQghmhOF6D64q9ZQkmWR2DSGHyfLkyUQRHAWIdfqfamBSKvFH5USg3LmOQsGIxgksxb8wKhtLlrn7bDJbqhjHmPEP3avz/rCCMg468VfW2MkqvOr+dCzsl1A2xYlGNvynv6iklsoI3urpd7zzypJKQ/zhAuGRc9j1GaQGZdROEmCNEEW7gDNbAhGDbVBjRskY6Gn21xb+TLskaVnmnjfzNybJYxxFk8n2rQ8rylLKyAREqUkUANIeQ57j096rSafbWq3MlnuSUf6V5aqduGUbpQp5z1x060uUaER5cNGEbEUqKwcjYGdRyT2xyBUxJjEyqis6jaW43hWGVUk/TrTHmKohZmKyF2ViME7Qp2MPXrz2p5MjSHySgjLowDghiAMiNPYdc1m1qUhhTcEcKsZ2q2Y8MSyjOGz1PUGq72sUf2mVdyNMxLyIM/vCMkoOuPUVfWGMrIYn3wSs2wJ8vzsdxCk8gU5OrRSREyuzqQ2SixrgMqFe/PWlcRiD+0rXEUkZuYJ3VhJACiIo5JIPINaMM88vlsCikOVbcNxIB4GBxz71ejtJgs8KHY+QIZNocJGMtllPJPaqqxBVtUtWC/O0oRgZCx3Hc306gZ6Zq0xEwSKToWBTAV/VwScZ/nTBbou2MoodmV2LnjdjgjPQjtTftPkyTJdoIfk8yMFxs25yQxHAP1NaUWy6j81WRkkChHVflIHP3ulaaCKe1yudjkbcCRjlywYhsHrTlgDQXsW1YzIrLvU7Xl3AfcJ5ytaJii+VSPkYjIGQRlvX0pjzQW/nfNlo/JhYqjSMCxwAAOPyouBnfYpIIVJMkmEVJmkXDuV9AvektJY5UTDEDccxSHMyDOArKOQfWtPdLJFG0JKrtbczMCDIvOBWXqs50q1uL1CI7mTYryBB0znBx1am32AvRxyxriRGywIUnBGM5GD1poTa5FusTyQjzI45nb506twOcjtWZY38t7N9lZpmRYYppZnYEDcu/aCtaa26Ixu13yzsu1DI/3GGdpwODSTbQhLCeOa2iuGhdFm3OtuSN0fzY5b9an32vqv/ftqhVQsSk7hyfMyCMsvzEqDx61g/25N/zxH/f5qadkB46xpB1H1FBpU5ZfqKkZbDmKSPBwNwP4VqIeEbtnPAyT7VlbA2OnynJ9+9X4WLJuXH3geO3ai4y8h+ZCe/Rgckd8YrasXMU1vLnLjIJHRUxkA47VgpgywZJAXOOScEjpW5YHmPncS4DqQB8v0NMDdtjdXWqMH2TW7KwZJQcF5BgGBfQY5rXl0yF7ZoXlb7Q0TW8sMZDsNp3ZyBwMdKzLK6ihhjVjtlW4lI4G/GMYJHoK1tH1S1vbq8W1t/LihVoZ5hykrHBUyN98v6VQjKGlahojLPprv5TKPOs1IKOFA3FQ3O8jipYLq8vYxd2saxzLLKk1m7hd8Y/vk8bhxzWjd2eoeXcSRbHJcbY2Pysc7dqt2J6moYdOuILi3mkmRgkDEwKNsZlk6l3OSdvakA77UYOXkJURxS3aou9Y5X4Uxlew9BWrNLalYpCqtsXzYvLPzBXOCR9awl0iwjufPV7iQlNwRHZUeRsqdy9MD2pv9g6fFIslsgjkE6rIrySusmAWKKCfx4oaA0GRHW3E7+RHiSR0mdQFx8oTPQj8eKtMVlgeGYYRI9gmRydqgg5Deo4rNOn27iVZo5WimXy1jZmI8s9VwxxjPNSW+nCCAQrLIIoE2xpvPypjJVlzzzyKBFt72zj3B5R+6Cq2DuY7+nC889elEt0sVzb2o2F5NgjPJWVWBYqpHOQO5qkllYyyJeLG6yDMTyOu2VwFIGQv6VI9lbzCKaSQqYYysQXcjiP1lcHPXsKLDNJhs+6hYEorKCAVXPBBPb1p8yjc4W5ETeYrxsUUhI1G10XP96suK1miR9t1IFusGUmQ/IijnaXyR+HrSRWdxbsuy5mkAd0HnMHUYUZZS/PtSA0Rt3XKITvcsFbIJjJXb8w6fSph+7W2XLZK7A0i/M8iDAcbf1rFhiuoWkkFwyCaTc5EatuwdoC/XoKcYL+OQl5jtBIgD5Lru79eMc96QGwPLgjYfKzxqvmEHIwTkv6D3pY5IpGfy3H3AwQcYBGB26Guea01AZmgn2eb5yMjABJtxBPmE84P+etOmTUQ8VwJPJZyCxyxZQV2KsY6Y44BosB0igNGEBC4GS3U46FRmnbGCjJG4/KpVTjyhztOPWsKG81oMRcW1skYiJRo3cmaYH+4RwDUsmq37hStlJGoBeVXlyURRjOVGOv3R3FIDZMZZoSGxGFO+MLt3HoDnrxUYWREJMceUExBGdy89BisS8v7hW06ZyUjhfdOYZD+8I5CrkdB0+tV59bvhDLd2VtNc28dxGDDvBuRg/dTAwevIIoA6WNQWQpwCzbcqch2XBOemKhkSFfKhZW8thIWYYJJByzEeme/vWC2v391DA4s72wn89J1jkClvssZ+dpFHHXqPQ1rPek291j7O0qbVhhfeEbzB5nytjOPSlcZI6maC4gSRdwG3JO1oQ5BAyPbIBomWeGW3ljCmMJg4YZLlgAOfxrMi1OK2guPtBmuIxyskkRLSREZAbYOx4FW1vLQ2FkYpN75AiM0ZDxkMSxZB6dBS5kFi4qQBkcb90Uh2AY3b2PBA9euakgEayS7fleSecFduOFPIUH+dZja5pcd0U+YyxF5j5UcjOsWzlmUjknHardnrFpcwLclSsbKWn80gPCOoD55564oeoiS/uGt4g6BTKQwtFkGS8g42gGvN/iDdLcT6HZ4Ia2tJppo5Gy8Uk7jIyO3HFei3V1FcyxzW53ixZWYY3IS2CFOeM45rznx1pOsSarfaykXn2LR25LxctCFXZtZOuAe/SqS0A4dkfgg5wBwB/WnQSPDIxj6EY5PfqaAxCurHqQVB42jNOSFmYlMMFwMnjOfSmBfhuN2drFSwCgPwEPbaKuRrGsmZW3MFDbY1yNy8/MDWKmfMYMSGVgMnGDjsCK0bO6jVkVgGkztZ2zyo6D60gNO11a9s5kvEmeVQ8caW7btojY4kYKO1d1p2r2t9DDKXiTzXdChOZyVydgHQjHavOyYZ22rmORmaIbV3bV65J9KuW01zby/bI2QR2/EZCcRhRtMoDcYFO4HpO+R4shY9zI0saOSAz5xnHoBio5Akkb7llj3xo8uRtLOGwMN7e3aqGl3aTxW0ud80gUi3cYjCL8hmLnu3XArbjlgnjDrMGZWkTcwKwlozs2888dvUimBAtu+3CeUD5YCgjzF8oY+6rc8mo3+7IGt2aJJTJHO4J80j5OCvPHpjnFXY42Eu+CTcxjAdW2FY2UZUYHPPf606MhN8OC7pGgcq7MYwx+YlfT+7jmgDOu7Gz8yxN0oeX/VkoxJT5SQSEPTtgjnNVYJZbW4ktr2QNEJ4likeMxqiMMowY9j0rbS0hikZUEXmMDMvlDA2lgMkZJzTjEjrKsyiVpDucBcRvEpyFAPOc1LVxp2KbR2crJGmfMkITcp4Xkn5cccU0Ws8Vwm52fYjoTgt8r/AHeT3OKsxQx2wEiO0iSZKKwBCeYeVdU9Ome1WFMc4YZDn5QTEWUDtwfSo5bDKcCtJEXO9DJIWbOFkVvulee2O9EVmgfzt2WTzQONu4ScAPt/OrTx4I+fYi7csp3EEnaBgd6dGjRvNnLLk5HocZBYnue1Tsx2KFzaPOrRXA3i7UxTKBjCgEK2AMk+tUVsP7I+ywXE872ccZjikiyux/4Q46A10L5XyZI9u5sfvMj936nv16Gqk+5jLbBA0BO+USnklh1U+g6ir3JJ4WiKQs5OCF8tsA592rLnY3DzpCJFuba5TzZiuFZSBuKDoVxwRVe3hke6MNpcE20eVDyuSilfvgD6dK2HZPKIBZfkTHBztY7QxNEbsGVVQwR7Y3UwjzCu0/dz/Dj+Vcp4kuftEllYhiUUCeZCMtGegyRzk967AxhVGUIz8gI+8+77xP8ASuNhAn16+kiYKTK9qDIN2CFxlgabdtgSN7QrBrWzQgASSH94cEYUnCqoNaxQIuxEC85ySWbd3z7VHHG8SIFZFCR4B3NtyBgkg9807lfl8oByokZg5IyvueKqOiEUL2ScQykBgrkruJGEznccH1rm/sNj/wBMvzk/wrauhJcXltbGTAGZMNjBLkA5FbH9jaf/AM85fyH+NS9QPnUilQ4ZT7ikOKWP76fWqAujaDkdO3sTT4jiUOpYBlORj+lQKW3FT82euOO+anGNyHnPXHf6ZpFGqhIe3IVCG4bzO24ela9ntV0GcZAwSAdv1rDspo5H8sgZRt0mefkHAretlJ8ts/xBR0zjOeAO1UI0/Mj2DaoVmYK0rDbhBwXzzzV3QzaWzy5BIZvOlVD8kki/dGOcZ9qqwpM3mL5gQkn5cfIVORg57YpmnvtupguQgcpbhOUzEAQWZaYjuQRKwflfmwFiO0EdTtzz9eO1BjtzclyhDJHuXDkL6n5ehqjpMsjlYmnjY7yynavI/jVN3THr71pPF5glBVdqg+WsYwQnYE9cmhgVJYpJZmfcXFwqPFCm1BH5Odu1h2NOZJNx27fMYjlshVHQjcP4hU2fKj3fKnlpkK/UORtXIXsKJIlETPFgPC0ayKpJ2O55ADdMjuaLgV28xXCncV2SNluAq5AXeT37ilBicfKc5V1UgHJOcEnHr2+lSmLEchKAj/WKoY4C7sBVJ9O9VnZQzSMdiNshjCkgF2OBt7k0AKUkYTEyqGkMUQVOG+Xq6n19BTZWAcrKSXWEHCLhTj07fWpC6wwyGQeWRkGRyoYAcYB7ZqnBqEN9dy2tjFJNlAvnBvLhUqQWUO3b6daV7AWmVhG6sjMXPlpgZxGRuxjtSRs7bM5yrFlLDlcDBC8U7Zcx2zNHCssitk/vDtcAkbkJ/GoLKa5YCV8R70k2oyFZ1w5Gz5/XtRuBO7OXhCqrEfNIpbadmNquCe4psr20ahncIrRkoZWwCq5G3J5681RuYJZRNKZpHaDM1rED5cYlY4AkdeePQ1bhgWSBS3k3FyiEyM65Uy4x/EMUASNsaOF/NWNWZWyASGJGDuz+eKjl1Kwgluowssr26wtIxXEYSXhGDP8Aj06U9o7kxowCxyE5IQBiAO43cY7U8x7Wj3xoyzIAoZdz7e49Md6TQFS6/tK8j3Qyx2OwKImZRO0iMO2MckVcjhJiMMgMq7Rld+3kDGGIOalCxK/nOreai7uhGU+6CQeKsJGhMeQqsrb1z1bjnINSMy5Laxka3R7ZGjtyCjGRh/qzjAQHHHelUIsyOsaQBtySBfuMfvYUjr9a0I4IFVRuR1xKGIwe+4hsdM1DKjKjO4Uxl18lCFUK3TCg+2acdQGq5dQswQklC8ZTI8tugLHmpPIGfmVgzYGcDDopyhGemOlNaIcBFkCglFKEDClOpzz9PpUiSr5flEDABP71ss/TJYjp7UWERQKjzyQSbmSNmf5k27FYFduB8uPSpmto1WEIq4BWGJmIUiLqWJ/PFJkHzoVf95gHYFy0kWMbzj07fSq5f5Pnnj8hYgkexC0kZVgGWR17dKj2aK5mTPFBDIAi4HlsuMD5hH82WcciiaK0aIJJFF874LMQBtblWPb2FVma5SeZg2EulSFn25QEKQmxTz9T0plxJDC8jBWm2jMpi+dhhQisI+hxz0qlFIVxsi6hFta3eLY7KxEycmIcYOONw7VYDtIqEoDYymSKUgYcROMEuG7HkfjUbFovJhTfKzRiT59pVCDuDsRx9RSSy3SL9peVBAweQmEeY6OvLxbPRuaoRwPirwslrJNeaPAfs8cJuLy1DbvscatgSKTyVPHFcirlNu1hllIVeikf3mNe5MXCSnYiFofNjZBu3xgBgMkdBXiWpCRNR1OOVYoGa4dwtv8ANEqyHeApPbmgAj3y5GVHylnkONp//VUssISNslcYzuz94t024qC3eIYRSQMccZHB6VeDQMuMlcL8zsQMKefunvSAht5ym1MtvMeyN0PK556dzWlaFLsorykKWQYjXOWQ8owP51jvCm4pE+GT5y4+8CecCpLa4e1fzFbaPlZzjgkjBNAztbcGGzuG3M8ZnlaVWYFSg5BU8Yz2rW0vV2Bt7Z0I06VfLWTZzCWG7BPX8cVzVtIlwbXbMjDcXMTgqY2Ve+Pb2q/pl7ISZVIVFmKbgN42sdoBB5x+FUhHWrPaHZFHKEnleAxSgBzzxtliQZyQM5zWrGtzLGVeIgIWGFIQ4PLMp9ulcNayi3uTIxbyBIVk/d5aU7vMXaR83B6V08ut2guLS1kke4e5nw0sO1ZIldNy7yvH0GKANWP5JHACx7WRW2KCqjqACvP0pvlylIhKuw+ZJFIwB+Y78qUX+fNShIY1VlcCAKNzEiNppHOFw/8Ae9BTy0scVzNJDm5mOBEjgYCDaNzk4BxyeKQEexkIKLjAIjT7gDKcEsR1zVQGOLebaYCUujSLK52soYbxGGHAHTpVkyeUuYdzyhd0RkDGL0LuP0FUbiJ5Wco0XnqhezSXiEMwIyfXuc5oAYt4xu4ySWieZsZbC/73H8jU9vcTfvlUkrJLtjkYKpC+4/rWF8j38jFpPKlUZHHlttAUhdvvW8kMu+F1ZEiKYYYz0HAK1Fh3BI8ecPnPzFcFgFKA5KqR61X1p5l0vUgkvl3MkGIcdVYsAqA+/StJITEvTICfLnHzN1JINUtRja5QQRAb3CqjMAdhxndt9qAK2nwRWVjZEbnnljWJdwPEkgy3mD1HIq0zOzFY/wCH5WZRkk4x8xPGKSzQpAIcjMbtHG277xx3J5z1NSOHjTbuJEkg5HGcrg8VUVZAyje3JS2vTv5ihkZip+6VXOBnjNcvoNs7paXasXeWR53ZlyG3DJUkdDn1q94x3Q6XFBHlRc3cayKnAKLlirt6VZ8PWxt7K1LPuLSfdI4Xd24olukFzbSOTLEgFBksFwWb0BzTmVSqMRt3EswzgBBz/wDrpJCo2rFuDBssR1wD3+tVb+5aC0kdAGlchQvztuRjhsY7+lPYRmWUr3OoX9zhmjEnlqzqTG0WAoNt357mul8m3/ut/wB/G/8AiqxtLt5TDEzzPu2FisoG6PJ+6RW3sk/uQ/mKzb1A+a0CknPPFCEBx0696QZU5x7fnSGtALa5LRk9s8DvVgEOGGdrBgBnHbmoEHA7HC4J5p0ed7DaOnQevrUIssWh23gZjs3qwzgYJPTOa6y25KMoXep3ZUfe4xxXJ4XJyCSSuCelbmjTeYoUvhoj5bDI2kfeGM96tCOjG1fs5MrE/OrF8D73J2r3xTNKSJXu1Rl2FyyncArZGN4VfyFKiRSRRsFO5Y3wTjIMgI7/AIVW00Bbi/WWdfOiESMsajITORyferJN1JxF5dwdxUMAuUHXqRiurgkt2iDx/Ip8tgoILs39855xXIiTkkBBlVZA3Cl84AUH2zmpLUT3d3dNLOYtPVYwsQJy21cursvr2waT7AdK1xaCd/Ld3mGVZoVBxjLFyPTsaybPUbu9n+zRQywLDK5a8kjLxzt3BHGT6c1r6bb6XDGGtVt8zK0rclWYKMcKx34HersdvEFIdZANwkBGRCz9cRp1xUajMwWMklvPJc3TuZGJixti2qhxsCepqSK2s5mh3x5ltpAI0y37vcuVZ8cZ9avhIZDCG5Eodi7jJYD7qBu2OtOitYvMLhyuFCgqfmfbxlmHX2qbsCl9lgI2FUl80FnMy712Z3H5W/SkjiihA8qF1jy6xBmVRFG6YGAvOO1aEgWLlhuaXaoWNSSB0G4jmkAjR4d4G+RjCAFJBKrkhT2wKaYFcW0cscY3O6KGilCuwDFsE88Zx2pXtQwPljo/UjPOOqn9KuPgD5ST5SGQFThG4JCsBUckwmVY0JjIWKSUNkPhwSAgHPaqEZz2kZyqAMdwkxyRvUYBcjrR9ldWgZmI2jdhWba27K/NntVqYv8ALEM+WFaSWUEZt4kBYkjOSW6CovOR2M371ISRFuZdzxsFBDMg9c4pgIrA+YS21Tkn5NwYoPmAAzx60piJQLggbOWj6h34woPIA71UEsytEY0IZpxCFhBERQ/ekk3Hhvapbl1i89RHKhTZCrEjMhJG1ztOfXnvQADBA3mSUbWiO7GSygg5PpSrtLSruLxwRj5xjfC2OBu9CKY3mxNI+Yvsk8vlgbiFVivLFj0pzLbkwGKQC28p5bloss25cbAueCD0zQA1WjlttrKI089UZFO1i275XdV9e3NRDz5PLiZVe6jiZ/kb93ArMRjAyM++aBOsNxMZCqgswGeEVTgor55J71Ek8puGhJ8qC4ct5Zwsu1BkxMx49W/TvTAfKvlosbRb3ELmJAS0nmKcbiDgY+pqt5sTJMWEar56i5MjD99IAPmIOPYKPX6VZC2LNaC2JKTicy7nkbaC24fIx6k9z6UySxBuI5UIEVuHPlsMkMDlWf8AvHOcCkATxLbN5ayyxeYiJE+fM+zsMsGAU/hTbeWFo9kIMZiErzKVw5AIV5CD8uSTkCppXUYnk8vzBFcKXO7AUoACU71Wt1jhV3Tfu2tbRCRXVTN/rCW+vHNMB8oNzbyxRlCDIqSscq65PGF9AOTUkdncmWaSGX5ykUZaRcKF3c8r7dKmT73lsGy4i3MAdsikcjPU46Uks9zFvlyFUOoKo37vCN0KnoSPepfkAtxGqbj5YBaRSXbuFGA7j0FJG9hImRGv2hSC2G27pMErkj1pJss4DushXIJQkKVbkR/XvTFR0iMilE++J32YaPA+8wHU9qfQCYNG4gjSMKyR5TJJaNZPkIVunJryTxhc21zrM8UCIsFggtC3lGN5JR9/djrg9DXrW5I0jnbmKXbGSBtZ3ClgFB+n614tql+2o6nqN44ZfMuWZlJBYIh2KCV47c0gKEcht9qsvAyVAwce/NWFDSbdgLHqSAT97qBnniq4jDtnOcg7c5OCTxg0vmtAzcuSFzxkDnjANAGjAsKr5DfMFBIYYDvnk7s0kluCUYrhTgRjgAN7+9QROJWVwRt2gAfxY9KtLOT8pUDGCNw3kA8HA9aQxtpJLbzHy3ZXy48zGXc9Ofat21vonZhCY/tAdIwJAyRBiQN5Vf0rFYQqN4R/N42bgQFDHHXrU1syhxwBIWy6E4LBT2PYUBY7SyeORxcSOUKzyKochRvLeWTt64P8JpZ47KEyOsLiVr9POlgAYhWPyl2PAJ9hWdb+dcRIoQq0iqJDjLRwg5Hzdq2EgiuPKVTtQyhiCCMuowGK+1O4joIZ11G0aOQLLG4EO1cKm9Pm852PzBl7YqVN6ljNI7SSMrc8ZA6eZ+VQ26RwxbEdWiDbYlRdhViASWH9481ZJUsJHPQHI6nAGOo70WAcpJUMUd1+d12PzLnj8qju7iSKNXjVhmNjyi7IkQZYux4Ax2qYsqRL5abgUAPOHVV6le+aztauktbEySqx37Y0Xli/mAjJJ46daAKWiSGVZGkYHLSssRi2bYmbcu0sMknr+NbKAeayYAOODySg6hcDiqVhDEltG4Y7pEyxxyCR1z71fRTH98DlkYgdwBwSevFZrUosDjcNy+YFLsrHKso4796x7y5eO9S2gCyzTbBJnIA3D5lUjn8q1GYNksqkLwzZOOeOnesWVHl1C0kVjHJh/Mk2ZYrkqDHn6c0+gjZjjVLcIOfKJG9/vKTyWAPpULStsPCyKNqrvPzEnnnHOMUyKVyqxyEu+Hf5SAHIPUntTmEbPIwbB2oCWwcL34+vFaCOS8TySX19ptlC8n3fOkAcbULnaoGfSuj063e1t7S3+VpFG+ZgxbLkAFyT3Ncpp1qb7xHdzHziwuZWkEhJCoo2BTj9K7N2aN2Cq2yJAGB4DAL2NRvIbCaaVWPG49SI15OOuSayLy7JurGGPDRxs0kygnO4A8sfyxWuWEUMheVCHUNmbCoi4+6NvOfasWBVnuL+SRS4jclSRtDBVxiPHH0Bptp7CN2GWJ1DFCpmVWzyAAoyNxqL7dcf3LX/AL6NNjtEukELO4t9sTDDENwQ3ljHOPatTyLL/ngv5VIHzU64B/pUR6JU7Zx1/SoD1x2zVgXNpOwg4x2zipgiKd2T93nHJ/GmrwM/7Ix60RsGVhkEhS3T7ueKhFFgYO3kYIUjjOadZkw3Ls2dmxt2OgPQEAcZFV4SzOE3HauMgjPFXFGSy8ZGTkcZUVSGdpa5kW2kGFLhEl2jcZOMjB7VS02MjVNXUI0u54/3uCYwob5oz7+9WrBzJaWTo6bUVVKD7xZByOKg0jzUutVkZ0aKch4drEltmQxI/QVoQb5cqm7bnblGU4JxnO4CjSt0cupAEmV5YAUb7qxkEKQPQ00K74G5gNwZjxk8fdz0NQWkjxavfJFHcGQ2AO75SnyP8q4HekwOrsHsIZZLh4oY7hl+zhurlGPXLdj6AVotvVxKHK7mG2F2xvhQbgu05+prlp1kaS2uIpQgKbtyqWKS47Adu1bMN5cyJaJcOqSnO0YzJPyBuwfTqeaANYFpTGE8t1BHmbRiRdwyCFPSpUk24jLRiQbF2qfuDkjr61QRDMICs8kkpaZkeXarLGjEY2Lj6CpUtiiTAugIKN8yhiHP8TY6t6elKwEzyE4ZXURsWEyKQWEw6xq3Xd04qrMyiNgd6xllLK5xs2tkGRjz82McVnzJBbJcv9pkjh+2m9vPLRJfKf7wZGJyB/e4zU9xaC4t7XMlvswZR+9MfmszZVSSeOOaLAWFkuLhVEKWoch/l87I8kjOH7g9qqJJcXEkjZhK2k7pIFmGJbdARvkZeQA2QKx9T05LmWBJG8qIu0jwW+5RqYiXCxyupBCj681Yt7ksLaNYDbw+WFEKqpiTYOjMvPJpga1sTHBAtwkbK2JEULtiWWNidvPOPXNVmuCkbyzyKdkjTSMcfu9jF94VecdAP/r0stzdbfMJ5DeXbov7vzQcIFy3HXocc1Rto2jmnuLmPzZrrDeWqHCvFykO0+h5z3J9qALJ1J/LjkiR2WaVpnjeICSGEjLeYDjGevr2qWOW2kzLDCAHd4YV5BlGwSb8e2cDNLBZO7vfEiOSYq9wjNklgMbcD5cDoauLIEhf91syJPKCYL88ZFIDPvFkjWQRjMcMRUxj5lxIM4Zm9O5/CktlxDHNvlRYggtSwGHjOF3Mh7DoPrSs0sjtbsSHUqTnGGGd4yTwfemP58zvBtBUyEod3+r+Q7cDvzQBLMkG5WaLdEqGeWNj80krnbtx3A6ionRJJIpSWK25e3iVACCGGckjn2NCxSeVHH5yu6guQeXkHQKsh9+tL5EvA8xldY1CxKcYwc8sfXuaYCGNoBbSSfK7yrtEa8BnJIBx2p6chpZfLaVNwc5b74bhFoAniQ79wDJ5kpkbeiHuABTSkxW3yVKmQSEORuVCPvJQA2Z4w0cqhvLj8x5Uj54VMk4NSwypKkMpV2jkXcisMAArvBIPel3okEqRAPJGnK425Zm5KknJ4pIWAO47mVzJku7bNqrym0elADc3BUyR5aOcpgsxDosYO4oDwD6U1vLlkcrkMwiJMuVIdhtChe5x+tS7g2GaMDP+rVMjlR9/B5x7U1ijlXMnKqHZEA+XnAO80ARSKI2jVYAd7EIQR+6UfefAOM9qdI9zIixxlUdnB2gb8qHx+8PYsOtN2zLPC4CCHftLlsyNCV3ZAHcmnyIDKWj3JJKoVznHyAk7B2780AR30nkQXMyspZLeaQIX+Rtgzh8ngds14lK0rzyuEjXznkkEcY2qoY5wo9K9G8V3S21pPYgj7TejzZx91IYY/lCj/e9K82GC5yW8vJK7TkLgc5pWAkjfegYueoQY456Y+lNKq+5MgIpKljnLP1qPa42NwFYE5HPA6VIZkKndt2jghcKSx45pAMBWJ3kQsADwpPJPTp71ZRw7TSK+0uwcqR9xlHOAetRlVYB9zZ4JAAIIxjANNZDG0bFNykA9eQT7ikBfidnVt0n7v5QSFJbOenNXoEiXz5CisC6KsoOSDjk4/lWRBJHMyIzmOQMxA7MR0XiteCaVPK3eVhVztAxsYfxHPWmO502mpFEs7gyF5pVD7ucsVxn6Vp6e7SzokJQOjh90g644wwH61l2UkXkhfkaQYK9VG5+/PetXSAPtKmTamzmVphhyB2CqagGdBHmZQqY+Vcu2Mcg4O0d6mUHGVACl9irjLbh1IqSGGLDOAPnBZmBI3bhwoJ5pqkxSgrhYRGqfMMlWGTuOOcntWghxDp5e2QqrBfMIY5JPzHHf61ga4fNuLSEOAPtsDxKcESuDtKc+oOetb8mTtRuQ/wApCjJ39d4P0rnbp5LzWre1NqVjs1N0jKRsy4KoGT16mplsBrRAwqsZCoCr/KzFmyWyApHpU0wxG5lf/WYDc8BcYXb7moyhj3h5MtsVQ2MjAG7A71KUM0aOyqn7sKADwq/Q96zv0GQxyZWSQeaFVdypj5WCjG7BqtpJW4ja/uceY7SFOChQ52cqeOara9Pe2unXn2ZkUy748yMSUjCZcoF7+gqx4cA/se1eRywZFkjaUZLREA7jn0pxXQDUyW+SVVAb5kKgBtv+3is/ULo20bkEPLtmVuBhnVDIpJHQAda0Asc5DK7JnaSxwXbByBk+tYt7LFeLPYooSCYMilG/eyhDscYHIHqa1uIyvB8czSXVzN80hUt5h3ZLSZYg5rdvbuK3UyyMztlViCZPz4zgjpj1rnDNfaE1lp9lckyXQZ386JpWVlyPkY/KCB1zU2n/AGq6jWe4Cu9zuUhmI34JyfT9Kx1j8Qxj3V5diSSSLy1dk+zBCSIOCSfdjV6ORp5Ciy7IpFRRGBtDFfpzk1DPlFIQEIhZS2QCMccA8YFX9GQrJM00QZUTKPy6AHkc+pqugjegESJGIxsGwE46gqO9Seaf+ekP60x2AG1CvmspIkwwGAM844+lV/tEno//AHy/+FVHYD57cjHcnoaruPmX8KssBgknJqs/8P1qmIvAfJ/wGoYC4Z8fdAAPTnmplyRjjIAwe1Rwg/vicbiduQOPWoRZZQEZcdOfYn2qwpDE5GARyT246CoFXMe1uuC2M85HNS27AS5aMjCb84yBngY7UdR9De8PyOJL2Lzh8y+YqerLwCv4da0rRTbXE8RLv5SKzZQKXEhLYA9qydNZILmKSXYFcGMt0OJD1BH4VsPGw1NvKdmLRxh/MHBCnPysO/PSr6kGvGJNkYAYCNm2A4yVYjJIHrVjT7aJbu7upNyzFfK3fwDf83C+pqCPD7mLKGjZyr8jauPut/Srdj5bi5ZQzoZwVVshF+QEEE9vSmwJLkxwWsoPm5W3lZERsMNnPGPWm2cRuIJjHKYrhI4YlfO52HBdwp6ZHBq6wTCu65cvjkfMT1FZDSB2uFjjcs7qY2BOWzlWAwenTigDUWcXk1wtskdu9rKsZ8x3YsinJIDHuKWM3rzyusj7SzeUu4qZmHyjeD2FV4vnnW3ldXiEBMzJ8mR0WLd/dHOa10hRSs7ohQIdiIDkpxtPPtTEZ0UE7TajJHxC+whD0ZlUq2cemDino8txHFLJKoCsIwuFI2huAN3OT04pYlk8y52yeXFnptADIfmAYn170qwr58Mpw5cFkKEeXHxglStMCyFKMCQI3crGDguqqp3DAbnpxTZFha4S5O1CscwdRhISWO0sxPGRSM7SSYLna0gVBvXIdedqA8n3pZ8TQOjKscZVkZH29dxBB7c9akZPJFEOcmTcqMQeQgA4KioogJQCJJQcEqF2jaB1UyEdT3pHZokCq7PKpUhyepK4wSoximQxlETftJ37mKMFRpupLKen+fWgBhnuoIJ0Jhh+6EaQtKm9v4XC8k9+KaJZ4VyryFliZolOPkbJbBXrjFTsCso2qGDIxd24VHA24GPWqrq0TRSRgs0bAHaN7MWbLDOcYHf6UCHt5jy26SIpE0JkO7OY2GG8zPTJ6U8B2l/cSAMAokY5KJx/qlHqQTzTmR0XdGGEbqV2nBY5Odwz6c1WijlKu8YMU4Y+Skh3RlAclkUcEt0HNMC9DayyvMLf5TGwcLlANh6qPftSSMWDLkbkc7wfmC7WAHJ60x5pYk/1floQCyrnzVQ4IB20zzXZWnUo0e1CCfmLIWxkgenagCaV5PMt1cskOWjK8EGQncu/HpjpUd0Lhk3Rg+ageOEBVZ0kcj5gTxxio5GRFSaNd/2dTKUaQ5IBOOPU9acY5WC78Am3WQgsRHG7MTjK/wAXPWkBHDGzvJEzmRm+VwUJQMy5Y7ux9O1ToIX+eOR3dlO3zFzHvjIBKuvHH61G7otwQoI+0PL5apuJYKg35PTjrSMkscflJhkYopUcYi4yFQdD1oGPk2DyjITuZfLR2O4qcnpt4yaX5lATCMbcNFIFzgswDAoG496hhBllljWUPCSZIUZABGqkIeep9BUzbt8Q2YXIVu5wB1yDQBCEJfLkOjIQgTgMy8KoPbnrU0ZEmGjVGZg5fliBLGffvmh41i2BQFTYSF65C5bkeveklZY1Plq5eRNqhei5Udx375oA4rxNB9su5Sefs6Jb3MSgpIZMbsjP8Nc1NZsyQyRxAq0DBkRcEBTtDOw4z6it+6urrUL67ig24gkjjeRWGST8vmFu4H86ieJkkZFSaKIMDIkuXcOvBZSvBLHqKgDk5kVCwVmIBwRxmRhwFx0AqF7aQlp2ZE8vGcIcZHHSuifTt0hdoZFK5NyrgRNuPRVPX3NUJraZljtiWeGNlOScGUHOMueMDtRe4GerB0KKAAMDaF4JY8mnyoojEY/1mTgc/MByBmm+RIkSzIpH71otjN85dfb0qNZ2dSspXzFPG7Ocd6YERhBKKzcgEkDgj0BNaVreCNYknXJXCgnkqfqaZH5T7vkVjgDOeTt9/SmvGsZG85JYNHkNgOewApDsddaSSeTGE27S4JZMMSh7r71v6XGkrwGDkvJPJPu+V0EKDau485JPSubsgsFrGkg2ptVF2tjO5gc5rpdFEQusxhi8kbuJNrBJVU7WBDd+gzUruDOoKzbYwN24/vGG7PlnGKfIJCxC43H52LHKtwV2gflS+YcNLtKgbVLMoByflx9KeiMr9MkjLsWAAHpjtWgiuv7mLgq7rnhSxCSjk/Metc9pfnXF1qOoTKbeSeUwssnKrGGyCpX8efetrVhBHpWpszYjME2WDFXUsCQy4rK8LeedItdz7ldVCl+f3Z6jJH4VnPsUtjXbAZCMHJGwrlsGraxbQmZFOAXG7hSx7YppSC2R/MdmCJkbfmynoNtUotRgnZ1jikIVoUdZgVKnbuB2n9aWltRFDUUtpr1ImvFhtY8NexFlGIlXI4PTcelUl1TULqW5ht40gggl+zwIRscQMBtdABjr61ieLLW4tdWkmjDGz1R4Z3Z8PmaIj92rD7q9K0ba3luJJYFaQRQsssbSuwhYkZeEkfMdvbPrTBmpl94sIRMLpzFNczEFoHC4yd2cbie1WYo4ftBddgO4gyYbcHHBRif4c8mpWEjLAFSKMptcGJeZGPQKBxx71GxSOO5uWeJIcSySl8g7V5O70x2rTyEcq8k+peI2IBeGyY2kkwLJsBX5sA+p6cV0bqqiQwxKIo0ATjCjHXmsfQWW4uNW1Lq07BlDrgBQPlIx1Fa8xlYKyg4jDZ28IHbqoB69axveQzOBDPcSIhYquDuIC7W5baD1NdFpYiitooV3ko7M5kBUNuHy89OK56JRIqPG2QX2p/dVt20quec9s11NvZiKBoXkfNztDAMzAEYDFCe1MQSONwQMANu4jkkZP3hUe0f89bj/AL7qO4+VnCgbQjKSOoC/w/Ss/wC16v8A8+n/AI8tXsB4kQeR1qFx09BU7+g/M1A+Oev41TEXVGU64+Xr+FRwA/vFJJ5U8980+MgxA84KkflTLf77DPp/9apRbLMZBdQSMru3Z79qtRhVLk5IAJ4P3QORVM4EkbdOSTn1qxCWJGAfM4Zl6qc8YoY0aEIE+zkkB9+FHY5wCfWtnTric3F5Fv3R2/lNkf6xSRhtjHPHasHTgS11G7FQjgjHUZ+UkewpsV/NZaiZoiVAlCSkrgNFuwQ/r60dRHeQBwu5wnykndnP3hkhk71oWAAiuY1DuqyRsd/+2ucAntVSMwMyo25Ucq+SPmkJG4Ee1XLW4E6zRpgp5hVmGcqUGeP61bJJ7s3Gy48kqWVQ6cgMG6bdx9aph4o5INmEudibBGrM+9zt4B/U1flb7qbCwxvOQGHHoPWs8kG5819qywxmGAEHcUkOXOV9OMe9Ai5BbxlrnemGdGRF3EsbfO1jx3Y5NXsvGRFEzGLyljORkoFHAz6CqKiYRXBdlWRsNCFO0sSB+7Z/U8mpxPF/pUMTL50SxtOGyFWJ+SgzxkVQh7t5aB/LaSUlbeM4BVpcHDEjgVHD/o8DeaI9qMxVsbVbfy2ecjnIFP2xhYjE4RY5AHZmOcnogA4ye5qJ7cTLJvYAmUXEGxiDtUBdrL/IfjQBMdn7sMjtIw2rKmBJGrDgBwMAVGI1m863cNKJZMxIxLeV5ahsO2evep4fkuDtODtLMvO3JABbI4H41CPPgeWQSqsA804iADlm43OTzxSGPdpiZsJG7AiWNBIFRcAD5iO/elMUE3yJsAUJtyG2hhyCcnnnk/SmjDxbn2kgq21QN21j1b2/WncKFGQVWUMhYDbtHykpjn0FADQjo0HlT5jKyhWj+eJCvLF26cmlDSqWnVkBcAS7hhdoOQUA4HfNRFFBEUCkxhk8woAUiZ+QoA457/WpGidk5wrFVG0nBULwWH8hQAhJhkWAs7S3MbXClQdgiHGwHsaj86UCO3eMlkdFxENxbIzlmPAxVuRkUqw2uq/KAr8lsg8+npVS3i3Y8oyRxqZC0C8ZlI5DM3PFAD9peK5QBUjkmklQbndjKeA0hPPSnxqN5ZHbzFUYRVCqIcZCYPGO9InzHy0k8tklzMQM/Kw3bAT3NLLHtbzHf940TLgYRsFsA46cdqAI5QqhyTvxHuaORvvq3BbK9SelLbyCbzTKhZWUFUlLKEH3S2OmKkfzUPyrIZg3MsgXYq4GGPb2Wl2o7zEvujcwsfmJcMvyheOAAc59aAFUthBuIVmO1Sq7tgUnLMPXFM8xdgZuB5e6UkfPFux95RyKVUG5rcBvNVBIrFT5RGcnJ/CpJFbczsQPMVWbCr8zIcjfj0FIYibNxCRhUCNgrycDkgkdBSRkmItDtLgkA7GClge6nmmyyy+a37tVDIBG7EBEbjCvj+dIPMXzY1Co2d3LMd0mAS5PcelAExXMisVYn5v3h4BG35gV6iqd27bJWjxGIYiHeY4BkkBAC9qs+dIEUsvmSZwc8Lgfez6ZrOv/ALO8UgupkXzt0cAkYeVHIuZFdoz17ZpMDmY4VQxBozHceaqtIFUq2/8AhIHBXvntT5mRI5LhZ2aUSrFJuO8NMzYJAxjOOQK0XQag0dugSe6SBYpnf5Y9pALTKy9PoKqPDHYTS2pbEUELOsyLnDNkgMW6kDvWd7D3K5knuZAXOGXICNgb0C87nPc1TuYob1ERFy0UZldYhiKMfdUOW/8AHa19LguZortnEZ8l/wDRpwvyzRjJ2ktzk560+BdzuZBJu2eU9uEAYwryqk4AwDkg0AcrLa3DyW6qALoxmVNwCRxBAAQyjnmsWWCOUXe6QfaUkX7qEK2TyRnHvXbIhlleTDyy4aJI1VVAdzgvIT1A424rPvtMAiCwAi5upEiKsqknacEOT0571UZaAcnFugJJbKPIcOclAVHIJrYt4onWPcTIWZZiSRtQjjGP5UT6RNb3MNk7LtmL78HcICDtPXt3NVo45dPuZ7eTARDsJU5HHcD9aUtRxep0lpEJJPL3kQ8DBOdrD5gVFdX4Zt2lkmncTqzpHGTL9zysn5Y1964/SpljledizuARAygcEjAZlrvPC/2pNLlSfzDJ58oVnwXOcMW46ZzWcRyN4ukZICg8hc9eBwAc8VGermRSN2VKjneOueKjnkWON2Gc42syjcB2JCjn6mqd5exBCLSQSy7lAaMjA3DG6Pdwa2IDUbmGK0lWXyvse9bQhs7y0w2hVx6Vn2l3DDDHGEPk2we0iXKrtYDaqsB/niqps7a4XVI7l5buCSXMce4gQzqAS8fuOvFLDBPaQX9vHGbi3CR5j4yJHyx7bg2KncC5Y3F5IiyO8YLFgzqpRZVjBA+92qxbRgLdzYjCuRNuyWl8zOGUjqRjoarWtnLJDp+9hG6JJ5S4BKRnO7cOnzVqqnlx5G53faiuAoOV44+nanyoDK1eyNzYKsWGEdyl6rTtjOwhjx7CrUEcKRQxQxgnyy0475c5Zsnsaku41lihtmyI94BCAMXAOWUt/tU0K7EcvEqOFjRQCMIeuRziqSAYh2ISQCXdljDAjZ82Cw9hWV4mf7Hok7QuolluIo0BAOVL5YHJ5961WaE75FchtxyfvMQx+6Ae/XtXK+I2mnu9It0IYDzSkMiHhyQC578DgetEnZXA0tJga30+0jRRtMe5XY42k84x6elXJyCoXczmNi2R8pyBwAO341NGI4YzG/3ViiJkcbRkDbt61TnmEbHy/MRsrG25AFO7ktnvntWMEBLpcRmuEcjcsYPy5UBXHb0rpG+XeyliGHDEgEHGPl9qwdPjjRba6Z5FVPNCwKo3ybuCSp9O1bSGSUKdmISqlCSS7cZ+b6UbyHoVkhzIzA8DAfJ3LwM8n+dX/MH96H/vmoVTZhQAysTvGeAAuc4rO/tW3/5+x/36FbqPMI8GIPI5zj8KiZeOmce/+NTtx14FREEngHGO9AD7V+JIieoJXP8AKliwGPqCM4qtlkbIPIzj/wDVUkDkynjlh+vWkO5dlAPXnAz75qxagHqTuBOTnBAxnJAqucEjnopOO9S2jrFcxGQrtJ+Y9xngZHpRuBq2sCmRn5xxjHcnnr71l3jD7RMRknec5IIHtiugiCjzuclMtHnojt0xisC5y0kxO0ku5IwCfxqE9SmrHY+Gb77Tp6wOxkuLXesjSsNwXO5QO4AHFdLYNve4wuECI0YDA4LAklh71w/hhkjt5ZogBIs5SXzc7XAHUn09q6rQstHdSzIMyyLKv3lLBiQOD0ArR6kG0RkKsgCheo3feXOSciszVGijiWU7Q29Wt+TvlcEFY0UdjxmtObcbe4liVDJHhv3h4JHDAVUmkjia1Kxq7uH+Vhu2qF+8mf4j2oTuItJBqCmJnYBjsaUIASpK/MoyOOOKVVDO8cluv2RkEhIfO542yOR2/nRp8zFQokD7nfDltzgJ1V938Q5FWCzMhlIZFyY1YrjIHUA9PpVCKMqMSuCsbBXZhtIRsfd3E8Drz/8AWq1FsSNXdmB+UEKpIAGAMnGSB61Grq5MRJCgqW3jh9+Soz79ae0j3O5lwIlARztbzN46dOKNQGL5WbmZZCUeQlgxIVgMKhUD+HqalYpHE7y7iZPkRmXcOWyq4XnrUTs7bWVkEcb7ZVYFtykhty46mpRKqSojKMSs0i8kowzgAk9z2pARMyJ8z5wcKPKx8zuMZB6mrESqSfljV0cBSy8BpMKVRT6YzUcrAK/loEUHczqOGZT91PpzSm3hklkSJ5mBYENI2AgIGenf60DJA3kI1spO2Z2klRVGxnHAJYc46VEsp37X2xyMojbLKzMc5PTPT0p7h5CSFUCIECRchlOcbc9+OtLsWVg6KwKbY0JUKUXbuyjHikA1SAUWIARLLKCjrtOQct9fbFLErBslmTaQrK43Ak5YsMdT+OKfhMthR5vljJ27jEq4DEHI5bHWnRgSrazyAqnkFztbOIiCAspPpwaAIwVw0iIdzuJkic7myBgNxz160wCQ3BjZwrRxxbuVYYcnJU+p/pUyOuzzFVtx+8ueWZz13DoMc9aTdBBMSCvmTu+1AM7cAEnNAAY4xhmYsNyvsLFiHGQu8euORSxPl3UKEDozPJgbCoOzaFPeh2m3zLErkMVY7WHyqvGFx60x45JEDkId2Ad5JARuDtxzQAqujyJIhc53queRtAxz/SnJwEGSGChiuMhiRkDFRyfY1TyWkhjzncV5UqMfLkc+lZt5qUMcV1JAwEhaMiQqWEaggEqM9CO1AzUMYYLEOnzly3UA4ORu7elVJbj7PGsnlM8e7bEkXLkAbF3M3TNchrep621s4s7vy5hJBNPEjByYuQscaAFtucEjPel029vbiGKPVWljuVmEyPk7ZA52qVKHt0xQBvz6wBLO5SeP7PAJArY+dWBGVI49gPauA1bXL3UbyMyBtixbYV5wM9zn+I967C5ghYohjcvPkBZpBlPMJOAnPXGAKoz6VaahDPYpZjz7WRftMxY7rfcu9SrD24xUSbasNOxd0KJvssLMYYpYFYJMsu7a0o4Ei5/xpZrWeWzuBLdvIrX0Ye6RAF8gn7uF4JGMED1rnLWw1OzljMJmvbBkSWGaFcsRuwUbJ6rXTq801xYSCOUaeEkE9uy4AkGBu2p3JxWcOzLlbdELSx232SwlPzIN9shbBmEuTGEiHIApYp0njNzOJIIHufI3nlVI/gcj5sNjGKmurDzobRSJvtcDyXNtNIYwEQsyvH5jHd8nUetZn+kw2slsqyTtBK0006sIlyhHLsR+NU+wkaXkiGfypYtk53+UpHKBhuLOq/KDjgVCIHPmzLNh2dbeRokEjRxlj90dCcdfY1bla7Fjb3FksWSTcbCAwlDfeKMTkn2zUzoqJZOjBUMO6/VFIMeQQHQAcc8ZpWFe5hxWvkrG1zL59xI11bRsilsyEbVyD2HvVLV7RrV1NzCViuFiwwj3O84UJ5kpA4B5rrrfTgssJRv9YEknyciR2UiJSOo9a0V0+3uV2XwaV4JIpE8zLDavILueCM54qri2OJstDure5s9r74JVLxvMSgDDBKkj9K7l9Z0+wtcLDMzxxqGCYGATjezc4qw1nHbfb5nMklusHzxFVc5wcrEOuGzXGXKpd63LbmALDpq2sl1Ijt/pBA3pAY4+MjIz9KSjy6j5r7m1LeTX115kD4iiVU/0ckp5TKSUkPUmlt7FIEXzzmOGLJEnyyFmO7IPWpIFZFdxA+XdCvljahZ+gcdcDsTVpk3tvBiaRMsed2CDgbiaTTYaE6JER5rKvEasiR/KYyOpbPGT3rI02eW5v78mXdbxyv5MjDEjFsZDgYB29Aa0dQa3a3uN7f6yIJJgmPyxwGOV9aZYQfZYIzNDCkzAq2FbAVvu7888jFXFWJLsQdgQVUh2Cktncc8gjHanMYzJECrEkfMFb5I1HVsUuSqHZuUPtAfPKnOCBu7UroN0judpGMsF5KAYwRVAU5G/0i5iD7YFijcKi8tkksI27nin+ayrEcKeAHAIChCMgk+nrVS3kt55r53YrP5hiUFi8duoGxSpx1x196mby+ZI8SLI6w5AwI1ReWC98elACCRZ544UQLGYWIkf7zOzcMg/uiuUt/O1HxLqV2Y2hSxQ2gWQ7t/k5G9SOhPWulFx9ls550R50hjc71G5pCgz6+vSuZ8P28wlur2eWSOa+898HH3j85yTwO1RU+EaN47WjZtr/ONwy2TvwMnBFQrFdXswWQIoUgFssSq54Ve2fWrdmBdh5lyFRyjbgw3uBwVB7ZrTgiI+TgEtv+QY5A5PPaoS0BkUNnHFIHyWVUMfTLO/97mtAEoqpsxjG36Dk5oAKsQRnC7uO9I5UqM5PGcv1UHue1aRQinq0rQ6ffOrDzGiMcJJ2hZH+UZIrkvsOr/3bb/vmtTXD9r1Hw3ZbJWBma6KxtgEIOGI6FfWuq8kf3If++aU207ID51Khfqe5pj9Pr6elWGIX3qF+hx1Pv0rQRTcLn1yemKaG2MrKfmUg/X2qRgOf1qJsDoPpUjNIsp2MBww9elJIv7mXAGBg+vyj0NRxfPHF3Ue/wClTMCYbgYPQ4HHAph0Oi01k+zW7sR5joAcg4ZlHy5rIulXzZ1+YLu44x1PqO1XLB3RUI7Jt5Ge3XFVbxhC8gCyNvG5XH8TEcKB3zUsp9zT0aTZp+/LZhuXJCfNuJ/h9K6/RZzcefHJKkjYjdAD+8VGQEq4HTB6Vx2ggxL5FwgRpAfMA+8d53Amuh0xbeyud6osCzttmGOW4+UFux7mtNiTqZA3kyhySY9xBHbjGCB1rMlXMhSQSARtbEkp94uuVI757e1aB3/vVJ37yNu77o4yGeo9ommmRsGbyFAmYsoZ0BwqoRjjNIQtuwg8lDDIzN5rxNENyOpGCWA43VI3mMk6EttZydrguUaMZQqo4JJ60sCyiOYROdyR7wxG3MYXHyL0+tWlRESBsEkojgHna57EGqEVJI5mQK5KyoVdGQq3GMbmU8Z68DpTijRqBn96oJWTJGSDjL9vrVt0Lq2XMflL5oYICc/xEd8UyVSYwy8qFRgJMBcPz5jY549KBkRUxq7bWV/KAGR8oC8D5elKsYc2xkaXzAAWKIBG8mMbc9iPSntcIHUKnmMIXZs7mTyic7Svqe1IhkZQy7yrhso42vEp6AqP1pAPDRiMGSMbXldpAxA2qODuz/L3pEQldiZEflOXG35ZFJzkd93YCpYwGH3DjcY0YjIywA+Qe1RAqjM77o0iVyzSH5mToWwO560APRgERlYo7qsSLwNqY4HJ696Iy5iETymQFtpkbBMgb+BMdPyqEqxkU/IymQTYbIbJUBcZ744xTZZLW1NxLJhWcgFExvkdsbSoHcd6QyRvOAVUUiN3dpQfvogzxg/oKjJIihSMPJ5hbjAUbBnKuCeR6/SqNzqzAeVaMJJ5eGwDujxx1/qapXOrXwPl6fEhugR5jsA8aqPkMbs/fPOKANqPy4Yo4m3YKsrPIwRN47jHb0FZ8urwK6NBbvO+fKVU/jK8sFx2A5JrBSHWXuLea8nkdZBi8hZspLLJ8i7McAYyameydXkhRHt5YhJNGokLOLdBuZhswozjvSugNG91o2LrcbvKib5Cwb5GPYsAM49KqG6uppfs4+0ySyHzhk7LcCVe7dh6CrPlaPdaWHd5ZJ1jhViQNs0iZIjfd+Zx0pbeGJbaCSDzJ0klZ7tWYpFwOYyX5CDtRzAVoSDHc+askWJooIRMxDpIDggr0wevrxVoWyOjgxKo3eYfuuLhwMBlz6dgaF2yRQCWPev2pnWMjdtycRylgc8d6kG3fJ5eGJywUsT5pUYYAdAKAK0cCM1vqMUaLn7TEZBGA6yAhcSIM55zmqt9ZGOyt1hlEdyZvOuZGQeTFCvVgPvccEVqK85RV37YSJCqsoRI8HJ5PT3NQLKhkB+RlljdxHIMIdnyl2zyd1KwFLT5lmgt7mLbNOilTCGKytPGxG+TfztUHJPvU1wLuWCWN3QQyBpJWtVAkuUjUOySbeRnoD1xVC7069gi8ywJWVZJLqOGYlROjMGeN2Byc+npV6xntlge7uW8nzwoeFQqxpuBB2+3qfb2oAnjlt4EiRiIPtDBLeKEszIB8oLKowB6+9XVFxFFJsk2t5jlGGDggYKbQcenfvWfaGF7h2aBfKsJUtopHWUzToT2KjaVGck961AC/wBqyMRi7ygmCjaQMfvGX1xxQgIFe5S7jWVIne0SNkmuG2hxKNwjVF4yKlTTYrqG+tZyv2e5kea5aTdEihlyUP5+1HlkeRLkujjdAFwQfLDYBOck549sVpWFzA2FLeYsjBZF2gRiTADcHJPXj6U/QDl7WHUbWOxspLhGgtLieK33Bf3cTE+WGA+Yn0PtWrDcm6jJT7QGCyREShT5kkYI2ll7N1U03xNp99fnRJ4v3Dw3yxtCp2O0RPlsZNuATjkelbsEFnDIiRxYCyMucZIcJtGfY/SluBQ06BDFbyStNElr8zndnz3A2qshPzZ54rZf99KUkJUJGhVFJ24YYIb1NQJHC0bR7laUuZCqnClgeF9KsBmAl8sK5ABwGBbdjgbvQdqYFbV70aXpmqalJhvscJkQLkB3I2Bc+hOM157ogmuYYLpnIub6WWWcRZSMyEl/3g6nsM10fjl5x4bumScKJLi2jZTjLI7bWTnjnvVDRLQAWsSkcL5oVRkLt5A3N2HUVMuiA6K2hO0qSwDjCDJ2IdvzBieeKXdHGu8KcOGwFRQMjjIB7elCPIIdu4AByW3AsDznJNSFZ9jsNuGUMSUAwxGMj2pAZmpreXSaZDD5Src3sRudvz5tx87Zb1OK2JBvniVw+2JUkLE5G/7qhh1zWTDJ597eRKBLHbrHHLggJuX5gqg/xCte2VUkkl+YtcEOASWJVEC4IPH0qkBMRxKZFKqRgLjoSd2c1BdXQijPPyIsZ3gZJLHnaOp9KfJKGRY2KllOMHgKfc+tVpY4pLUsHCLI6bTk78k84z0pgQxbBFC8NvEFkaRk2fKZTIT8xDc9eTTZWZYggCqc73QNyQ2QQWHY461XuprnzII7W1dGiSaZ5XIOY4hjAx0Y9qk0wTXFv56KqrckOksgDuRn/lmDwAORikwIRFcu8UcaosXlxxm3UkQA53FwfUnuamtdPiy0sse8+ezrGowvyjaEGen171pqqQLtPzbx8oYDn5sZ460OeTt3s0eR5SEbjk8k9vejyASKFUSTkYY4ATt7fX1qeBlTYD97ZjnnAHGAagDvzH1KnfkYx+Y71OxaMKq4zIMrkZwcdzUgPEmXlGDhSBnIPbtUbkE4wWOWPbAOPWl5RUY/NkAHpksepqpJPsT5R5k7k+XCvDYU5Yyt0A9KpAVdOti+q6zeyOXCNFBAWyfKTaCdoPrWzvh/5+R+Yrj5o75rqwsre+MMYd7m/SM/NKTlgXfrt7Yrd8h/79v/AOPVCi22x6Hh0gDdAB6cVC5OQTjHtViYFWZeuGZfTOKgPG768VqSV5Dz0GDUD4x+NWWA5qs461Iy1B/q1+bpnA9zVrI8ibbyVUcnnFVLZmCYHTJPT0qxx5EnHXOeetMZt2SlY0JGcpyevJHapnhMt9p67flVml7gAovANVrLcY7fDEcA/ge1XYw327duPyxuoHbBI7U0gH3NpMJ1uYVCuXRnDcjaCCwH9K0kk3rO8eGjg3Rxh85MhPRM9etTLGhWINkmQs3J4XaM4AqO02NHcSsoLW0oKZ6cgdqXUR0VrdM8DCQbiqRpIo5CggLuc9easrHLIlypniJhfchGT5O35iGP0rM0/JluQT/rU8k7eMDBbOPWrdwdt1bW+BsIQNjI3DZkhh3zVATW8kQB81/3hJYJg9M7lDD35NSRvPelXIxCSyn5hkFOVbA9+KYwVLmOHap3wo4bGNvz7DtA9vemQyvIx2YjVJJIcAZJIJYtn3+lMkvxkt8jMSVGEPXKgYySOuOlRBCfmTLLnG3qsTA9/wClJuOE2AIypHKpXoCzHIxSLK7wybuj7wdvynIYjORQBMsbrKXZsySlVwxwCqjOAO2KY01vCS24lUBlYBMkqW2nNZovLmZYpQVQmGZcYDAAHHGeaqz+dHE7LNJvnMSOxPdmXnA7DsKBm9LdxQyRk4JIIQ5GCcbzg+g71RutVSCCNp0GZJRGFjXeWZuFTn61BHHEzszrulhCxeZk5O8ksQp4GadNpULeWnmMPMm8wtjLB+oIye1SBmpfeIYZWF/JFFa4cWnlBQ8RLY8uXIP50+Zo7qOC1t4x9pkkCyXUk5P7tcZcbuh5Bq1eWkQSe0H3ZrZFkkb5pTvwCQxPFZGnWyWGp3tihEn2VQ7TTLukmEqbsHnAxSGa6RxJ5UCP/pKsPOuAuFl2nnYG5J/vUw27S3MIjAFvE4fcH+YtzuxH9eualRxLIpwVEZZPvEs2F3HLH17/AEpblMG2jXCmaFpSwH3U3Dcg75PrmgCTMReYbWaRw5Q5CoAnBwTwKhnjWKK7lJPnyQr5m4ceXGMAkntz+NJ5e8XGXffMXjyxJVVZtuAvoPrVxFXz3DqHFo4zu/5ahEzhqTQGZpiwzQPY3FqUdJPOg3EovkjDblPb1X61buzDst458Zd2DABuBySH29M1eAju1sZXjQJcw/aPL5IUo/yqW6kCnXSedHNKcKzl5H2jAKgbdmPTvQBhzb8OI5zGgjCWrx8eYwGdo9OnNWrfYtvbyDKOAPtPmIVkyFyUAPvyaq2cxnsradkUNKxjRcfJCQCpZF6c9acrZSe6IBe3aaHDZYSbVC7mz354pgT5TzSzq5EjEKHyQdw+YH+H07UrKIXjRog7BX2MB8yhQSPbjtVnyskozFmkjBVmH3GC4BwOKakKja4J/cxd+S+4lSS3XPFAFaZP3T+W7q8y/u5iN2XHIz6CqI0u1vLWzlmaZLmCSUmSMoY5Vb53jCHjqMn0raaL57iVJHVbNCvl5ysmQCM/TNW1s4oDZvw5eIP8y/dc5BMeDgZ78UAVo5fLWMQq4tvLkkeIHfKpZcEbj0XHJqvpzJsllnLQxfao4buUZMU+59yeWD8w6jn2pNQeDbar5AC3N88bBHdcHIGcqfzBq5CEZDK0cZVHCLGFwPMQj96TnrxSAsfZbC31C58kruW3MEMKKceUCXkEYx97nk571csLO2ihthDGgSD5UZu/zH92COwPWnhUWS2l2g3F0xDSEDAUqXxs6dsHmprNfMkZTgCMswAHy7ieuKNgIr9vMitY02F3dBGz5+aQEngdexqOCNkBmdN0sxbzZM8JjgCMdfrSXkQnWzyzKfOlYlT1EZzt/HNSRj7+zClS0SkgtgEdcE9aAFSOQM6klRG0TAbVKyBucc85/Gpl2srIS3XfkAJuVTwOOahmTZ5pDN8uzeAcB24AY/SpGi/dTjeQVlWQsvBbaAcewNMDk/F1zaRtodtcWvnJcXrldxHl/aABsWRf7p5q5pcDR78qm6SbcoBB2g8hRjtWdr7OPEuiRu2+DyDsiYDaksrHEoPqO1aNg5M0seBmPzQjY+6FXPAFS9wNA5eRECsFyxZl5454A9BU7ukEavkiNcsWAJ3KOoJPFEYVVGAcuqucseC2M1R1lmt9Ov5GxKscTsUfhWwMqPwpAVNGZQl3MyEtNeyXDBDvEZnOFGOvHfNa2GKl0m3OpBOFChepwcdvWs3Qw0+k2FzKQZZY1NwVG0TbGwuQDWVb32qXOvXdm9yot7Lz3jRYVAKyKCVO0j6ZqlsBtz3KeZGEgZ5QFM2Hx/DlcOfelgFxcMrzAIZNyCAEEInc4PJJHIqazh+zRg7vMeeISB3UZRTyqYHBx0zU0aAr5+fmZ8DIztxwdp96oB1zFCmn3NvCZFzCyq5PzDoMsfQ9PxqKyhW2tre3xtSNS4JHEm7nn6Uy7nY30NjgBJoJrmZgTlxEwIjx6VbjwZo0IyjxCTbngEccVPUASPy0f5+drncxHy55yM/pVduGUYCAsgwp5kwODkc/WpZk8vzxkEBSxBHUJ0BpqKM7zyAisoHBXcASAaYEsZPzEsBhsBBwM+hqGW9tIfKN1KkatIIw5PGScVMEJUNnGAD0+tZGqWVtdqYZ1DoIwY+xjfP3lPrUgaCXazhZIl8q2DPhjkyS/wAKkDsKhjiRN4QbWLFn4O55DxuOecVYitliSLax5URnI6gL161R1YvBZXMgbLMqwqSMFd527sj0qkBFpUb3Fzqt6FBUyrbwFgAdqcOfoT0rc2H0/QVV0+3SOzsYwxwsY5HGSO5qwZwCRsPBI+8e34Ut9QP/2Q==;" vertex="1" parent="1">
          <mxGeometry x="754" y="255" width="43.38" height="27.64" as="geometry" />
        </mxCell>
        <mxCell id="qNlBSglNtdx8bkVUjUxn-12" value="&lt;div&gt;Ladrillo ecologico&lt;/div&gt;" style="text;html=1;strokeColor=none;fillColor=none;align=center;verticalAlign=middle;whiteSpace=wrap;rounded=0;" vertex="1" parent="1">
          <mxGeometry x="674" y="200" width="80" height="20" as="geometry" />
        </mxCell>
        <mxCell id="qNlBSglNtdx8bkVUjUxn-13" value="Papel reciclable" style="text;html=1;strokeColor=none;fillColor=none;align=center;verticalAlign=middle;whiteSpace=wrap;rounded=0;" vertex="1" parent="1">
          <mxGeometry x="449" y="200" width="80" height="20" as="geometry" />
        </mxCell>
        <mxCell id="qNlBSglNtdx8bkVUjUxn-14" value="Bombillo LED" style="text;html=1;strokeColor=none;fillColor=none;align=center;verticalAlign=middle;whiteSpace=wrap;rounded=0;" vertex="1" parent="1">
          <mxGeometry x="270" y="190" width="80" height="20" as="geometry" />
        </mxCell>
        <mxCell id="qNlBSglNtdx8bkVUjUxn-15" value="" style="shape=image;verticalLabelPosition=bottom;labelBackgroundColor=#ffffff;verticalAlign=top;aspect=fixed;imageAspect=0;image=data:image/jpeg,/9j/4AAQSkZJRgABAQEAAAAAAAD/4QBCRXhpZgAATU0AKgAAAAgAAYdpAAQAAAABAAAAGgAAAAAAAkAAAAMAAAABAAAAAEABAAEAAAABAAAAAAAAAAAAAP/bAEMACwkJBwkJBwkJCQkLCQkJCQkJCwkLCwwLCwsMDRAMEQ4NDgwSGRIlGh0lHRkfHCkpFiU3NTYaKjI+LSkwGTshE//bAEMBBwgICwkLFQsLFSwdGR0sLCwsLCwsLCwsLCwsLCwsLCwsLCwsLCwsLCwsLCwsLCwsLCwsLCwsLCwsLCwsLCwsLP/AABEIAdoB2gMBIgACEQEDEQH/xAAfAAABBQEBAQEBAQAAAAAAAAAAAQIDBAUGBwgJCgv/xAC1EAACAQMDAgQDBQUEBAAAAX0BAgMABBEFEiExQQYTUWEHInEUMoGRoQgjQrHBFVLR8CQzYnKCCQoWFxgZGiUmJygpKjQ1Njc4OTpDREVGR0hJSlNUVVZXWFlaY2RlZmdoaWpzdHV2d3h5eoOEhYaHiImKkpOUlZaXmJmaoqOkpaanqKmqsrO0tba3uLm6wsPExcbHyMnK0tPU1dbX2Nna4eLj5OXm5+jp6vHy8/T19vf4+fr/xAAfAQADAQEBAQEBAQEBAAAAAAAAAQIDBAUGBwgJCgv/xAC1EQACAQIEBAMEBwUEBAABAncAAQIDEQQFITEGEkFRB2FxEyIygQgUQpGhscEJIzNS8BVictEKFiQ04SXxFxgZGiYnKCkqNTY3ODk6Q0RFRkdISUpTVFVWV1hZWmNkZWZnaGlqc3R1dnd4eXqCg4SFhoeIiYqSk5SVlpeYmZqio6Slpqeoqaqys7S1tre4ubrCw8TFxsfIycrS09TV1tfY2dri4+Tl5ufo6ery8/T19vf4+fr/2gAMAwEAAhEDEQA/APXKKKKACiiigAooooAKKKKACiiigAooooAKKKKACiiigAooooAKKKKACiiigAooooAKKKKACiiigAooooAKKKKACiiigAooooAKKKKACiiigAooooAKKKKACiiigAooooAKKKKACiiigAooooAKKKKACiiigAooooAKKKKACiiigAooooAKKKKACiiigAooooAKKKKACiiigAooooAKKKKACiikLKvUgfWgBaKiMw/hBP14FMLyHvge1AFjIHU0wyxj+Ifhz/KoMevP1pMUAT+dH/tflSeev91vyFRUUAS+en91vypfOj75H4VDijFAFgSRnow/OnVTIHegbl+6SPoePyoAuUVXWaQfeAb3HBqVJEfoefQ8GgB9FFFABRRRQAUUUUAFFFFABRRRQAUUUUAFFFFABRRRQAUUUUAFFFFABRRRQAUUUUAFFFFABRRRQAUUUUAFFFFABRRRQAUUUUAFFFFABRRRQAUUUUAFFFFABSMyqMk4FMeULwOW/QfWofmY5bn+n0oAe0rHO0YHqev4CmYJOTkn3pcUtACAUuBRRQAYFJgUE0lABRRRQAUUUUAFFGaTNABSEClooAckrrw3zD9RU6urDINVaQFlOVOD/P60AXaKijmD/K3DfofpUtABRRRQAUUUUAFFFFABRRRQAUUUUAFFFFABRRRQAUUUUAFFFFABRRRQAUUUUAFFFFABRRRQAUUUUAFFFFABRRRQAUUUUAFFFFABRRRQAVDJLklU/Ej+QpJZCSUU/wC8f6CmhQKYCKvenUUUgCiiigAoIzRS0ANIpKdRQA2iiigAoopDQAUUUUAFJRRQAUGkzRQAhFTRTZwj9ex9fY1DTTQBoUVXhmzhHPPY+vtVigAooooAKKKKACiiigAooooAKKKKACiiigAooooAKKKKACiiigAooooAKKKKACiiigAooooAKKKKACiiigAooooAKKKKACopX2jav3j+g9akZgqlj2qryxJPU0AKo/KnUCigAooooAKUKTSgZqRRigBuyjZT6CQKAITxSU5iCTimE0AJRRSUAFFFFABRSUUAFFFJQAHFJS0lAwpDQaM8UCG1chl8xcH7y9ff3qpQrFGDDt1HqPSgDQopFYMAw6EZFLQAUUUUAFFFFABRRRQAUUUUAFFFFABRRRQAUUUUAFFFFABRRRQAUUUUAFFFFABRRRQAUUUUAFFFFABRRRQAUUUjHapPoKAIZWywUdF6/WmgU0ZPJ69TTuxoAWjrSZNJ+NADqcBmm04EUAPAFGcU0tjim0AOL+lNzmkozQAU2lzTaADNFFFABRRSUAFFFJQAd6KKSgYZpB3oo6CluDENFFFMQUhpaQ0AT2z4JjP1X+oq1WaCQQw6qQR+FaKMHVWHQjNAC0UUUAFFFFABRRRQAUUUUAFFFFABRRRQAUUUUAFFFFABRRRQAUUUUAFFFFABRRRQAUUUUAFFFFABRRRQAVDM33V/E1NVVzudj74/KgAFFFFABRRRQA7ijIptFADsikJpKM0ALSUmaKACiiigAoopKACiikNABRRSUDCiiikFwpuTRk0UxBRRRQAlBoNJSAKs2rnDIe3I/Gq1OibZKjdicH6HihAaFFFFMAooooAKKKKACiiigAooooAKKKKACiiigAooooAKKKKACiiigAooooAKKKKACiiigAooooAKKKKAEY7VY+gJqoKsTnEZHqQKr0AOooooAKKKSgBaKSigAzRRRQAUUUUAFFFJQAUUUmaAFpKKKB2CkoopMYUhNLSGkJiUUUVQgoopKADNJRRSAKQ0tFJAaEbbkRvVRTqhtjmMD+6SP61NVAFFFFABRRRQAUUUUAFFFFABRRRQAUUUUAFFFFABRRRQAUUUUAFFFFABRRRQAUUUUAFFFFABRRRQBFP9xf8AeFQVPP8AcH+8KgoAdSUUUAFFFFABRRRQAUUUlAC0UlFABSGg0UDCkoopXGFFFFIQUUU3NAxc0lFFNCYUUUUxBSGlpKm4CUUUtACUUUUwLNoflkH+0P5VZqta9ZP+A/1qzTAKKKKACiiigAooooAKKKKACiiigAooooAKKKKACiiigAooooAKKKKACiiigAooooAKKKKACiiigCOf/Vn6iq9WZRmN/pn8uaqigB1FJRQAtFJRQAUUUUAFFFJQAuRSUUlA7C0maOaKVxic0tFITikIM0lFFMQUUUUAFFFFABRRRSAKTNLSYoAKWkpaAEpKdSGmgJ7XrL/wH+tWqrWnSQ/7QH5CrNMAooooAKKKKACiiigAooooAKKKKACiiigAooooAKKKKACiiigAooooAKKKKACiiigAooooAKKKKAAjII9QRVIVdqnINsjj3z+dABRRRQAUmaKM0AFFFFA0FFFJQMDRzRRUgFFITSGgQuaSiiqEFFFFABRRRQAUUUUrAFFFFIAooooQBRRRQAUhpaa3oOp4H1PFNAXLZcRKe7Et+dTUiLtVV/ugD8hS0wCiiigAooooAKKKKACiiigAooooAKKKKACiiigAooooAKKKKACiiigAooooAKKKKACiiigAooooAKrXC8ow78GrNMmXdGw7gZH1FAFSlpgNOoAWkoo70hoOaKKKVxhRRRQAUhNBpKaEFFFFAgooopgFFFFIAooooAKKKKQBRRRTQBRRRRYAooopgFOhUvKvovzH8OlMNWrZMIXPVzn8B0oAnooooAKKKKACiiigAooooAKKKKACiiigAooooAKKKKACiiigAooooAKKKKACiiigAooooAKKKKACiiigAooooApSoUdh2PzCkqzMm9ePvLyP8KqCgB1FFFJgFFFFIYUUUUDENJTqTigBKKXijj2ouKwlFL8vtRx7U7gJRS/L7UmR7UgCjBpcr6ijI9R+dFwEwaMGl3D1H50ZHqPzoGJiilyPUfnRkeooEJg0Ypcj1FGRRcLCYopeDSGncQKhkdUHTq3+6K0AMcDtUUEexcn7zcn29qlpgFFFFABRRRQAUUUUAFFFFABRRRQAUUUUAFFFFABRRRQAUUUUAFFFFABRRRQAUUUUAFFFFABRRRQAUUUUAFFFFABVOePY24fdY847GrlNdA6lT3/Q0AZ/50Y+tOIIJB6g4NJUgJ+dGaWgmgaG5pMmlJpKQxpZvSk3GnZFNyKADc1JuakoyKQBuam7jS5BppqRi7jSbm9aSigBdx9aNzetNpaADcfWjJ9aSigBdx9aQsfWjikNMBdzetG5vWkooQg3n1NKGkYqq5JYhQPUnimnnFXNPi3SNIekfA/3jVoTNKNQiIg/hAFOooqhBRRRQAUUUUAFFFFABRRRQAUUUUAFFFFABRRRQAUUUUAFFFFABRRRQAUUUUAFFFFABRRRQAUUUUAFFFFABRRRQAUUUUAVLpMYkH0b+hqrz61qMoZWU9CMVmsCrMp6g4NADeaTmnUlSAnNNOaeaaTQUNoopCaQCHNNpxNNpAFFFJmkMTmijNJSADR60lFAC5NJmiigAopKWmhBRSUVQheSQAMknA+tblvF5MSJ3xlvdjyazbGAyS+Yw+SPkehbtWvViCiiigAooooAKKKKACiiigAooooAKKKKACiiigAooooAKKKKACiiigAooooAKKKKACiiigAooooAKKKKACiiigAooooAKKKKACqd0mGWQDr8rfUdKuU2RN6MvqOPrQBmUU/Hb8DRikwGEU0g1JikxSGiPFIRUlNIoGRkU3FS4NNwKQDKTApxFJSYxtJin0lSA0iinYpMUAJikp2KOaaAbRSnmk5qhBSqrSMqKMsxAH40lXtOiyzzH+H5F+p6mmhGhFGsUaRr0Ufme5p9FFUIKKKKACiiigAooooAKKKKACiiigAooooAKKKKACiiigAooooAKKKKACiiigAooooAKKKKACiiigAooooAKKKKACiiigAooooAKKKKAKUy7ZGx0b5h/WmVauFyobup/Q1WFADcUYp+KTFSAwimkVJTSKChmKaRTyKSgCPFNIqQim0gI6KeRTSKlgJSUtJSGFBooqhCUGjmjFMBp/yK3LeMRQxp32gt9TyaybdBJPEp6bsn6LzW3VIkKKKKYBRRRQAUUUUAFFFFABRRRQAUUUUAFFFFABRRRQAUUUUAFFFFABRRRQAUUUUAFFFFABRRRQAUUUUAFFFFABRRRQAUUUUAFFFFABRRRQAjAMrA9wRVMdKu1VcYdx75/PmgBuKTFOpKQDSKbipKTFIaI8U0ipCKQigZEaaRUhFNxSAjpDTyKbikAzFJT6aaQDaKWkoQwpKWg1Qi5p6AySv/AHVCj6mtKqenptidv77n8l4q5VkhRRRQAUUUUAFFFFABRRRQAUUUUAFFFFABRRRQAUUUUAFFFFABRRRQAUUUUAFFFFABRRRQAUUUUAFFFFABRRRQAUUUUAFFFFABRRRQAUUUUAFQTDDqfVf5VPUU38H1NAENGKWigBKSnYpKkBpppFPpCKCrkdNIqQimkUARmmEVIRTSKQDKaRTzTcUgGUUpFJQAUhpaaehpiZsWgxbw+67vzOanpkS7Y4l9EUfpT6sQUUUUAFFFFABRRRQAUUUUAFFFFABRRRQAUUUUAFFFFABRRRQAUUUUAFFFFABRRRQAUUUUAFFFFABRRRQAUUUUAFFFFABRRRQAUUUUAFFFFABUU/RP97+hqWo5vuj2YUARgUhpaKAExSU6gikAw0lOpKQDcU0in009aCiMim1IaYaQEZFNqSmHvQAwim089KaaQCUmMso9SB+ZpaWMAyw+8ifzpiZudKKKKsQUUUUAFFFFABRRRQAUUUUAFFFFABRRRQAUUUUAFFFFABRRRQAUUUUAFFFFABRRRQAUUUUAFFFFABRRRQAUUUUAFFFFABRRRQAUUUUAFFFFABTJfuH8D+tPpsn3G+lAENFA6CigANIKWikwG96SnGmmkAlIaWkNBQ00w080xqQDKaacaYaAEphp9MNACU6IfvoP+uifzptPi/10P/XRP50xM2qKKKoQUUUUAFFFFABRRRQAUUUUAFFFFABRRRQAUUUUAFFFFABRRRQAUUUUAFFFFABRRRQAUUUUAFFFFABRRRQAUUUUAFFFFABRRRQAUUUUAFFFFABSMMqwHcGlooAqhl6E8jrS5HrUd3D1lX6OB/OqeX9T+dAGjkU3NZ++X+8350nmS/32/OpbA0SaTNZxlm/vGm+dN/eNK5SRpU0n3rO86X+8aQyy/wB80uYdi/mmE+9U/MlP8RpN7+pouBbJFNJ61W3P3JoyfWlcLE5IppIqHmimIlJHrToctNAqgk71PHYA5JqDBJAAJJ4AHc1sWdqIF3PjzWHzf7I/uiqQmWqKKKoQUUUUAFFFFABRRRQAUUUUAFFFFABRRRQAUUUUAFFFFABRRRQAUUUUAFFFFABRRRQAUUUUAFFFFABRRRQAUUUUAFFFFABRRRQAUUUUAFFFFABRRRQAEAgg9D61l3ULQfOuGjJx1wQT2rUqtfLut5P9khvypoDGa5A6xv8Ahg/1qFtRgU4Mc47f6s4/nRwCaxLoN5zHewGTwCf6USSQo6m0uoWrHALj/eXH86U3lr/fUfVlH9az7AyFiGcsn+0Af51rGC2cfNDGfqi/4VzSkzZJFP8AtLT8kecOM56dqadV04Akyj8jSz2WnAE/Z48/QVjXMcCHCxxgAgfdXFNO4cprf2xpgxmcenINSJqVg5wsyHv1UfzNYltBZu+HiQg9O3H0roba1skVdkEQ/wCAgn9aTlYfKMF7bngOD9CD/Wg3kI9T9BV9UQdFH4Cq10qlG4H5UlIGkV/ty87YpG9wOKa17IM7YTn/AGjgVFanDPxjJ6U+5PB/ziuiKTRjLQ1dEc3LXMsiqDEUVAOcbs5NblYPhz/V33/XSP8Aka3qewBRRRQAUUUUAFFFFABRRRQAUUUUAFFFFABRRRQAUUUUAFFFFABRRRQAUUUUAFFFFABRRRQAUUUUAFFFFABRRRQAUUUUAFFFFABRRRQAUUUUAFFFFABRRRQAUyXb5cgY4UowP0Ip9Vr1ZGgbZkkEEgegoAwpEIPGfyqhcWzMd44PetL7RIucopA9RVc6lfK3FtAy89c057CgQ2kTKRwc1pYfHKn8qbBqtx/HbQIP9kOT/KrJ1KRx8sDn/djb+tcd0dGpmz7iCMGsK8IBxxg4roLi7u3DBbOUdeSuKwbmG4Y5MMgP+6OPzNVFgxtnzIhH+FdLADtFcrE11C3yxEgH+IqOv41t22oTlQHtzxx8rKaU9GUtTWANVrv7rfSovtk+CRbyH0zj+lUbm9upMp5GM8cuqj8zSTu7Ca7jrU5Z8+vFOucAc4ziqyRXuMxrGuepyW/+tTUaSCeKaciby2DGJxhDjsRXbFaHO3c6Tw/DNHBcyOhVJnRos8blAIJx1raqG2niuYIZ4jlJFBHt2Kn6VNUgFFFFABRRRQAUUUUAFFFFABRRRQAUUUUAFFFFABRRRQAUUUUAFFFFABRRRQAUUUUAFFFFABRRRQAUUUUAFFFFABRRRQAUUUUAFFFFABRRRQAUUUUAFFFFABUVxL5UTN36L9TUtV7yJ5YSqfeBDAeuOwoBmLLEZOw5Pfiq09ncFV8nyh/e3sR/I1M7zxE5JGOMHqKqtc6gGys8e3PAeNT/ADpyvYmFrlu1stR4JktiOP42JrUW1nxzKoPtg1m293qZxloSCf4Y41/rV4T6kRwsOfdlH8q5dOtzo1GSWF0el4APTYp/pVC602Rxhrpff5Tz/wB8mrc0+tDO1rVfxyf5VmXNzrXObiJf93H/AMTSTRWpWOi2mcyzTvg9EDL/ADNXYvslsgSK3bA7seT+OKyGu9XyT9tUD3GfzyKu2t1qLADzYZT6hef0obHZstPe3GCIrYe2dzZ/lWbcf2nODi3RQTywTB/PmtTfqhBICZ+h/wAazrqXViSHKBe/yucfgKUXqJrQS3e6IEO9U2DkkZ/UmmTW8SndLOzue3AH5CpI7W4kj3i4Cg90ULmqzwxwN8zs0gIOWbJB9q7lscrOy0a3a2sIUYEFy0uD1Ac5ANaFZ2kXrXtorv8A6yNvKkP94gAhvxrRqCgooooAKKKKACiiigAooooAKKKKACiiigAooooAKKKKACiiigAooooAKKKKACiiigAooooAKKKKACiiigAooooAKKKKACiiigAooooAKKKKACiiigAooooAKgupDHESDgsQoPpmp6jmiWaNo26HofQ9jQBiPEXJOT9etQzWUkgUJKY/XEZOT+VLOktu7qCSQf4TxVF57tDuE10vspOKqSdiY2TNG202Xgm7I9vJIrRFhGRhpHP03DNZFveXLAE3knTpJv8A8Ku/aZsZN6o/4CT/ADNcmnVHRqSPpFk3JabP+/J/jVOfSLEjBSY/TP8AWle4kOc6r+Cqo/rWZd3TgMf7TlPX7oU5/JqSt0Q7PqycaVpsZz9iZ2HTzDmrAM0Y2Q28cajoFTNc016wPF/dkk9mxj8s1qWQvpkDLdXbA8/PwPzIok7FIuyHVGGF3rn+6qr/AEqjcWeqSgiW4KoOod+v61f+yXzD/Xy/if8ACs+7tb1cs1xJtHU7kH8zRFu4nYbDGy/ummZUXglMKD+NNaOw3iOENLO5wACXYk+lSQ2ltLCrPK7A5zuaoGNtA+ICA6kFTGfmBHfIrtWxyu1zsdLszZ2qo+PMdjJIB0BIwF/Cr1Zuj3st5alpR+9ify2b+/wCGrSqCgooooAKKKKACiiigAooooAKKKKACiiigAooooAKKKKACiiigAooooAKKKKACiiigAooooAKKKKACiiigAooooAKKKKACiiigAooooAKKKKACiiigAooooAKgu5GiiJHBYhc+me9T0ySNJUZHGQf50AYpSOTqQT3+YA/rUU9jBcKoJkBXp5ciD+tLKiKzZGCCR/SqE0Nsp3sACeck4NU02iU7M1bfS7UDlboHjnzRz+VaC2dsBgxk/72Ca5RXnUjyA7em0K38zTnuteAO1brHtEn+NczjZ6m921odO1hYHk2yE/RRVSewssHFtH+LKP5VyUl54iJIzdg8/w4/QVXlbX3XL/afbK0WTDU6oQRx8R29suPTaT+tKReNwrkD0j2iuJaDXZWBCXLN0GEetfTdL1YjdOrR55zJJIpz9FokkkUjZe2vXySxOf70v8AgapTacTzLKox2ViT/I1cW0EYxLcxqfck/wDoTVUuI7SMFvOjk6n70h/ReKmIPYiSOCLiQgxL03MxJ/DNODW0jpFbwrl2CqxAUZPTJPFT2qW80Sv5YB9AKbNHtJVQAD09a7FsczOm0+z+xwBCcyOd8hHTdjGB7CrlRW+/7Pb787/Kj3Z652jOalqCgooooAKKKKACiiigAooooAKKKKACiiigAooooAKKKKACiiigAooooAKKKKACiiigAooooAKKKKACiiigAooooAKKKKACiiigAooooAKKKKACiiigAooooAKKKKAKd7AjRmQKNwI3HuR0rGnjifAcE44rpGAYEEZBGDVCaxPJTkfrVJ9yXfoY2+yt8F4lPpndn9Kd/b2nRjbsTjsWf/4ipLqx3fIzFCORzgj6ViXGh3THMdzG3fD8H8xUygnsNS7mo3iOy/hjg693k6fglQP4gibO1LUEHHzNKf5JWM2i6qv3fIbtw4/rTTpOsHjyk/B0/wAalQK5jWOvkZ+eyH0E/wDhSLrkUrBf3Eh9ES4Y1l/2LqrAApEO+WlUU+DQtVibcs9vGfVZCW/QU+XyBSOhR5JFD/ZI8Hn5o2H/AKEaRlJwu2Nd2furj9RVeC1v41AnvpZcfwoAB+JIzVvZcMAqL7DPekoO+oN6FRozHnbIFBOSE4ya1dHs8hrqdQ24gQbxkjbnLDNPtdHAYS3bB2Bysa52j/ePetgAAAAAAdMVo30RC8woooqSgooooAKKKKACiiigAooooAKKKKACiiigAooooAKKKKACiiigAooooAKKKKACiiigAooooAKKKKACiiigAooooAKKKKACiiigAooooAKKKKACiiigAooooAKKKKACiiigCC5gEydPmXJX39qymjxnI5HqK3Kq3EBb50GSfvD196AMsov90fkKNif3R+VWGikXqjfkaj2n0P5GkwGbV/uj8qUADoAPwFO2n0pwVjwFYn2BNIBvvVy0gP8ArnH+4D/6FTIbWRmVpF2p1IPU+2K0QAAAOgpgFFFFMAooooAKKKKACiiigAooooAKKKKACiiigAooooAKKKKACiiigAooooAKKKKACiiigAooooAKKKKACiiigAooooAKKKKACiiigAooooAKKKKACiiigAooooAKKKKACiiigAooooAKKKKACiiigAwKKKKACiiigAooooAKKKKACiiigAooooAKKKKACiiigAooooAKKKKACiiigAooooAKKKKACiiigAooooAKKKKAP//Z;" vertex="1" parent="1">
          <mxGeometry x="320" y="235" width="50" height="50" as="geometry" />
        </mxCell>
        <mxCell id="qNlBSglNtdx8bkVUjUxn-16" value="" style="shape=image;verticalLabelPosition=bottom;labelBackgroundColor=#ffffff;verticalAlign=top;aspect=fixed;imageAspect=0;image=data:image/jpeg,/9j/4AAQSkZJRgABAQEAAAAAAAD/4QBCRXhpZgAATU0AKgAAAAgAAYdpAAQAAAABAAAAGgAAAAAAAkAAAAMAAAABAGoAAEABAAEAAAABAAAAAAAAAAAAAP/bAEMACwkJBwkJBwkJCQkLCQkJCQkJCwkLCwwLCwsMDRAMEQ4NDgwSGRIlGh0lHRkfHCkpFiU3NTYaKjI+LSkwGTshE//bAEMBBwgICwkLFQsLFSwdGR0sLCwsLCwsLCwsLCwsLCwsLCwsLCwsLCwsLCwsLCwsLCwsLCwsLCwsLCwsLCwsLCwsLP/AABEIATkB2gMBIgACEQEDEQH/xAAfAAABBQEBAQEBAQAAAAAAAAAAAQIDBAUGBwgJCgv/xAC1EAACAQMDAgQDBQUEBAAAAX0BAgMABBEFEiExQQYTUWEHInEUMoGRoQgjQrHBFVLR8CQzYnKCCQoWFxgZGiUmJygpKjQ1Njc4OTpDREVGR0hJSlNUVVZXWFlaY2RlZmdoaWpzdHV2d3h5eoOEhYaHiImKkpOUlZaXmJmaoqOkpaanqKmqsrO0tba3uLm6wsPExcbHyMnK0tPU1dbX2Nna4eLj5OXm5+jp6vHy8/T19vf4+fr/xAAfAQADAQEBAQEBAQEBAAAAAAAAAQIDBAUGBwgJCgv/xAC1EQACAQIEBAMEBwUEBAABAncAAQIDEQQFITEGEkFRB2FxEyIygQgUQpGhscEJIzNS8BVictEKFiQ04SXxFxgZGiYnKCkqNTY3ODk6Q0RFRkdISUpTVFVWV1hZWmNkZWZnaGlqc3R1dnd4eXqCg4SFhoeIiYqSk5SVlpeYmZqio6Slpqeoqaqys7S1tre4ubrCw8TFxsfIycrS09TV1tfY2dri4+Tl5ufo6ery8/T19vf4+fr/2gAMAwEAAhEDEQA/APJ6KKKACiiigAooooGFJS0lAgoo+XHU7sjjHGPXP/1qKBhRRScUALRT4YLi4dUghlldjgLEjOSfTCinyWt7C0iS206PGSHV4nBUj1yKAIaKswadqlynmW9jeTR8fPDBK6857qMVbXw74kfaY9MunBk8nMahgsgO0o5U4BHfOKAMukrTt9B125uGtksbhJEkEUhmjeNEcnADMwxXV6f4BJTdqM5MpUgw233Y88BvNPU98YppNgcDRXdXvgIgN9gvsyhj+6ulwpUDPDxjOfqv41zl34b1+zZlmtcqmN8iOpiQNkgu5IAH1os0BkUVu2vhPxHdAH7MIF3Mv+kuI2+XqQn3sfhWlZ+BNYlnTz5bWOAMrFmMn7xA2GCjaD9On6UWYHIUleqj4feHVwzS3shwSVEqqg/DaW/Wnp4E8MLtO27cEbTvnOPXOVUf5H51yMDyeivQNS8AQxW9xJp13NJcKymKK58tUKZ+ZS69/Tjt71Ut/AN7LbwPPdLbzkM00RUTBVH3SrRnHPp29TU8rA4qiuwfwFq0b/8AH1Zuhzs5kVmyOMjaR9ea2oPh/YR5L3DXTFoiQ5aFIosYc/u8lj6dP601FsDzWivSx8OtMdj/AKbdoBt4xG2Tk7gCQPbHFL/wgGhR7WN1fyAHlCYl3YOOy5xRyMDzOkr1CPwP4cjcNKbqQuSRC0w2oOoA2AMfzq3H4Y8NqMR6cg5ADMzu+QOoLk0crA8lpK9Kv/AtveSzywXpt5GCiKHyEMSbQFCkqQfcmuAvtPvNOvJrC5QfaImCkRneG3AMpQjqDkYpNNAVKKfJHLExSWN43GCVkUqwz7NzTmt7pYxK0EyxHGJGjcIc+jEYpARUUUUAFFFFABRRRQAUUUUAFFLSUALRRRQAUlFLQAUUUUAFFFFABRRRQAlFLRQISiiigCSiiigAoo/pXR6H4U1HVglxMHt7FsFZNoMs2c48pD29z+tG4HOVZsrDUNRl8mxtpriTGSIlyFHqzH5QPqa9Z07wj4esiJDaJK7qAFuT52B0y2/j34ArdQRRGSOOKOOM7UjWNVVTjggKMCtFT7iueYR/D/X2SEyT2UUkmSY2aR9igZJLIpH+etMufAPiGIA272tyDjAVniY59PMGP1r1pgUPygSSv8oA/wBWi/7RoYfIeRg/fb1OO1X7NC5jxqTwV4rj2E2cbKzKpZLiFgrE7cMA2f0rRsvh5rUjBtQmhtYiOBERPM2Rn7oIUfi1epKGVY2VQFQ4OerDHJ5onYZAZxgryAOWo9mh3OHt/h9osSl57q7lkRS2wmNUJwQMhBnrz17VtaV4e0K1URrYW0gcYklnhjd2yPugsOAc+1bEytvG3iP5VIGS7ehNShNpHUH5cjpyfXFNRQXIjFb24eK0ihgVQhEdvEiDP3QGCACpJvKCFWUMpA3q/Oc9QV6VNsA+bgZbnA4UYqsRuZudq5GcjOSBxzVbCFXCKkagIiKFRE+UKPQAVBBb21lALWyiWOPfJLtUnBeRtzFifXP+cU+Q7WZVPUMdx5JJ9B0//VTo1HOXwFKkE8tk896QxMSMybnfaOCPQU0sC7nptYKoBHXoKl274zIMjOSeeSG7mmouACij7wYnHTPOB7/40gGIoUOQBuYHHtnnOTUbqGVV2Bi/LGQArjI4weKsMAMKxwMBiB1OR3qIqMKD2B254HPQ4osAqoDgnk9hxn060qopClsnDMFz6KR0pRtUjOMkhVHTsOGpWyoJZjnA6gYGTzxQMRm3EJhgoyZMHg49TQ7Desa4A6sT+YApCS2VQ5ypKnpz0zQAQzNgYByfrjk5oEOk2BtvUgAkenGaZL8iqAPmYKqr354yT6U5hnDDJL5AGPXuT1oVdxeVjknHy/3QOxNAyBkWNMkg7FbZjkk5GRj681Pbg+VnDb2OWZuvzDrk1HJJGrA8FR5jA9dxIx+lIGLxsqk7QV3KvBx0GTSAduMjqFboOuTghRgn601sMAwJA+Y9D0xjA706LavmgqSw39eAA2MYFLIf3bEEAopRcngEjGcUwKwQFx34CkAdB0Jp6oTjjBDFTn2PWlUKMkNxxjALdPT60hnRn3biMqUbIP8ACducVIE/7qMAAjIX7zck57ge9ZzWVlcXMl4VC3JVUaZRlm2DCgAjGAKuuV3rgHaVXrwARxQGG6Vc8sV5A7en6UpWejGnbYzLjw3ZTTQXMhEk8aSCGSdF+Usdy8AHv7Gsu906SdHEjLJaJA4mnEgEe0ZDLj26f5xXVM3mhvmcCLzI1C8ZXPYmuQnOp77+xmu0FvHcrvQqql1GJVA4Bx3PqaxqRika05SbOTvfC00Uck1nOJ9rD9xsbzdhzypXOcfSso6RqQAPlZycYyQc+mCAa9EkuooQkdsgLhDmVs8EjkgetU1iD4kkT5XIYAjJYLzj8TisVUaNHSTMLT9AtHgxdJuuN5STa5+Uk4Hl7Tj+dUbnw7cRyEW8yvED8xmVkZOcc4BB/A/hXXxQlZBCgP7yTe7KMBEAzwT37U2QIiSYGCWCnOMkhtuB3zU88ivZxehhwaPYxxtC0SvMchmYbicDO4E8j8MVR/4R/MhczMluWbChQ0qgduSBXVovzu+19uMjKgHAHUk004G9CmWbJjB5bLfxAKKSm1qNwi9LGGvhnSmQFr67ViAR+5iIwRnOCw/nQvhSwO3dqrgsCVVbYFuP+2laykFo0lwDECPkPzPuPAJq+CFnRIovlwQcLtLEDPU/jWntdNjP2KucprPhmLTdPS+gu3uBvRZF2INqsPvEhs9fb/6/MV6pbxH/AEiKcCWO4EjMkq/IoLbcD+dYdl4Mt57mRrm8cwq7M0dvFsyC5wodye3tWkZKWxnKDicPVyHTNWnXfDY3UiYzuSJypGM8HGK9VTRfD1q9m0Wm2uLd8xl13sfUszZJ9ec1qOsJzuV1jzlUTAPrnnpWvKQeK2mnalfz/Z7O1mmmwxKKuMBepYtgD8TUM8M1tNNBMhSWF2jkQ9VZTgjivZfs480tFPJ5pY5DjeV4zknNcnq3g29vb28vI7tAZnLFHQ/e4GAQRx+FJxA4Kiujl8H61GcI9rKSMhUdw2c4wdyge/WtCx8GBUuW1SRtyhTEtnINoBGTvZ06+mKVmBxlFbGt6KdKaB45WkgnLBS6gOpHOGxxzWPSFYKKKKAEpaKKBCUUUUASUUVqeH9NTV9XsLBywilZ3m2DJMcSmRl68ZxjPvQBv+EfDkV55ep3qGSFHJt7d0PluVIAklPdc9BjnHPHX0tEijYSMckbVJJxk4OcAdP8/i6KGO3CxKIre3hi27I8BsKAAoA4AA4piPbxwSuq5TYW3vyzsxxjmt4qxN7jRve7ymSkabuP+WhY9RntVgAKXlbbhFLDcwwPdvQCoIWu3hfygItxAMrLuc4OPlHtTorSOJTFLIZSzqzmUjBbqCR7dhVJgTrKEiG0qzAZZm4BLcnGefpRAHkid3I2scpkYGAfSmFjI5jjQlFQspx1bO0KC3HqasZHzIGBZducdBwDimIjL5Crk8MFYYGcHtUYQ+YT/Eq8MRkcnO0e9OAILBR99jkj0696U/KAqkcqRkdznGcmgYKAcHBLbtvHTLZyc+1OTAU7j8xYtgdTjpSIuEUc9McdR1oztKgYL55Pb35oAJGdkYDCjDH5j0PpULAbVZhg7G8vPXB4ansTt5B3EcZ4HNNlP3VH8PyMfr0OBzSYFc5K72LbRtICjBORirIGFGFUM6kgf3QOmSKqsrJDJtBkkCEovdnX5tv41aVxsGOS6nn+6vpmkhsXczIEJA/iIHcD1prsAdi8AAEtgfdPamoGRY2KnDBR9SvGOe1OddxYYznBHQANkcE+lO4CE/Lzn5iUbJySD6+9Iw5XOW2HYCFzjjg08HOwthTubrjJXnoKbIdylVJGWUnHOMDPFADGKq4YYJ3xqMnPzk4yaV8NJuPTDNzxnPY//qpPvbWBAVCDz0bGRt6UxlJ8xjkliMD1PccdqQD43UKO7DJOB0BanNu3bACFLEkDGDxxnNJCvykk/ePJwRjPan8KTnAYsT19OAAKAG4CIhZsBzgAfwjPSo5XWOGYYVVRQzcgZXuSac33lZs7d2E5wN3U8elVbiJruN4VwsTnEp5DFAclU+tTJtLTcCKxnN1C9xKirC8zi24O7ywMbjn1IOKtQSOQWwVTHzZ43Nkrg1GI1RFiXJRMbQBwBjaB+lW+ERMp3yFHQttzyfzpRTS1GRSIUwRz06/ofTApPlkY5GcqQMDhRzwKkmyyYwMKMAA9TioY1Cy7WckMFwcgBj1xgc1QEqLGkZLDPlKMnsW5wFqum4wK4TCr8wzxgDk5z+tWciXz1BOCNoPQAjooqPCxwwpICXlbainhcg8k/rxSACHKRSHkFscfxcc4FOjRnbMa/wAbbmGMBdvWiZPN8tQW2LHxnIBOdxyB9KVHEieRFuRd5VyBhsDrg0dQCJ4muZYo3DGJNxGQTszt3fnWfrVgksMt+iAtbwtJIEGPMhBzjJ5yOv8A+rktUA1W9kjT5I7dLRMdM53nBq9qIkbSdXAUbTpl4Ac9WaJsVCfPF38wi7O5xn76bylCKFefzGXPbOFDd6uZUiNDglTkkDhQB27VjaXO8kKqxByFAx1IHb1rUt8O0hZuCCEjXuBx2/U1wneRvJdSOm1mVBII0C8F95z17+9QGECZfMLybTI+D3kPOTnk1YCzPIULA7F3DccbCOML+HemMwXy3TBOwmVsEk4OCRikMmLSJArNjfjaANu489Meh/pTE3+S5ztkOU2/xY7gnGaZv2oZGG5scLnONpzkn3qPzHJCqdpy0koAPTqBnrQIbkC4WQ42wnnkLuYqV+UY6/571ctWkMkjM+T8obr8rZztBPaqccZbDfKJF3MqsrE7cjLY6Z9KfNLGEVF3uzTIMLkb95JyxoGXLqYGeERurLGjRMRnac4J2nvUe9ontnDkjc24A8lSRgkVAolnlZgqiG3+R9pwC5XJAPtT0W3cb3uIo1AyOvyHPYnqapOzuS1dHQQfOUkYcBcKoIHHr1q0VMikbSoIyucgkD61T02dXSF8Flxkdhx3Oa0XlTaXZuWDbFGTx06CvQTVjja1KsRy0irEM4ONgGSvqSfwoYFUZ885AC5JxjjBxUMJuEn3qOZEYfMSoHINI5aN1EgwrbdozldxOeT70rjJ1kRAnmKrMVIfaoBBPOM0wrZtGhkDqXbO0YxkemaUghJdibtvVgMDODkA1WuSqmFdxZhHuB67iRjOB6dKWwLUZcWOhXbmK9gNxErLJsO8bSuQOUIP61mXvhbwtcWFxLaW5t5X3+SyySMY2ySMhmII45FaptZ2RmBCgA5J6knnHFTQaakls8BLZ2llXOVw3Jz+tG4Ox594e8O219bSXt+srQsStusUgThThnYjJ9gOKfqvhCSFTNprySDaW+zygGU45IjZcZ49q9Ahs7e3gSGGMBQpAx8sa46gAcUxrQzb8vs8vaoHILAjORRyi0PFiCpZWBBBIIPBBHGCDSV3Wq+Bddur26utP+zyQTt5ypJKIpVJ+8CGGOvTnvXHX1jfabdTWd9A8NzCQHR8dxkEEcEHsRUNNbklWiiikBJXe/D+xuSuq36DaHMVkkhIG1c+ZIRn/gIrgq7nwFezINUso0c/NFdKVGev7sqRnvxTW4HogtreL5JSZZpOSpbHyilkkt0aNmUFFUoiqfkDY7ZpYw7KLmVB5iq6oMcscfL+AqDc08ioQCysn8OVDnOB/n0rf0JLBa5cFRiMAJtVccKec+uaXykJtzjdtb7oxln25Gc9hSyOYzCg3NJsbzCBwXyM5NOhG0lscNwC3BOM5wPSgQvm4RnOCwkEY29CfUe1OCkF/UkA4xgcZP41CxjVV8sA7B1PClhU0R2mRjuYuQQSMjOOcCqAarMZJRgKuVVMkjtz/Sh2KFD5eW6ckfKByevFGHKiTjewG0YyFycfXNIPnBJbcRnHHHPekMbvZstyMEHLA559RSgbVVgPmIxk9gfalkG4wnJG05JGPmx1H0pQRnd13N0PTGf84oAa25nCqOVXIZhkA49M0Kn+sOTkKck8cHqfSpFABbIOee386SXBRCTgLIMBR6qR09aAIYY8KGOMK2QckseOeakYIiszHAwRk5ALHuBTlZdrNjA2qF9AwHJqtMwYgDrkcdcN29+9LYB/yttBHyKM5PfA9PSnqxfI+6i88cFhjn+tRqqjYhJLHduPoq8kk1NHjBBwFXv14HQCgZE5VVzgZIOTj7qj0zSxD5M44449RjvnmlG5jISpGC20HnIPegOyjA5dmJY9do6f/qoAiA3ADPIODjgKCck0A/OnQKpGe5yegFOJCr8hyCTliM5PIGDQq4Y9Cw2sf97vxQAMcuyjo33QOgYdMmiP5gdwGVwSc9/T60BXYryAPmP94g59+Kk8vlmL/KpyBgcnoaBEThQyM7BiwyoGdqjOOB7VExG5Rz7k8AZqZh5jKvRQMlugAHbNNjeAqXjzIpLENkMrFeCc0mMb8pBIXLcKOpGfWpjIoVhtycA8/wB4dhmmK2IDIxOQTnJAGPQ4psLrtdkG5QNyEgk/Nlj1oAaMLIsjklfvHB5J6Y/yaQRN87KoGSzIAMEA805hIWMQUDC+YhPHfP1zVqDy2jYkkfLhtwOcntQlcGV5GMcNmyDc32mPGflXnK1DdKxNicjCXLM+D8wLKeWJ/pUV1d28UkcLuxSL/SBtViAqZyp7D1/Cle5jntPPt2idPtEMpZSGwgYcYH4/56Q5xV/IC6TvjRecsDhhwBxjioIx5UZUjbvbjuZMtkADrzUkr7D5UDHA3M3QjIGc5NRYWQu2XcjO6Vu7Y5VcdqsAiIO6QjGCFRQRxzgk47mqmuX4sNMu550kMIVoNkQxl5VMaKSeg9TVlWAiBTapD4G7OTjJIAFUdfhhuvD2tu7n91AlymBxuidWxz2J4/Gk9nYpbq5xOkDZHD04x16Z963YgI3jTBOBlmHJ4xgcVi2JZ44lgLAKVaRio2bV/hAPc1rO826NUOAww5CgjPpk815x2sbtYSTjj943zO4wOozn2qulxJLNcRwoRBFEvluqqELEA885NTswTcsjOxwQqZwpI4G4L2qGNXVDcAFEgj3SAg4mG7O0d89aQxJBcoxDPkAgAbAFVc9MDrVqGJkVmbmR3LSOx6rjIA9sdqgcyTOHaN1UMpVmzuY5wMjpViR2kkYBQUfc6KP4iBgsfb1oATCLLuZsR7WIK8lu2AKr71e4km2bEQqkaquOVXBbd61IhmZCvyFwfvgcLnG4L2zVdUuZJZMlEt0KhTgghBztx3NAy1JIYkmjRQFCARDsHfkk5pYIoE8qLbvYQ+dPIcMd27otRmIzSYDNywKKBjPoPwq7AkKwyxIpLEBTwSztz8pxTQmP025iSWbIZY8sY95/1gOct9PatcNLL85ASMZ2k9/oBzisORxDLZQMAFEbMeBuzx0I7CtqJxKQpwEZFDcYVEHzfma6qTujnqKzHRFpHVQTuK9cYPXgjPFSGGWWSMAEkTEA8AgBemTUjEiKFIwiZU4xgsx67jVdp23MsO4Bck4/iY9/WtTIlXYrtHw6buSvIAz09KqMGmlhCgbjvQAnJAHbFSr5saK80RUffCZ+ZmPQEdaWCaTLIkIRyQS2PurjnJ96PUC06bFAc7sgAAHqx+lFqs6blJGAN3POAM9KglMz/OScKoXB4HTceOKj/wBJZYPnC7mX5VPAAGASxqhFkCMfM7bssdqgjO7txSDdKzY+/GquWXOMdcZNFvEiLIuQXYqwJ5YA/KTx0qVHaMTsVGC6bAQPmAAxQBct9i7yMs5RX+Y8/NyM/WvKviNPHLrsCK8bNBYRRyBAcoxd3AYnvgg/jXpsbLAk8jEtLIqs5x93PQfhXjPiqRZNf1ZlkDgSRpuGeqxqpBz3ByKJvSxKRiUUtJWIySvSPh/bmDT9Svjs3XMmxDjLBLce/qSfyrzmOOWaSOKJS8kjqkajqzMcAV7DoljFY2NnbQhSIiqSuoO2aQjMkvJ6E9PYCqjuBrqJ5sM0j42K/XA4B+UAfrVn5IvLjjGCATlRk5IwcURlQGxnHYqp6GkI/el2JGP4R1JIxlj6VsQIDM7RmPaiDcjseeR3yahubn7Or4DPtiYE4+8zKRgc9v61ZymY0HQLjAz1z0GKc0KeWQyJgtknqflO4USTtoABcv5Yx8zAHAwEAHIxS3EmxUVPlwTHkDGOgzx+VMO795tIUMNxfHzZPOePWmSIJhECWOGBPbnj1pgShtiwxKDnYSSBwMYNRrkO0eBwQIxnO7AzxinBYlkeM5Y+WjuWbgEk4T9M1GCS4GMFSOQOQueRnOeaBkmMbYyenUdMZFL0YqCAFCjoTQ4KmSY7AOAzSHaiLjkk9KbFKkhDIC6qOGIKqx67uefpxRcBWYHeeTwxHYEnFRO7tAqnCut1HwME7SeSMVI5mKF9oLEEgAe2flHYfjVdHLMDwSc/d5y3cDH60mCLBV+fmCgEjj5tu7nI96jURpvCgttYkE9PbLGllkWIGMAvNIOUQfcXrmRu1Ii5iJbJyAAoGBwf85oGCZI3HkyAgAZHUkHFSnOduMqAVPGRjoaijLHKDLNgAdsL7CpGZnLbc7VG3d0BxxgUCE3MoVivXCjIwVGDjAFMVWdnBOMEZ5/hJyRUgUkA5JCtnngE/j2FIxwq7QSchvQfQ/WmBGXT5jg5IIRR0UY6getHKRDP3z64BbIGcmgqwkd2P32IA7A4zzTiivlZAGUIrNno446D09KQyK5uYrNI3kJ2vNHHu6AbshSamLeVGrSukcSq5ZmzjbnJJPpVC5s/MSZGleS2lU4hkPI6DKMefcf/AF6gltbq8a2+03BeC0hSNYot6Ce4XKl5sH7q8YHcg5qOaV3oBXcahq5IiaS00gnBuCCtzdr1xCp6KfX+da0MEEAjt4UEcESCKONeQqg8ZJ75yTUwVERcjO3aqZHXHA2j+VNG4gv8oLMFJ9jxgURhbXqAEK8bxhRs3kHnqBzg+2akRVDMCQWwoAJwAevOKgjI2gD5RyeBgnLcmhfs8buZG4BDEscIpPHJqvUB8hLMMKADxk9flGc4681PbMx8xSeoU4PXGOSahk/1cjj/AFhyM9OBxilRjsCZ2hRucrwTgdMmnsxdBs6hzIMqQ7c4G4bcDAweKiAtba2ul2IocbXIVVaQ4745qxuQtGFA2lecZHHYk1mTAz3PlqcxR4dmxxwe350mNFtfPkjaIAbwNpznAjIyrHHtR5eRseZiV+U4YqmCOvFWGe3h81lY+ZJGsb/NhsjgYHtWWsxT5JMFhKV2r97lsAcUPQFqW5F8pIgXYL5qwsmAS289s8+9V9QNsbPWbF5d4msbiFVjXLltjEKo6Zz/ACpZFd2ZmGHhHzBfm+c8KgJ447//AFqs2kfllN0RZ2Qs54wXJyef0o8hnnWj7lijLSZXaCQwJxxk4Oa0xM7FwoAjxlOPncDGTls/yrPvIpNNv77TsDbHcsyFTkCOT94gfHsRxWjEC7xMdoyAq5GBgdx7V5rTTszuv1QsmPLjACqAVY7vvPk5+Y0kzmWGQH7hbyztG3CNwQo65p53uZ2ChnXadxX5VA470FjkKFDMDyANxJLDk+3qaQDGF4fJEwQwqwEsikqzIOVOzHHp1qdAVt2kdQrFnC8Hdg4xj2pszO0TOxzvZkJHbaMYUH61G0h2JH82xF9ctIc5PNACw+XEDkDfG5ADEnk98VGxfPmuTsXJ293IwcfrUscbHezfuwzqAoXLEdepqOUqWw4+QNhAzfMQ3J9eaBk1skrzJNkgbtq7jkKOCffipWmWCQzM7E+cSgQEgAnBz6k9KccxRAJwXUxo2Bkseflzzj1qKA8xlUOQm9pH5I2/KQB+NADLiIjyrqWY79yqkJUZQZJwO/PX/PGnaTucZ+797lc54xjNY98HxaSmPC72AxkBVzxn3PatWxZSFLZO0glf0xXRSMahf3zsN+wDHBbpx0/+sKd5ywOwZhv+7wvJ7HB6cf0qQEOyIoATg/NxyOecfSo5IkJZ2bLkFUIHA/CukwEBmuJElBCruIyfmPGACcCpIoCivGrHd5rZIIJc5yPmP41NFbnbiL5Wb7zHp8o5496hfyo9pkmG1iEL5KgO3AxmjYLlhoEk4eQ/vQSQpAC8EYBqNxGin5RuX5U3fc2AdagjvNIM6WQm3zO58nZJkEYB2kKeD1qWaRAyoknRsOcAqMc0XT2Eh0TOCihSRtzIcgDOAdhHrSmTaZF4MhK7cYYLgcAfSnQoViuFLbsluRxucnIGf/r/AM6hij8pn5ToS5wcLuBKgZpgRq8z4jUkvl/MYtgZJwBXmXjCymttWa4dAqX0azKQCMuoCPnJ655/GvTLSSKWbarRny/mcZOUOcAEHv3rhviEy/btJiKkSLaSyljjBSSUhQO/Y/nUy2A4mkpaSsxHa+ENMJDam+0iXzLa2XgsMEb39ieg/GvSbUeXFGcLvyB65I4xgelcR4OWYabbhtwHnzMgPYFtoP5g13carEsa7vmJyMDhOetawFIfIzIFXJLdR9W6AAelNUANIu3nHzNyfYmpSp3ZCnGVHX72eT17U2JWUSl8bdxwAOSB04qySaMOxwuEXbjt069qbgO6gsRGmQABy+RzwKSF5NuzngAHpnB+lIXaMsqqOQVT3PXHH40wGkuW2gEIFzg9yOegpoBVkO7J6lT0Ge5xR50SySLJIokYAYY4Jx1AzSbyfujnHIOBjAzmlcYKCHlbJO9hI5xzu4p8aEyEnCjOTk5IHvTU8z73HXIHRRxip4whOCSQcM5H5fpTQMhuYo5VWORN/wA2QD91Sn8WP89aecqI0AxkAtgdqJZEWN5HZQAkuG6BwASMDPU44po2slu+1i8iqSXbGBxwRSfdAPyioTuYkkfhjsKgCOGkkSby9+AMgHaueSue5of7W7lVaKOIDH3ctkEDgnj9KZcSC3WeeTJigQyEKMtgcnG7vSv3AUtFEY48kl1MpLZ3OynHzNVjDfLtACsME/rVG7eMxwvlsO0TZQbm2Pgkj6cGr4T5CM4VcBvU01vYBnyoCq/ekB3uBz8v8IpcKqAkD/dBztHXoKcWBJ2D+EITjgZx2qHcMGIZIGRkcnjimBJvyZE7FcjHOD6UkhUeSxHOCcHtxjnNJGMAyMdqgtgH+6MY96e21pXcgncoKjOckcHOKAI1G55Sw4UjBz6jNRXcjoAU25QAqGb7/RduT2qYKXdTISqgxsqjjJHPIpreXK8kyr8i4VHPQMPl+XNIBEUBQ7sS7rlmP8PH3QKRQcKQPvPgDucdP8ae5jjG3jA5xg5x1KimxsWRW24+YDaPvYzjk0AOf5WAYg5xgDkY74/Ckbb82T0GAD2B5Jx/n9aVo/NG7aP3WVQEnAPvik+bgvjzJCCEBHXpk7aYDQjvjHC5XYD2VSMlvr2pLjyiBGdmJFcOB12Nlc06Qs6ybnYLkABRjLA88DmmJEodgQQyAO2fQ9FpWvoBJHvfJc/KNu3/AGtq9fxqKRWYqQTsPysWJyT649KV3fzI41BJwzkk8AAHoKXBGzPCOMFj6dQOf1oAQh2kI+byiAcZxkAYGTTTtt4YVwiqWkkdm5O0HIUAetIymHczsSXePy9xySCeMAe9RyRTMCJZgHB3KFIG1c80DIYnTzJZHjdiWLJ2yVzhaI7J45IbiRiMyhimecuS2asCKK3iUAHB+ZG/iweMDPPNDt5uxV3EK6mRs53kYIUZz/n9VbuO4k7hJ1RGVi6fPnojk5BwKlDNtgUHMrblYrwAMgkls0yWONZFlUD5v9Yxz8qDsvbNZviS4Nvo180UjRSSJHbq0XBxM4XGT6jP+TQ3a7BK9kce1zHe6xq13Gd8Mt05iLfdZUAQHB7ccVrQkE+YTls4JJ+UbfpWbYWwiiRgABtOMjrxya04wSkIIHlqhZgAAWH3ue1ea3d3O7bQVjczYWM7VcF2Y8fKO+B+lPVYLNHJJLyBQWbLMe/ygUEyEbimMlCqk5zxxnH4U/ydiESuDMpZ2IPABUgCgCvcNvWPgL5jsqKRyA3fFSKAn7sBmk3Bo2IB2qRnk9OtLlXlswwXbEm5hnrgYHTnmll3s2xQN5bchxgADjbjpgUgCTLbwrYVhtEhHXcBkDnrUSiMyK2wbLdGIBILPIAMbuOnNMmlSNY2lbcIiQBwEDMSAfrVZp2j2mKOWZpipVYVLEOvBY5HTnj6UDL0sjF4nbO8LtwSMLkZwBTcliiggkt82Mg4IztA9KzHlnLRl7a8jDHBkcZ3A9SNoOPxq3aOj3G6RWQHEUSHcUPHGHx1OD1piuWLkNJb3DyH5wqqiKTkNuBCj3q1pr7kUlscbecnj6GmMhjG4Mm/eSS3zDccqCAfzqCwV4AqSShjl1JI+Y4bGceh7VpTdmRNXR0UEcj5LP8AKDwi5BJ69almZSCoQl8Z+U9PqarwMoIy7sueRwOe3Aq2jxLtYsqMwdAowSRkHP1rsRzD41cxx8MAYmDc8g4rIvY54YbrzP38UEPmshGMktwjdT05/CtdZkSPO1iQML3J7gn3pBswXkJkZmDeXjgHoDzSkrqwjlNCdGvL6VYFYJEzefgloGZsKFJPfmuoEaLhtmEwTtkPL5AJz3pyxWsQLeXCi5V5FjTYrMRuwMdTTpZPOaJlHQ5Y9CQOnHpU04ckbAtCC4uJFhAY43SF40QgYXP8RFNJZ4yrhS6YdgvAJAwM8/TvSgKrfKisTlQ7ckdemantbeCE3UnL+Y6Y8w7ju2jj2HerQECbBNBM4UNuEYj4LspGApA5615N4pvLy+1vUri5iaLEzW8KHOBFAfLXaT16Z/GvYOCQ0UI43H7o6bsZGar61aWd/azWs9rFL58cggAVdyNtO1o2x8rZ6UNXQjwyinOrI8iMrBkZkZW6qynGDTKyA9n0dNOht4Ghm82MCQxljzkO2P1zW3bhpHO4YCooBznkY65FefeDJILi2Fs9ziW3my0LfeZJGLKUHcZzn6+/Poj3GmWsYWW6hiGfLK7t0u5vVFy3v0raGxMiTDuWBwAM/MTyMdgKZuQSbQOPL2nqSv17ZNRPdWoV5IMuhGfMbkOfu/KDzmrDMkcMYjHzSYYknBIYZJNWSALpFIqbVZiMMc/dx3phLny/mIYEszEAH/d5qRDlI2OMYGF5PI6k1VZ45GcBjlB8y4YAbueW6UmMeYoZogDGGUlipcZJJOM59aAoQOADgE49wV7mpnaJFUu6KFwASwwueBxTSV2o3z5LHAOBz0Hy/hQkgBASQoGAMjkjJz1IFSKeAF+7gqScg8ccVCvmAvk4fOMAZPzH1qQ4QY3/AMPlqAAMnGcgUwILq2hniQSs23eE3BsMNo3qwzx606MmQ2+QQsYAyxByFA+bjjnrT1BbZuGSFLEvgnOMcikJWMIgBOflRR9MYNK3UYjs+4Mq5QHnAJ2471FdJ5lpdggF2t3wCeCWGAQRUxzt2fxZO4L0GfU9KNi9TwpjZXQeufvc9uKTVwKtvG5jtQw/1cMYy3cqoBwPeriMyRgSfKd4U4JbjAOAfamDawD4wN2Vzz8o4xj6USNu+VVLOcDHYZ601oAx5PkZYxjJO8g59+T60/KIEQEfczz1weOlJsWNX5BKknJ5G7gihEGeWyWAyccnHNAAGLFQAcDjJ6YP+z7U5mb5lDiPaAxYkZPOOM0p2q7722pjbwfmY+oquI4N0s0gUt8whV+jlRnGOvFMAYKVcK7fPjzDk7kVTgnJ9anYocKmfKhVtoAwGbHeo2wTbowwuTLID952AwN2O3NOU7dzHq2S2eOTQAxVGduCzOw+ZjknHJ49BUsYVOCMKAdwzk4Hc0ilYmRTuY5IHT7p65xxUbuFBbliWYgAZz6dKAHoSGkZvlVgx+vcfjUZcK4CEhmPyEAFunJP0pGaVgwCnMgUsz8lAM9PfrSEPlAqsWUKuAAAoxnLGgBw35RAAqIONzc9ckmnIrySqMsAHbziMElcZBY/yqJwQGYuiBVDE8HbGOWNNWVkikMR3bmVt4yQ6MOGXHrS0uAl3JHFImzGC+JHfPIIwfw/xpzyeYYWBDQx4AGPvHFZrRXVzcWqmE+Whd2Zs/Oc8fe/CtVwRsG4BVHIAGAfwpLW49hmZXCtMFUHJQIMEc4HNI+GIbHRgMAADkZwT1pSWYr8xyVGAO2O+KFJLTMV+ULhcgYXqfzpgNuE+0Sw5JKoOAOm7twKnWJFK4baoBGwYCktg5bIzxj9ahjM3IG3cQ25jzkf7I6U8kgRquDjOSTksf71ACkBiGk/1fPlj+9njn2rnvGMoGlxx9fN1G0j4yAAoZwf0rclLSGJQDgYIbJ5YnGMDtXP+MFiXTdPAyWGqQgckBm8qQkGs6nwsun8SKFpGqQ75MZCYQNzx34qWORts+5cD75JHAUHA4zVZJooYlH35m4CAZwvdsY6VKcgMvMrdMN91SBxkDj8K887CZJGZo9+75juRAvJCZbJPpSyzNIwPlbUXqWPBzztbPSglgodmHm/IgCZO0Yz1Hc0sUfmSeWEDE7WkY/dXk/MSe9ACofLXO2MuRuyOFC9OrdqrI7SykrlzudGbcduW/u4/WrFx5IQxb8bT87LwcKfuAjnnj86VflVWIA3fKN/AGM4UKKAK0dovmzkvIdhDBzg/e4O3dwO/apFwHUKMOjAqSM7Y8DIx+FSL8yFB0Q7d2f9YQc5HsOabJlHHlFSWTaT1wTzkZoGBDZeTBAKsDkHLAkcA+gpkdoNzS7yJZRG4K5CrGMqODxnr271MxjVImKsziPamSSA/wCPU1NCGyEkADOctk5bHZRigQ+OPazIwjbaoYSfNvxx/Ccj9abdQp5JulJEkJVVwSMqzgnIoMj7ZE3BCeGYcFVPG0f0pblwllMADuNu7AHrjpk009biH28jNEFbCueR3/H6VpwHCkn5ggKguBhieOP59e1c7p78fxZBGPU/T2rbt3c7ncjLOQgPfA6kV2xZzSVjQUt5RJOSBuA9PqabblBsPy52h2LKTgEYHX3pi3DbHX1yGYdTxg8CrECMI14yXU72bj6AVotSBtxnzLdA2fnDFTyWJ7n2H9KkfKxk7wi52FhgswHGB2qJI1UO5deRuaRjknB6Uu9ZGVVOUQA842r3oAh8vLjLHaSDkg9PXn1qwTsUquNxy4VQOQeBg0zeu4seV/gxz7UojkzCzkom0AKvDHH94+lJABbYqKCcyLkZ5wPXA461LDG7KCfljQFizn5g2QQaZsBdHYEPxsDHIK5560lxLCWMIkYK0n8IIyzHAz/+uqQjynxrpgsdVF3Hk2+qI9yrEADzwxWUYHvhv+BVzH5V6l44tIpdBNzhy9leRrF1wFkPlux9jx/nr5ZWUlZgX9NvptNvrO9id1aCVGfZjLR5G9cHjkZr0zQr3Tte1rU9WtbQxrHZ/Z7qaWULLIM/u18gAjBCj5t3bBryiuw8B+WL7VT5m2d7BYIEIOD5kq75C3QbQP1oi9RNHpIKyR+b5alPNTyIiCAMHBJ281cI3O44wdoZjgKAOAoHoKqxRxxoixZ2AhSWz82eSVGe/FW1XaGU4+bI59vWt0SR7ndtsZ+RTkHjHrk099xwFfBYYyOT1FQ+ZHC1rEc7piBsA52ere1WARkkkDkD37ccUk07oBiwqplBBYuVJBH3ce/vSswLLtA+XIX03njgD0pQWIeV89QFB6k4+8aaV/eq5+4h3Yz1OB+lUIYhDbAwYHkt0BzyTzTi6YMhySGREVQed3HX+dPUqrIGIyeRx0B5OR0qmJwkwtHaRnCeZEX4LRknIyKhtLcZbUgu+AcAKuR6ZB5NNdlVgerKQ5ReSVZuBmnKCNqgckEnHTj0rPu4rj+0NLnhUlSGiuNvQxNyCc8cU5OyAuSusLlOcSZOWH3R1H4dqeUVUYvubeGBA7gnFVb028sTPIzYUMkIQZZ2bGAo6n2pbaSWRBDOWWaIhZN38anlTn8MH3qFP33ECy4JUfKBgZ2r6Y6ZNQNIY9qou5zjcByVU/Lx71ZU/IpyXLYAGOmeapTtO832eHBYn96Qp2xIAGBdgevoK0Y0WhGMDcRgkBVBzz7mnqMZ4Gc5QDr0pFZV2qvJXAB9WPYUyQykbhsUHIPcj0AxQIp6urNZSuB89u0U4yQBlW5H09anjRWEE8jkN5Y2fw4VhnP606WETKyMfkPEoPJO7saWRUaSJsfJGo+XnG3G1RUqPvOQDSUDNgksQA7EfKIwM7Qfel48vcOhxz2xx60yXBPRQuPfoeKlYAIpZgq8Iq479elUhjJW+cBA2PK2lugB64BNSyRxo1uzdCgCAn5d1QGWJmjG4jBLnecAKVwNx6fSrV4o8m1zkY2jI6jjsa66NNSi7k3K8j5b5Og+QnqWxzkCqv2p3uZoAPlRI3LqwwxYn5eO9WZFEMDEEB5cgf7KdSaoWkboklwqrtZtiZHCqn8WaqVGMKXM9ykWCrsskZ2gkFCR8w29c1VtIpY0Fs4+a3d1Qk/ehY7k4Hpn9KuMUKyQo7LlCoaMgMC38YJHUVSt5LqGWeOWSNmHloJCy7ivUEoDwfWvNnDVNjRbMhMqFcYC4BPAz3FJPLPD5Zjt/OZic4kRApHIzu5xUalEwhkhcqPMcKQTjrjr+dK0rSZ2xfxZViMAAY6VXSyCxL54AC4YOckkfMR68gYpsXmPE7MSOS7bzghFHU013YRkRKwdyRhQNxPXnNVl+Znj3uyLg3LDJ3svIhU+g/ipsC6uCDh2OBksflUsR0GKeFlEQIwT/wAtGbJwO+BVdcq0DOF4OUj7ZOcE/TFSubiUsg5weg4HPTcaAH8KR8oIU5HPU544Fcx4xYmz0RHAzNqLSqBwMJER06/xV1H+qWZ5WXaqBFAIySozgf1rjPFshlm8OHLDAvCEP3cAxjI96irpBmlLWSILYyMwQFTLMfl24G2FOgz0q4xMT7Fw2cOD7t2+lVLeIKUYllfyyvyj+HJ449c1dhii3SyseVQlQeAoHoTXnnWOA8twCWIRX391y3Tn144qOS4ZCI4ySduCgOME92xzxSOJLg4AISIBxsLDnjkA96miihhGQuJMjzNxycMeaBkYgYBZJ3ZsOjngBRtBIH48VLIfNLHZgLxuI+8c4yM015FkBk+YpzsXGRuPA4FSA5GFKsu0KzYG3OOVX6d/rQBCUEhC7gBgABeBgEjHpSKEBbajHapHXJY4yABTnB8xZHZcJHgKAfmJxwFHpStlihHy7xtYAchR7D1oEEQCBC+7P1BI9gKs7BuaTAViVABPUehwaqII0jQNuKqTs5JJB561KpkYKFUcjPJ5A6DIoQCqUO+Vh8xkJyeSxHQAdKy9Tu5IY4rX5vOmIadgQdsIJAT156mtN0ZQmX5yd3YLkjmsbUmjN4Ilcu6RJGxcYAYndx+BprcGXtNlUquMZOB7jP1rfiQoik8kg8kjI+lc5p8YRjyMn6gA+tdBbvJ5chcZJIwcZAHtXXT0RzTNKBQkUZVRksPvE8jPJNOyzieNe4YcDHHTv69qhh+aNRuLbUIVePXuferK7kIA6lGZjj+L0yK3MhpWBEVRgu67kB6ADu1JGqlfu7mZif7vHWoVVg292JdtyxoRnI/DirKeWqSOSQoOGZs5ORwAB+lICMbeV2jLknk/jk57CpWk3Im4DeAcFuiqBnmqgjuZLiHb8kKq7PkDcVJwASfWrbJv5cuP7gUckk9VoAgjlkkeKR1fYBIFHQFQcAHFSblllGdu4KoIXONvqcU2cSKI2bhYh8wyfmpbYjfM5AVHISIDHbgnFAHL+PJQ+gRr5giK3sGYlbaJgQ+AyjrjG78K8qr0L4hTQRxadZ/8t5JWu8A/6uJQ0YDD1Yk/98n8PPazluBJXdeArSMfb9QcqxyLVEwCwGAxPrzkflXC16X4HtprXRrm5ktwGvbwfZjIMGZAgUHPXaOTRHcDsjuSNxG2DgMrnny3I2qoHrVRdRmlEdrBbM98QRcrgiONsn9479lPUd/yrSI2pGh4UgFyoxufHRRSAusvmqiK20qMnlo/RgO46/8A66qcJN6OxmVreC4jctK5luZA29iCETJwAgPbFWdrgglhj5icDPBOcio5QY5YJJGGANxBPtwWJqWRQq73YFsDaoOUUHkHHSrjFRXKhkhwpUbSWOCQOir7k1XdmLbCQW+csF/gxyBml86Z32xoeTlmJGMcAjil8mQ7sZwvJG7BJJ6E1QCqrtKjHtzjpjPamvDEZA5VXmU/KRnKA8dvTvU6KqkYIOMsSxJAI7kmkB++seMH5i3qSeaLJ7gDblWRwNzDCgdMnHqe1Z4ikyZJpjI7uNsalvJTPzHg9fxrRI/dsxI+UFjkHB9aru2FMirk4G0kYAUc8g0nFPVgiXyIVlWU4YrGFjzwq/3m9cnp/nms8wZ43J/dESNuY8cckk1YkAEe5jwcIue+eelRiKEQlJFLg8EHow54xRbsAzznljiaBmjQsWaTCglRxhAc9fWnRxABwTgH5toPzMc5OT1JqfYSXUDA+RVwAAuB0H0pqZ8yRycBd2CeTjpxRbuA1uURE+UKQzsAS5LHoM1Xu5XgjiuMFkBUToBg+XnGVx3HWrB43HJVFy5bux9Bmo49riTjGeSSeNpGMZHelJXVkBJlREvzJ8yEgoCVI+9vprOTGCFABJ+92xyCfrUSRiCMQq7OqJw+AMjdnH4cflTmXeVXksOcHsO5/CqWwESi6aWYyhWjBXyPLUqykdmJJH0OBUjK+xGIQAOckknGPf35oL7pEVQSvJOe2O5pdoKyhiSioXfAPZsjA9KtAylLZRG7OWke3KB/KYhodyncDsYdV4I5rXuwZDp0YODJIT9QvWs20lZ7m7gddpdGktx32BNu3A+mRWsy/NazHpDbTEf7zsFH9a9GlNTgpRRBk6rOAzKOgGwY9B1P86ovdlNOu3kZUA8sJjA2ge9RX9woeWaQkxxnaqf89ZD0U+3c1RuFuZ7O1tFCtcXjvcybs7UjB4LBfoOK61FW21NOxG18kccEv2pQ0zqkaEkDLHADMeB+VaJidFvLuZbYzR2+y2mPJLSLtxyB0zx1rFmBs4ILeZ0IkO65EfyhlQ8IvfHqc/ypbSb5mQO4gfBjjuXEgUjnchI3D864MQptcj3L3OmAEkfluN+5Arkqvz5GOgFNa5ZZ/suwquwPET91sYBHrxUUbo0cLI5wrZdUPzNwcg/zpJHe6G6HBZMmNiSCCeMNj9a86cJRSkBYlmkXzVRyi7Si7AoYnvhmGRTbXK4jVFChTsBPXuSxPNRQhnBMq7GXanPO9jySvtVkhlKLHEWJ4eSTgD6KKhO+oC+YheM4LYY4CrnPqxHp6VOJZG2xRoQWO5mf5e33qFDqCTz8u3AwoLZp6yAZBxuxuIAySMYwM+tUiSuyrJIUYyMVVeF5Azk5NYvitbSOy09woEtveRhSR089SGBb3wD+FdCrfKxUZdlYjHA3DtkVheKoEuNIugD+9tWS9bHIPlfLtP1yamorxZcHaSMSOREQBSMrznnknnHFTpHPKoSSVhnDFFABbJ4BNVrQxRRJJKwCAgqONzNjj86ux7t/mvgM4ckfwoo7DHf8a807RWEaK/lfKY2zJgswXPCmgqoR9rGRmLISQTkZ45oUxs0g/hmZXJwe3TOKknkWOIorAYzgDG7Hq2e/pTENDvuCFQVOEAUHJ4wacFPmZdG2qoCIMgALxz2qPY0cHmKzl1jBBY4ILHgHtTHl2jMkiKh/1atkl2JxwFycf40AOjKmR5CxKklQBjaBgMRuqX55GK5XaBklSemckZ6VRBaYSw+ZGUYklVIBIzkgAHNXposYXcMBNoKjAYnnPFAxrHAtjuyxYrnHAx6GpBIFfGdzEHt12gcn/P8AKoZBhYos4CdccsxPB3GlY4kV3GMIwJ4AUdgPegBlxcpEHLbeWC4YgKCeBlunHesNvMnupXkIbzGySORkAL8uO3pVy5u8hhHHkDCRsyZjiHdvQt6VHaxsz7vUjHv71cUTJmvaIQBxkZAJOOcCtyNUCqCpI6H0OePpWfbRqCCcDpx+laSbmCxk45wcex5rrijlkyeOC3DyEJyEz8hI5PpTj8uCCV24+Tknb0wc/pTyJN0uB1wB6469qUxSOqD7oK4cgkHA55JrUghjlnVwgiyjc5zj73IAp2ZMYKqd2G+XjBBxnn0pd0US7VDOyYICDOcgjPNIHcMrMEGzoMnJJbIHp60APc9/mYnbkZwOnBINSqJCiMSQQ4wBz3yBVfEsyhm3LEpOETHI6cnNSMy7TsG35snGWwo78mkArqHUyMyBvMIQOQA2OO/PvTfNsrSaDzZU2nCLnIXeQXyWbjsaWAu8oYfdUMAWAycLngHn0qtdK8hEaQyy+YrDLY29doznj8OtJu2oHl/jJbx9ZuLye4gnjumb7KYGJWOGM7VjIPQjvz7965qut8a3UxurLTZLUxtYxFmnc5a5aYBtwx8u0cD65rk/l9T+Q/xrN7gXdOhFxqGnQsiust3boyMdqupcZUn3FezxrKN5ihTZBCkdujgqgckDgDp7CvH9Cmgt9Z0eacAxJdxbs4+Usdofn+6SD+Fe3QrHGiwhsyKzGRupLEZye1XBXEybaIlJmkLPKdxZwMnHygIi9MUgf52QJ0cFB1Z1PG41XuiXurSM4+55jHJ/dop7n37VaUqDNIAc4UZGctn3NakdBvmBvOUffAKGTGFJB5CjrVVkeJlLv+7ZcMvJaM/wtj3qVNyvuZgpL7UXPrzUgRnkkJUAL94t/Fng5pNXAYoWKJ3yckKoHfnrUk8pt4ZZkjL7EEhUnk4HOKiThIo4zwz8t1IA75qf5TuBJYdWJ+6QeMYp9LDIUlS7jinQ5hlIZeeTt/h2jvUo3Y5G1NwOT2A9qrWtrJaTXSpg2cn71F6NFJ0Kgeh/pVh23YVTgAYYryQfx4qY3a97cQ4lFV+jfKzAMcZz06djWeF1d44mc2YZ5Qf+WxAUnO0DufSrIwu4EcysWAZtxwPWnryU6kqSV+vTim1cZUli1F59/wBriSJcbYVh34I6jcxz9atxq820s/TP3RjGOwpUQF2ZlOQxVUz24yTj1pAWYsgHAOMZwMEYPvSUUgJHcbiIgWOQOD3PU5NIcAOSdqqUJwTkgnFCAK2ORiPGAOSfQ0hypcEfMwBAJ6dugqwIX3zSQhgVRTyp6BD6/XFKfkJQDb5mCiDPJJ6nAqZVwxBOTlGY+hIwOlMTZvkcnJUHBPUsetIBMNLsPKooJOBjKg9aV9it8q84yxI654ABpFLsI9qkMoI9sH2o+cbTjLISUUdWYjO3J/WmAxmkKyeWoXOBnpk45wOtG0vEkROFwpcZ/wBZ9cVI21YzggktyScDJPJNV5ZsBWDso2k4RfmPHqfTtVCECJHeRTFgHWSNBjJJToBWneP5doT/ABbXP5E4rCs7q1unXYXBWVWc+W20E9AGbv61L4hv2trR1BzJIEiiA6l29K7MO01zLYSV3Y5q8mE06QK3Qldw/h5+dx7noPpW4kDW0RwuLy6jVMf8+1uBhU+vrXPWbwxXaSkbjEqlQ/QuBks2ewqe/wBV81XAlaOFyfNmH+tn9ViHp713wk+U03d2VbtEmn+yWSCd0bM8rcxqx65ammGxtCBPeFrh8ALCoeQ+yiktY9V1LFrpds0duDhmHyqB/eeT1rRS00rRMbmjvtVc8LGC0cbe+MsTUSs2Vclg8qwtJpWE3m3SEQicrv5GN21RwBU1nJFFAAxJcfeAOMEnPen2ej6nfy/bNS3RRHDBG4lkx0G3oAOwqvq93DFqVvY28UYiSFRPt/hJyQT6muTFRvT00SEtWaKXCAI2A3OET3J9TTneaQgM2CXO47sBVHYCssSRMcs78YwqewxwBU6YXBBIHG0ZyxJ715NyrF9zO7AttRAygKhGSSMDmrGNmH8wZIVcMOw52qBVGJZcqBkFQcg9ST3NWSpGWb5mXCkseAT6VaJJAwJeMA4bceBtHHJ59KytdCppWvhM5+wE/LnkblB5rTk3nLqFZljGxeQgx6/XrVHxEWTw7rcw6m18sYGMfMu7GKJbMFujkLJEaGIygSysAqAnIUHjjGK0yvlh0+U/KGwBnHAHXNZ+lmJoI5GIwYwwwcHnjrVudx+4FtHu3l0OWYbgMKCD6/hXmnf1LRZjCoVWySyjb8uF6ZpqwrJFgLzw0j98LycE08b1RbZRiYqAWP3FLnB9TnH86JMRW6woQAVYO5OOR3NADLmZFikiRuI9u4k53Z5A+tBtmeAMV/fGPO4Eqwwd/GPTio1WPbAFAZmZDhs4OSQCf89quzS4RY42wxTbldoVSMjqaAKdsu2NllCLMDj7vLAd845z6U4tJIxJckAYXao+Y9ABn0qIq24Ksp8mMKzyMeXL8kjPP0p0M2GkkwSIU2wq3c5PzY5pAK7NG5QY3oAjbScDvyfalkW6lQqigjy85ONoJIGTSW9tIW3ytkn+AcfM/OXIrUIRVBDIkcackEAEgd+1MRnOIY7C4WV8xKsaY5GW7frVSwGVULjAHQ4yKo6lukugv2hZFyJWCMSsZ7pjpWhYRsSAdpU45HB/KtaaIk9DbgQsA3IAOCc9Qa0FCBVOTkEnd15PYVU81YY93lnZlA+VJzzjA7VTXV4ZLkIFVLZN3n7jlzJ0AyTgAewrpc4w3OVs3gw5Yk4UADtuOcc01Z1KsGLbpDhO33eOM1XuXeTTJ5bYYeSGQxPxnvhsDnpz0rgRIS0Rkkd5EI2s0jO3ruUk1Fav7NpWuS3Y9HiLKG4JLKFwMDB6Y5puGJkUBiVyOOO+3I/pVWwvDdWVtOxbzjwu4kEupJBJ9KvhvMCsDtQqWOP4up71vF8yuhigbV8sKW2ncF3ZUEgtzikYBHRnkXBXe2B/EoyRn0FJDvk82ZsBFIRQDjgcVGqSszJkkEKAQAcZ68mmBIs7sSYojyWWMtkKAe+DU8EU+xt7FASW3sB949l9zUY8hLiMSSZKKoCKcktyeTUkt3Clrc3MrCO2tkkfccgFVUngmhCZ5d8QkhTV7Ly3kZpLCOSTzHDAN5sigKo6DiuOq9q+oNquoXN6VKiUqEUnO1EAVRmqFYvVjJV+8nb5l/nXu1vcRW0H2m5dcSqNiA/NIQMZOPpXhGcYYdQQw/DmvZ7NptSjLlFW28mFYdwHBKqx2/jVQeomadmsk/nXtyVCyKWiToqopOKtM4VS7AuSAygcLk9AAaYq7FAK5KxhccBUUDnHvTZpWSBD5ZYkeWgLZbk5J24zW2yI3HKyCR2ZceUM7iePm7DNOkkVVLhSfM4XJIyCe1VrMXUkt3PPGAu7CK7cZC4JA6YFFwzsqEHdiRY5CBgccqEA7Ur6DJYvMdSoxkuwbbnhBxhMfqanBCR5Yop3YQZ4XJxj3JptuqqJP9YSu3PGMk/MNuetMWJDeSTEufKUxhTyodlBJ/AY/On6CJxnYQPvEsCevbvUSI3l4BOfm7c88/rSOJCjbXCuwIjOARk9MjqapWWoSTyz2s6CK8h4ljUfIyg/6xM9v896Tkk0mMuxRqpIOCxQjJ9B9KdvAClOSvQjuDx2pg8xmc5AjwAnRd2eufYVIu4bXGMj5T3wOxxTQDViwzSqD5hVYy+W5XJY8ZxTtwQsqgDPG4547U7c+1e+HI/3jjoM1Eqt5nbbkkdeppgSoCpkIBOAM5Bxk896AGLbsZyM88jI7ZoyQG7tuGTkgY74prluBkgFSBgYA9hQA0cljuxkku3c8Y4x+QqOI4yowc7gPTqc0r5WMgkjgD6GkXYoTI642DHP1pAOBCbpHOAgJbnpgZNRLNHcL9ohUiHYBE0gKFg3LOAeee1Tna0ZZgGPJ24ypHQgimgFhgYBI3ewBxQAyTiHJHGV2gds89KrvGjHLRqShXG/L4I6g54qRyZg2C7ANlQF439OSfSq7hQGDyIMgluc4A6kk8UeoDwyb3kYjZGVVOcIpyNwQDisDU7y1vNS3NcRiK0QsilvmknfKqqqOTjknipNQ1WGGM26SRI8hG+WXOyIdhgc/SuWg1C3t7mYoHuZySzSquwEe2eailjLytDWK6+Y4K9zag0nUbtnYIsEDHJkuDt3D2Tritm08P6PEwknc3s+Os77IFx/soM4rBj11ztJtS3J+8wJGOxBrQh8SbQV+xsBnsYwCPYqAa9CGJjsy2jp2sY5IxHNeNDbAcW9iqW0WPRnOXP6U2OXwxpQYxNZwt/E+5ZJT9ZGJNYkeraHdHbd2ajOMmXeRz7g1aXTPCF1yltGjHp5btn8ia6FNS+HX5mfKF94qsCrpal5G6ZQE5/4EeK5J7kPNNdTYQyOGcsflHRQMn8K6C88KQSLIbG9Kkj/AFbfIR3+Vl5H5Vz9zY3Fmzrd5EYVAR5ZkLHd94ED6VxYlVpKzVkbQ5ehqxSgIMBMdiOCSe2a0I25U7QdoGMDA9Tz+lYcG3fmPft44bHBAxkAVs2ylslmICjPXrXAipGhbhgZJJSSzDIXsqjpUu3PcE7yQOgB9c1Cn3kIyc8/hjpVsE43AD2B471ojIRjsjLYABZQo5JJPoKzfEjY8O6umfmKbWU9UztPatSUxxoJHflvnyecn0QVl61GJtG1qQ5/48ZJG64yOQaJbMcd0cZYPI0Fuitt3BY2JXnav6VsyZAjCsq+Uv3m4IGeuOtZGlH93CWA2gL+YxitaAtLLKzgkA7DtAAC8k4z+VeadwY3O0pY7SEVOMFsfeOOtDoXlwVHB3ruzsVccfKOM0rlWnjVUGA6+YSeAMZyT6etOlHmPJuk+QSRqNg+8AOxoAZM4MqNGsjEqm1cck9M8Usy4BEYUyMwhOBkD+J3ZunFOkdI5yFI2E5YLk9OMZHPFJNI24WsC4cKWcjqu75vzpAIY96LhQq7ySz4yR0yFNOt1jUyTOf9X+72jGRu6/jTsDCxBsuq4YjHB6c55pIxCisHyVLneVDYb2J6UwJQ+8k8KN+W2843DAp6qJmnhU4EsUkasAG8v+HPIxn8KhjEYilfGFDlsccheMHmnfadhhKrtXILBBjcvXHrQI5q0tpRK8TjDQsysfTaSOMVuaeVR+e3AHr7iqrWO2V2dWwXZYkwQMOxcE9884q1aGMMqlTkHb07VtTepnNaF+4gurw24hkVFSdHmDgneoH3Rj/P5Vg3Vld2N4N1qJ4nyV4Lo3YlxGTg98GushkEaN5aBgozgttLN1AHaqNjdaOJ78XTrDOk8rEzMwZlbnv+Q4rScIytdnLIu6bdRXUaxNHskjRUZQcbGwBwP5cU2Tw9pr3DzywoTkkhY2BJAzng4/SuctDdXGuLJaEhRcxyOwyY/JBBJk7cj9a75mJkDDKq0e5+McA9MGqpNVF7y2FuUktwmI8CONFBjGMcd6kC7zhceSuOBx8ueASKJXKFujtIm4buo9hiljEvlZ2bfmXI3ZyMelbjHKGjtiuAqq7E46MScdD2FRrCwcbizFegJGBgY4A4p8rmQA8lUIyoxjINOhWSVzIy4+QEAk8ZOckDv6UgIpERVVsoZOpCheB7k/ia43xtq+prarpkcLLbzIrzShWIKB+FQgbcdMnPtjnnuiMSoDgLywQDlmI2rnNSGOEqpnWFlAPDKGUN64PpRy3E3Y+eqK3vF1tZ2viDU4bSNI4cwyCNAFVGkiV2AVeByelYVY7DHYr2PwxqAu9N0eUv5kgtTbOFTbskh4JIGB6V45Xsvh6J9N0XTQEXzlt4ZDhMcynzCMDuc8/SrhuJm38yvG0zMskgCbOyYOMnHGTUeQXZ23COFWcL1LsTjGetRxxSS3EdzI6s0YLsrkkJnjB9/wAKf5sUM0cTygvLJ5m0537RyMr1xWpJLNNHGtmsreUt0/lRIB+8Y4yeB0FBXzI5/LGAdpQdTlBnjPemzWvmy/aXbdM6iOEkYSBM7vXvzmkLKfKjj5IZhz1JI2nAoAmjkhPkvCzMQpHHQgDvntQiuvUEs5eQ5JwNxJp8EEFquxMHbgHjIz6Ch2XH8W52baO/1wKdhegqAuAegGRuzyfpmoLi0tXljuWjUXMMbJG4JDYPJBIIzmp2Mqog4QsABjrz2pAAzNjohBHGSfck0NJ7gRLJhVLRkMUDOhIwmB93jipIJFnjklRgVaZuV6fJ8uKYSBKoLALkEjj6nJ9akjKqrgA4aSRlH3QcsTk/WgYrD5VC9mzk+3Wm4GXkBJyMnsDt54/z2pVyx5HGMY5GSf6U2ZesbEgYBAQkE4OeCKYDYZvPjWZQ4DjKhhjgHG7HvT9xJ5OMNkZ6ntwBUMcKReYVaX94yHDOxAHoM9Keqoo6kcFt3O7A75PNJX6gEgACs54ycBv730FQqTK+7LFRgHA2jPTAobM7FiCkQf8AdLzvYD+NialTaBGBgDbk4J59qAB2bcQAcIQo7LjvtApVUL0ByVOWY9AeMAdc0hdEQyzSKAMn5jgY6DAFc/fa9LIJYtPXcQSJLg5Eac9Fx1PtWdSrGGj37Ek2oagmnorSyohXIERy0kmSeVCmuevdWumGShVm2+XAikrCD0kn2/xdwO1MW2ea4Z2LTXSnLyyfMIM9Cw6bv7o7Vu2tpFAqKFOGOXLDczE9Sx9TXnuM8S9XaJVr7nP2ekwXim5knFyS2XAbIDHnkda0DpdnsjmiClsYQj+IDqDWwkEELbooURn5k2IoLbf72KJAodUC5Y7m+UdFIzg4712wgoq1izAeyUEYAwPmBxgn8qQWwXORjd6fw89cVsm3YlC2Gy+AMcKOtKIQ7PtAyGK89DxmtEMx/suQuT14Bzxn2phgmQx4LDDHlSR05rZEIIZdoHcZ7Y9qa0GCnpt4zVbCKP2vVIwcSlwACFkw/HsTz+tNuL66nhME0SuCVYOSSwPoK0mtw0YITc3QjIU7fWqExSMqjq43nAIUsvHqRWjxE4K1xrUitYWxnlenBOfyNaycKvbAPP19agWEKoI+8Rx6VaQLwrdFI3AevvXMW2TwsFEYAYkjkn3q/DGfkz1DlvmPGD7CqkAPG1eSTuPZR9TV1CoLHOX29F9T7mtImbKly0bTRJnKwJtYYP3mPTAqXVopH0bXEjBaZ9OnVUXkcLkAD14qHfELry+FbDTHvnYMMf1rXhKAogGRIgyT3UDpTjrcTdjyfTXDRRjJAVRx/UVuRPI+Y0TbEmck4CgDnknnPeuftN6S3EQCjyp5UAPUbXIrdg8x1KAfe5YAj5e/evLPQY7DunYCVgCcYJA65Pp9KWQAdHJOAkYUfdJOeP1pwUtkkMEQALlsZ9SB60uEE3PLkcDcGEY9KAGyKwjhAVlyVViuCx+n1p6JGDKyqN4XLsxJb1xz+tE77mRt3AI6kDIxk4FNiYN57Jt2EgBmJ49aAEt1VHLlQqEcBw2WNLM24RxIAQcZwuBuPPU0sjh3hUchcnjgMemaGaRXQEptwBxkhTnpSAdjaI4idzFDvC4AXAztp8YVW+cH5QrqABn05pm6KBFk4Zt2WY92bkr61Iqyu0khIXoc9exA4FMQirK88U0oO3zflAPBA5zzVQfubptpBXczAZ42lj0q+0sXMYfdIiAAYzkt1Y9vWse4ZkuxGQPlSMEdcZG7tVxdmKWx0EThgoAY/wAQIHy/hT5dN0u9lLzwK0pCAvgqxC9M7SKpWcnAI9OeuPpWxEMlSoJyAMjsvrXXZNanKya1tIYAwRVVVPyoFCjjuQv9alLBiSWXnJwBnrwFoZ41KhTyBkgnczf0o81SC7bUAUfhj0xWuxBEwILvzkcknjA6YAB6U5mKxBnx8+GVQSFwoxuNRhw6s5BOW3YOQAPpSEpJ8znIHUcngAn/APVSGPEI4IfaDnaM4UnGc4qzEHCM0jnYuSWBAyAMYyOKjt4nlc5yoBRVyRwNvPWludssixIMQxkFQ33cryzN7ULa4vIitpEa6Tbl1dskscnKjgD2qLV9VtdJge9vvNdUcRxpEm7BfoePl+mSP8Z7RY45JpNwO0bdxwPfCirMoW6EkAjVoZ1aOcSAFHjZcHcP5U0tBPc8G1G7N/fX16UCfabiSbb6BjkA+/rVWtzxRo8Oh6tNZwOz27xRXNuXILCOTPysR6EEVh1gMfXbaF4wmtrfTtKWxEspmjtopWmIVImO1eGBORn1x+VcVXbeDPD8V0o1ibbJ5UzxW0J6LIgB81z7dhiqje+gHoOno8QvMlTI7KSzZOOopVtyl2rqhkaVt8jngKAOOB6dKfCREVDlVMr7V5+Ztoznj8aswnzHYJyMc46YHHBrdLQjzGXEUrvA3mYjzvkA7kjhRjtRHBEkzNnkrksfXoAKkBiRWAO5lcqMtwC3c/0qBFLFxuO1Cj5OcnPOBQItMMZOSWcD8AOc46UihAWkJzj5Qfc9hmlIOGYYBIGC38K8EsaagAVCMnndk+hPB5pgIAzPFuHIYkA87MZGTT1A3MBzjHQdQOaQkncUP3ztB68fhRI3lqEBwflDADnntQAj7BjGN24KCRxk80Oyxc5w20gM3Yd8CmTFowXVNzFP3cYALO/br0HuaqraSO6XV7J5syHcqL/qUOB0Xuf84qJSadkhl1diktljuYZyfUYqG9HmhB5kqGQYDRcOB7Eg9fpUgIMbyOCQrABTwWLcDmgruyz7dwwc44/D2qnqrAQFVGwZkckYLSOSTj1x8v6U6R1Hy7u2CR6dgKjuJUgjSRuEYHazYAU9TweK4i/v7tri8dLot5jjylidiFHoQo/DrXNUxEYaR1YHayTxR4VpUQkcl2UYB9iayrrXrVHaGzDXVx/diAKjjuRwB+NcxDaXV3tkvywTJ+SMjcyjuz5JAP0q5JLBCqW1tFtGTtigHzSeme/4k1m6s3G8vd/Fi9Sa7/tC7IN5Mv3Qxggb5EXsJJBj8hgVADPMqJaRstuCFaZAFAXoRAD/ADqe309pwJLxgEzuW3Q/IMd5W7n9K1VUbAsS4RCBk9cDso9KiNHm30X4v1KSIrS0SERoq7VJU8cnPcknuavlcNGnOxCdxzgHJzxRCBwflGe/ZRjrz3ocgGUuDg4WNfQ/3jXWkkrIoUMN8g4PcAenYU1co3mHknOO3JOOBUkkZ3ybRhFVWZsHGQMgD605toUHkIirn+8zHnFUBCQ/OF4HGT0BPU0RxEsyrhioycdFzgVbVPNjUAZwccHsTnBphIjL/MoY45HTbjHNOwiEorMpGTxjOO/XBzSeUHfBOEXpj+I4z1q1MihN4OON+B3I78VCJIwilsKSCAufm55xTAaoUqS2AuCAew7cVQBD+Yy48slvLJ5LAcYNX227UVshdjnPYYGOn41G8W1bdVQ7kVQoA/HJqHdjRBs+SM/xEbjjtT0RcufcEdyTnOameLG4u2XIC7F4ADdMUix7eSPmHG3PTtg0hk0XzA9hhQRn07mp1yMMoA4PbqRxzmooflDHaeNrYHUj2qRncMoAwC+Rjnp61oiTO5l1C5b+7GsAHI27jvcn68VvRZ/dhRgJhD+AGAKzorcmRtvGS8jsejMSOmfy/Crhcfu1BOAdx+vTtRBWEzzGYIms60iMRGt/dgFxg4MhJ4rWgkWNFRMcqS7fUdaz9cRh4m1dV43NBIQw/vRIf1qzA5VUKqrMVKDOQBnj7oNebLSTPQWsUTtIAEX5sHDEIMkjp+VOIchtoEYLbc4G4+2aG3CTAAIZQm7GSe+FFO+RgokYBUwHyeQQc849e1SMPJiQNIxaRh8pOcqPbNMVl8qJU6OeAmMEnIzn/wCvUV/diG0uVjyN6OVYj7oK4wAO9LpUL/ZLGSZ9qiGM4LYHqMfWgCVQUR0JUSM2EjUbn2/7RFOKIGPnFsKECxr/ABMRnoP8al82LfvUlm3qGI6EnggD2qFpGfZIE3NuYHn7u3gFiKAGTGR/ILIFTe2FB5cnjr6CrLSOIlRFYnOGKjA44PJ9KruN22R3JK5VFXACk85P41PGWle2ReW2lWxjAUnk5oAcllhNxcrI3zMU5CpxkLnjPvisq78tL4rESSoXzGclmZiMknd3rd3IGVOWKEkkEHLdh6VzF3Iz6jcMQc+cVA74UBapEs3bXABJ5yM4HXP06VqWzSyAF2KgDoOPlxmsm0XiPJIUDPufpitmIMVTI+XjIzzjPeuyJzSLEjx5jUbSSQg5OcH6UFZXkKqvyxbVQcBWJ5PJoiETO5AZ5FB5blQBT3OMqFJkbHygZCfnxWpmN2kZQAdQHdjx+nWmxlQ+wEuASORgFgenHOKtEbEIQKF243N3c9hSqiKYnYgszjPYdOtIZNDlXLkhi5+UAdSO5z0FVRG4FwG5Y7kByAMN3qw1zCGdVbAfCjrxzniqzXULMyBzgvukZh07cD2puwlcjjtcSRxtjbtLupPU9ySPwq8PMUqkKAdwBwCvPU1Xt3WVo/LQqyldzOcnbnOSPWrlxMgaDyygOSTk43EjHFVHYlni/i8z/wDCRaqsxGY2hRAHLhYxEhUZP1yR6msCui8ZyWkviG/e3bcdsC3DAkg3CoFcDPpwPwrna53uUSV6V8PUmbT795JdtrFcSMAcHkRjdtrzeLy/Nh8wFo/Mj8xQcFl3DIzXtenw2dpZXi28UcNtgKoUBRuf6VUNxPYlg/5YXDAfPwgOScOcDAHetS3yRIRgFjtJHQD0rPTmCIKDujTIJznnoQKuRPi2SRsLjAVecAk46DmtYksZArGSYsMZlwueyjjNTzbUZeQq7gpHVmJ9KqD/AI+ILdWcsB5kvBz8xzyauXKjEYBwSeSOp9BVdBdRSfNBwMjgMM8ZHY0fLj5s5BAHt2GAKam/HlphVB+b12jrikdlVcDJxx8o+Yk9QKAFkkCKu35cBivTPDDIGahyX8vaMnlm7nJ46mogrvKo25ZQRg87Qxzk4/Sra8SYC8RgHnscelLcew5kzsJbGDlsck9sVEM7JDyMNxu7AnsKfu3eYuOn3iffnimzNtCKrKvKktjr2wM/pTAGOTtydq4Y44yeMCoxlvMZ87R2J5PGKU8HrjcATnknJAAoZcsFLNtAH4++KQyhqGnR36xrIzHaoK5J2qevyqOKorolvDHLJ5bFIgZJGA4Vc8Emuhd414H8K8j3PTJqpe2y3ls0LkiNsMRuKq3pu9R7VEo/y7hc5KWdJWaK2KhR8rOcEfQY61YtrZUIVFG9wWZ2PzNjjBNW10uGPyhGowoBOB+AyavJaCLeWJPQg+g67QRWMKVnzPVjskV0jQIT/CD0/wDrVOg2k/LkHIwOSR0FOl8uBVmlVym/YfLXOFY4ywHpVhFRN2SDIpbHoQ3Q1tYCAxkFs9MjYoPUnjrUhCnfvGQBhcfxODgLTyrSKMDB2EH3b2pqHckiRjc0BJBI4z6k0WAdkkyGXPzIABzjI6gZqNFeXCqPkzjPbA4yTStDO4hUvjd99jzs49u5q2oRQscWMnhMjjb0OadgEHylo1GRtBB6AD37VXkj3vvYr+7A+7z0GKlPmsk2x8sfkJI6c9sUiwhEEbPneSCQfmJxzgUxAuWgV3OAGGwDlnIPJqGaGKR1LKvD8MQN/wA3ZTUu7ZhMY+UooByVPeiJQgBK75N/A6hcDAJNG4yhK0639nFn9zLuOx03AqhDE7uKub8SOQMt8x47Z9adNExZ3KrvCBFc4yBnOB7UgCKqRqC7Nh2Ze/1NSla4EO1sIvGWOeueetPALYCnowycdQOepp+Y180uwzHwQD3Y5xmowS2wnPRmwuQAD2pjJFOHkVfveWucnPTjFPYgtHEOWwXYjsB2FRRRkMffLYzk4zmnsyqzuvQgAADkjPUmmIiuJQbUKHZXJD5TJYbTkDj8qs2qs0cby5LMA2P7p69KhijGcuTgDCrnA5OcmszVte/sm3KxLHJfTSN9jiYEptU4Mr45wP1NK6jqxqLeiOS1d5JvEuuO5yUuPJHskaKoFaFusbMgA6Aknpj6VkW8Ny80lxcNvmnlMksjdWdjuJrcULGEGcn77Z44xwK82Tu2zvSskhxdAcDcNpKrkjp6mmu0RI+ckDk/KRnHHQU5YkkE3PCkEcdON3IpIgj4zwAW3M3cD/PNICteRSXMSW8ecHHmYIXjevOe4AzxT1zDO2ebfnKfwI+cjHse4qWV4YIZ2kKJ8jr8x2nb1AFN8qSZJ0JChVU9xuDdVHPbB5oEBkDEYG5uQOCEjUckkD/P9V3KFl2gqowNozl/c0+FEiZctuAXOW+8T1G6mFtzzgcIC23HVieT/OgYkkiRqEyDtIab0weAv1qS1kd32xoQPLZCzAjaOtVJVCFi0bFAVOQcbz3yRVmOfYIo1U7ur7MlRkZxQBZUp5rbc7QCXbGM+prnjItzfTTAkB5C654OGAAroDvt7e9upOMRtheBjI2qCfU56VzlmjNPkEBcYxjqc9jVxWpLZ0VqCNm4ng87R2rXt9jDODjkfieM1n2sf3eOoweOK0YAiqQ/AJyevbtXZE5pE6PsZimMgKSMHJwaly/zbsr8vmPjHAY8DPrTchFVsHcV3Ku3PHqRT4vMY4OAzx88crt6E4q0QV5ZJHII3qqnCAL3PU5IpkMd8rSAzPMhLMokRQRuORgjGAOatTKB5ecl2+6BwFXnNKksKljwML0zx+NAiK3hlRlkdDwDy3Ut3NOjsyzNvRS3IwCSdxO7cSKPtIKMx3dS3XAyD/KpUuhF5flgszkEBh049BT0DUsQpFE5jCE7VzL2zkZOazpI7m4vC6Dy9w46MABwDj0FSSXTmaEjcd5YEKMb26dPSrUIVBIzMN6rhyB0yCMA09ydjxLxBYvpusanaM8kmybeJJRhpBKBJuPGO9ZVdR44k8zXAxILfYbUPjs2GwD+GK5esHuUP9a9x0mJJdJtnkyyyy27jcOX2oGPFeHV6R4a1lrvSEsxPKk+nKIxEhyvlluG5Hf61UdAZ2s01tEhyWBJHygdug6dhUsauqxnewjO6RS4xjA7rWYLN5Gt2YuN5XJc/M3GW+WrzyKJdi8/wEkgkEcY9K1VyGh9uY9zMjFmL4Lbcltwwck04w3CDzFZzgllWb5zz1AI5xREzoowFwCR6YxxVWW+u5XeGADbvClx3UYyQTQ/MLXL8UitGSqqpDYkB6p3xScAgMdsY3EkEZJI45qsEZn8x8KikSEKc+YycZapy2QC5+YjdtAz+NNX6hYfHgN8qFV6Hj731JpRgNIQGwQWI4ye1R+a5DcYAVQg9WHcmkXgjc2WIGT2/CncBzmX7MfKISQHC98nOSCapQ3sF55kZQiW3OyaJx86kcdDVkbmyCTtRm4/vHjgVD9ntzcxXu0LKqOgdCRuVuMN2NQ073QEqrIJMuBsCgJzkg+/+NMMhc7VIPz+nB/3jS5d28sH74IyT1J6570kapEsaqdxRgM49TjNMZKVLFs5b5x2wOKfKD5ZP3sLyO/1oiOS4XGNx6cksetLKyxoVLcdWJ64HYCqEVNu5SgIwXBbbyFz6mnlUBAP3VIUD/GmW4JdwBhWyVOeSWqxsRIy7ZLZATJ43Y7YqVqMYEbBx0ODj1HrTFjBaRj12YI4GR2qdQMAknIAHTp61HxkcclsHsOOfypgRkNIwVSVTawIGBwPSnBY1U/OANoG0dD9aHG1TgcgdemRzjigopWFnOBglhwBzyCaQDEkWVpURCUfDAZI6cbuKppcyW0zRXUih1O2NmTCsGPQuOOK0I9qyRxxddrFnPoRkVDOsSkwOnnl9vmAru6nqR0pNPdMCRCGZQG/dn7x7MeoxSBl35yuSSo29RzTVKDEcKZVQVjAGAuOKnVAgXCgEjB5AHHU0wIQFScqFHAz0zj1NCyOkkij7u3eo4LMc5JJpryRhyyDO5QOOg5waeoIAYg73PHGAoHc0DGPGZWWSQkhuVX8utSADDOxIUDaQvGeeBTd+G2Dr6+g9Bmo2BJMY3OSBvOflB5OKAEyobCryGyM/dUEfeJpqsOQWyfmHy/3T0NSbAsfmEcybgPQcdaSHYFcFcLgKPfFIYi5YjarHACqe2PUmnNhyy7gPlGcfXoAKUN5ajceFUEgDnB9aRiBggFchhjpyeaBDUXcRgkKcnLHJYjmue8SWsj3Ol3IUFNksW7sskjblB/AE10pCCFip/eou098ZPTisfxNcpHpTqoYu81oq7R90lhyT+dRUV4M0pu0kYiRAeSo5ySCenPtU+wh5MpyylFI6Djrg0xH+VH2sIxGQBjG5uB9akaVUKt0JLE4OXYt/DXnnYKruu/IX502nOOo6lgKZFHnDluOXY9g3UAZ/WmxFXO5lyzEhhzknsMVNHhADIOACAueM5xk0AMm8rKyAKzlNsYYA/O33mI+mP8AJpG3ZkckZRFYAk4bb2IokjG1eoLyKOOCR6/j3qYrEA0ZAZnBUAcHjmgCJEecl2OVU8beOQflzUkoEUsEaKvzBkYgdA3J6frSBsqyp3ZS2PlVc+hFNYiXPljnJQyuemB2HSgB82x4ML8zbwGwNqjJxktUdrE7TqZJAo5CoM7jj+LI4/z+UgAGyPcirtUnPzEt14ApftEKFT7NnA5LZ9RR5gQ6rDEbOZwGDF4yGYklmJAIOf0rM05V53AcNgf/AF6u6i801pcEKyRRbXIPG5iwA/KodMVXXpyf881pDciR0NuABGSQAP73+FXFdN4UDIPBYjj6gVRRAqrhmyD0ByTV6NCVjIILMONoPGPc12ROVllDuVnJ2jJUHvj1xSCRVYsCGbA4BznHNNKrHERtLO2NgPOM9etCh0VXdWCuh5bHarELOGZvM3AADCjPcjGfwoCOqqkSbhs3sxUEHjPzZqNMzsu8nywQWZhgcHsKsPcrtYQIxZgUj446YB+n+e9AipDEzJM0pG1goUdMdzwKli2qrHaf41yoJCjHdugpFyWWNFwsedpJwGJ5yanjbqHXIG5cL0JPHNAFctIVhMaABMbmIGcegFZut67Ho+mTStG32iaQxWqOrAvJjJJPTC9f/wBfG6y7GRQDggliRwNvIArhPH+q2b29ppcUivcC4FzcBCCIQisqo3uck/h70PRCPPpJJZpJJZXZ5JGLO7kszE9yTTKWkrAY+uj8I3Aivb2LODcWbBPlLBmiPmbSR0yAa5yur8BP/wAT77OWUR3dldQyKx4b5QwwPUYzTjqweh6C9wUFgFmYyMGWYKMklgCtaSx29uwMrAuy7yD/AAnqWIFZaLb2U0tuUDyOT5bE5CMcenOa1YlBjTeFUhmV2YHLEc/xc1vEliHMqv5gYK53qnK8DgFz1qWCOCNSAFLKrBtuSqDrwTRuhyVLggqcAeue5H8qhNyyzraQRAq8Supzyz5x1IxzTuluInjPykZJ4cH056YzS7dixsctIQIwM8e7NUVtI8jyO+UWD9w8ZGAD1yM1IQpfJJPXcBnAXrTAftIwxZQmc+v86a6bpgzYwMY9Bz7UPtZgcYVl9TyO3NIr5JPOAQAOc/WgBzkEOBwH4JHGPpVc7UjXpnB25OBmrTbFXbgHAyeuPzqtN5jKMKu0DgdyfShghqKMowzk42HPLE9TxVhFyoG3OD0b9Mmq6b1VTKuyM5+ZcsTgdWPYVOGG/GRtPTnr9MdqSGSZ2bAOWYnO3gYHXFQ3LEBcBBnouf4j6nrT0Ku3b5OMdgTyagIaV1YgBVYqgxxkcZpvYQ6HZECzKzELkZ6sfUD0p2HaQ7+oUMoGevTNIV5ODksQm7+LGckCn8g7V+8Mbm/pzQA8EANkjbt28dSc81Cok+ZnOOWZUBxgH1qVWARTxgHDE/oagkMhEvHAGTnqR6YoYCPlkLMRncNgxwR0yaidd5TcSckgJjGM9M1L+8KxsSByAqgZ/EmmHOWPO4Eufp0GakomVVEZAOJCApc8bfpUH7uN1i3ctkEr1OeAzEn8qdJvl2oGCJzuPfNNJgj8kKjOIhndnCk7up+lDEiWALEszlG++dueC/YYFQu8s0sQdkCAEOsZJBP93PtUsh3zK8nESjeFJ7sOOKRAoWU4KgdGb7xzzwKAEO0L5uAI0OEUAche59qjZ2d1Y52FwBuJ+Yn5uB6U9SDAmQSFJwpySSCfmb2psStJjdgsFwo+vPWgYyQ/OccBGG4jq5POBSSufLKjA5AHPBPcGlmkji8yWcqqplQuQo+lU/sd7feTJLLJawbxKsUQUPIg7NvHAP0/nWUpNPljqwLhZSkJzuVEIyuQmSetJiRgpJwoHXAUKB3/ABqwsQ8uCDGRGVyTjmq12rsFRDjdPEpLcjG8E5x7Cqm2lcCyY0BG4ZBxnuD271FJt3gc5RiG743dhipmYgNIx43naD1PoABUaqRkn+IFwR9PU1QDGkkEC7I9vzMeoGVPAJrF1u2nktYJZHCwrdQtMo6v8pSIc+9bjLnyi2P93OABjvVfVAJNM1JcK7rA9xHu4AaL51YY9O1TNXiy4u0kcw7ErGu0BFVvMLH3qZfJKnbGpUbcdcntkVRd/MgjldsRuOQvU8Zxz3q007RBI8Jv8sN5S/eUdhkd/wAK847SaIuP4lB+YcDPHTHpTHAaSNSFxJkyKegz3PvUMLyPklJUBcn58YHfGFPap1RdhlLDzMZGcYCnv+PamA+TYjYBBIVeeeO3GKYgbhusgAHPTa3bNK7IAkuATnGCQfvcAsB2phG0MN5Z3xjHYDjgUgHFxvt4kHCl89NoGKYpjj3QK+1slzj5mB9T9aTa6SIFCjcuMnJZs84p8iMuHLY3DAwPm+U9eKAG4Q8gknofXp2p2xFVO+TnC8/L061LGmQByEzkKmCzE93JqIuzMkfIjjZxycYVRnPFAEeozRi2ePcN0rKAPUDkj0qppqLuBVmX6ehqnrImMcFyA6woxhCsQMk5YNj3pujSymUKXBaQjbkHHuBiqjJJpGcn0Oxgjx03HkZz2+hq/G/lrsVeeMYrMiW6KhVdMDHB4z9cGr0KTb9+5SSCGJ5CgdlFd8TmZcV+SQh3hjhm5GccgVII0aSNn3MIlJDMQEyR71BGJGkAzlAhwMjAJHeoQt6LiKXzYjbkESQMj793AUo4OPwIqiSxvxuwdzu2UXB24GRilWM7RlhlRtJBHHPJyazpTqUk6+VthgjO+4mbDu2Wx5aL16c5/Sre792C7k7uFAByc9OP1oAnYWwjkAcB/lCBPvkemRSho4BJ5jjeyYZQMbSecfWog8dsQqqvyqfMlOOT1wKhADjczcs5c56kdgMUXCxLPNK4iXoXByF6heOa4fxZ4baaK/123Y7otn2mJjktGuI/MXA6jjPPr6V3JhdtkajBY4Pb5cnvT3tHkgvbMSFPPtpoC6gHY0qFN2PxotzC2PBKSr2qaZe6Re3FjdriWI8MuSkqHlZEPof89Ko1gMfW54TnW217TpWYKB5oyenKEYzWHW94Rt3uNdsSCVSASTyNtDYUKRjnjkkCmtwZ6rfRqFjvPlV0dHXjLNg5xjvU2PtUV08IkYM3mKXJUbyoBAps/wBniYPOfMGSu1ieQRhcKPU1bhBEccUSssflsGOFADPknit7akMjhjjkWM4ARCpPclz3NTxKkcuWPQHYoHJxxn61Xso44hLBuZijMxH6gmrLbJDnneycNn7v5etUgZDI8hY45XLEgdO2OlOy7jDkqcDGB0z9aUsh3Rq3u+AS2fQYpxLM2F3ZIA5H3fU/WgCIzMxUKGPRQT27c9qexaPOMZAVj+PbNDfu1wOAG3EnqcmnMPMxkgKMcY5JPXIpAPjBOBnkjdxyeuQDQ4XYcnoWY9+eg5pS6IoC8/wk9hj1qpPMdm1ejHp3xnqaq9g3E3hiVbhcKu3B5B9agAnW4jEeDGX3Zz254NSlXcSEklmRcBfrk5qdFQsmF+4Bux05+lRa4x4EVrBuYkk8kopYnr0xVYTu7Ofs8wK7UjabCIxPOdqnPFWbuZILdnJwIuT6YPBFV8ho1ct8uBg59cHtTe9hIkUsoUsRuPoMc89M04ts4x05b1JPtUe8vgIOc4BBBwB1JJ6U+MLuPIy+DkenQY96YxwbAIf5VbrnqcDNM+aRe6hyDIW5bj0qQhAVJGSr9+cgelNuHcBjg5OSAB075oEQPL+8VlUlfuj+6COM1GVlyw3dOv8AteoAoTdJG7nGw5MR9dh5496FL8Bc/MuJJG4CnIIAxUFEqoS4yDjaVGRgKMAED3pr7RubG4YCxqOgA54AqSYKjxIz5Y5AVTzz64pzKQDwBtGRk4JOMACqERFgFjJ+aVhxn+Edie1BwY1YAsQ2D/tY5NVY7y2lleHJSdWXdDJ8rYXrj1H0q+GwJThjgjAA+UY6daUZKWqAi2SvG+eCwCsAcKqk1KgSPCbuBjB6Z7UiqSvzsRu+VgOcE9hmk2KZFRgSc7sd/k5zTArm3hurpbiRM+S+Y0YkjcDjOwcZFWcB5mU/M+fXhV6ikMn7yTYQEXP3e+Tk4pBnc+37zY2noAuM8mlZIBkjlAFZ8qnBPQ9fah1G1cYP72E5PAz14pm5Mw5HyrJtbJ+XrjJJp0jyeaFbkq2SqdOnAzSGLId8kSfwBGJC8ZPJ5Jpm7Iz6kbQT/dHSkyyyEFDgAkNuB49AKfGrbwMdB06kFjzmgBrgo0bAr84C/NknJH8IpGV2Uoq58zchJxyMbQADRMoZkOVXLsVPIcDpkU9NocqT8ke1VOSevv60wPO4TcNF5R8uMRSbJXmONvlvhgqrzyR7Vaa4WGQ+UjStOd3mYAeVh2RSO35VnpLYu+rXk6NsN5cyxJISViTzCRgetaVoGaMXM6ET3ADYJz5MJ+5EM/mfevN0O4kSGCUqZw5kAOwxswWFhz8pHf1Pf6UtrFNG06u25C/7hm+8F/iG3pViLaA4ZG2quQMjBIHehJAY29VJJwOvfbSGNkgVjt+65YABR94r3zTZXlWUI2A8qlVIGNwGA3TgU8EKqyyljI5zGB278UY3zrcSkbog5SNTkKSuC2cUASN88gCjGFwp7gY5OPwFRTPInlcZdS3GOCccD0oW5kZsooCnBc7TuyRtApZeMEg5B7gE56A88UgHxeYQnnRhCSBkHGTngc80rKHm3ZConCqo6seNxPrUUTszMrK+BGCg6ksT/Kn8swdm5Y7Tnpk9h7imCVhbqGCeCeORV2BXf5hkK0Y3BhisvS0hC7oht3Els5JHsK0nAkWeCMkNLG0atk/KGGOay7MNDI6dSjsrY7MpwelVDcmSOntyuBk8k9+vpVxDkBFPAJJPI4NZtqxYcjHAA/yauI1yvKEBenvXbFnMy8zspRFGFYgY4BOBilWLeFLDGGBwO57VUVpDOm7cMcZIOQPUCrEb/O4XIyTs38kY781dySQqqRS4OCRkd/bBzUIbbGM7nfA5weMjtUrMXLR9MjJJOfSmSNswvc4GAMsQelIBGV3jjGxevVj8o4yTzU9vGu8OduIx1IHpTAEbarg5wOOmMd8VKd2zAUjJ2gE4yB3NMQQkm5lZm+XO1B35/SlWZPtLRR5O7mRyOBgZBNQcQzRZG7eSDzn3xUsiMBctyqnB+XALkdiaaEzyvx1dtc65tLArb2sMKgEHByznOO5zXK10XjKSV9euhJFGmyC1RDGuDInlgh3PcnP6e1c7WD3GPr0Lwd5D2do1vb7JIbiUXcnBa4lBDKdx/hAwMf4157Xd/D/UY0nudOki3lg91C24ALgBWUjGTnjvTjuM7pIjLM0jjPI3sRnnsATxWuf3UYZzw+AFHWsk3PllnfBXgxR52qCT1NX41a5+zTTNgR7/AJQMA56YFbozZVUSrNOxziXIP97Z2IqZSsWQoGC25SzZPHHaopy3mlWO0YB+XqR2FPjACFWXJJJx069ATQA63Vg88vSPqCe57mn/AD5378ISfqc8YpV4URsQXyC2BlQB6Uxs5VcdOTjsPY0wGuyFmDsABxjPNSpyCrHgsDxnkDnFNWOMsGxksecjoR71IGG5mxwPlUds55NMBhMZDKASpB+magARdrMR5pUBRjOAD6GgZVZDkksSQTwBk4xShFWRX+8QeB156c1IwEnzSAH5t3JIAVR6CpojgE5+6GBH94k8VXKuswyB97knqTjsKtqvlrvIy5+VR6e9NCZFeBfKkVhkHCEEcHd1FQsqCNIoRhE4A/DpUl2WOwEg5YHA6k9AaYN6xvxg7gFHU9cmk9xoVVOIh0yTux1x71ISS6eXjavQnpwKYqgxl2yWPQHp9DinptVRgfNk9c4xQBFLbXMykNdsqgsR5CBXyf8AaOaqpYW67iXnkbpulldvkz3A4/SrzuTG+zJB+UY9ScU2NW4UgBtxJ56Cp9nG97aiQ1hhAipgKpVV4G3I9BUPzCHZwcY5A25YnOcUrXCLcTwMdkkaCQHtIpGMjHpToQCoYvwV446e9F09iiSNNgV3x5krANnk4A6A1MdxyzY+XO0dgD1P1qHK8E5wuNv+NPMvyYHJJ4HryOtUhFW4s7W5MJnj3SQvmJ1JWTJOchl5qwS+RhwI05z1z3JOe9IysCQTkgnc2eNx7fSo1dDDI8udsbfu4gcGQjgA0rJASr8gwuSQxYs3QEjdj60RktF5o+990sxzlTyeBVW3824y0z4xjKLn75yAMDsMVYOEAiUnDA8n1HoKYMjRwBOq8KmTkDk+1K2NqTSuVDBQqDuDSOzoEKkKpzGce4I5pRH5i7XdsRqOeR05xmkMhuVM1neqgI3xSJH2wQAeDUVpM8sFq54Zo08wnqWAwcVbQrKQEUkRdB0XJ7mmxwJEiJGFA3SEEnLfMdxyT29Kmz5rgNJYyM0YfYMLuJG3JPZanUEFkVsEj5mJwS3SmbgzOIzlF5JHQMPSpE3LG3GM4K85Y5HJqkBA6xmXdGzAglFXOQfdv/11U1O4ktrG/uYTk2lrLOGI480cKT+Jq6kY80j+HBZsdAcdKyvE8nk6BqAUri42Q7cgEguvzDPpipk7RbKjq0jgLIST3NjCwbYDJcvn/lo6dM+2TmunzIuIlYF2wT0wB6ZrDs4JCtrPGyrLCrqcglZEbGUbHatZZJOpVEY5wM7s47153Q7epaYAlIx8zZUOf4c9cZNAZSyNjaik5HbOeaiV5ZXAUELhSx+7hTzgCnMCV+UY6YJGcDPJwaQxMyyyZXG1HwCeBjHSpCQypsCfMSuTknIHYVEWYBlRsuWywzyGbnBNK5KJvOAFIB9Sw6/4UAPZxGY1X/Z3N6kckGmyOmWLty3OCMYU4PGTQihoi7HG7DAf3VPOKgVvM+0Nt3FY2VCxwBjgnmgCxE6jMhYYA3DHPt1pvmLGA/B3hygz0bGM023+WLY4JcA4x93GPU0KY1jUnGEJOSOx7CgC1aoUR2biSQqw3DoPxrLnUwX8oyNr7X4GMF+ccVowybm3c5PJzzyegzWdf4S/A77I889MjpVR3JZrW24hdzEccHPHNacIjBB8ztwDznvWVZFCF6Z9DWrGoY7QmS3cH+ddkTmkTxSbt+1Tg/ef0A781KWTcfLyRjBIBAxQPKBSLHQEYHCnnPIFSvOi5RF3nGGKj5VHpxWpmNijy75PozH0A5xTbg7NsgHdiAD8xzwM5pFnlIbaFyRtc4zg46AetCIXaISkn5gcHAB9v8aOgEcEk0kcbND5Mjru2llfbtzwWq3HJEysXAG0j7xHQd6QKrMSQCEVioBwuM81Cm1y8rEiPPQADI6jGaAHeZ5jFsBmzhCp4T8KUmRsDHIO7axyM471H5rZYqmFAZSVAyGbjAqpfala6PZT3tyuViIZUz88shGFjUD1/Qc0XA8r8S3Ml1rN8XR0MLLbBZBhwIhtyR78mseprq4lu7m5upSTJcTSTOSSTl23YyahrAB9ekeDIbPT9PluZSqS3gRpZZcApEeRHHnnngn/AOtXKeFtM/tPVYowsEht0a6MNyG8qQJgfPjqASOO9d9Fpp+1GS/mEu08KAFTcTgBEFK8k/dX+QPXQvfbreaWAWlrLP5Qc7iuEZjwCS3XFadncF2VpHyFJ4x8u7HSnRQrERhdqk8ADGBjpxROgiNusa/IH34AGOvYVvGMlrJ3J02H3UZV/MbOGdNuTjG7g4xRGW3KrHLSOWPQbVAOOlTXBM0SlT8wI98YqvEhRiWJHPAP3myavqJbEiiWRiS3JJUhRhQPwp7vHDGXYfdHc43YFGZmLYIjjHPycseepJpkxXcqgMT8xZieCRjGSabEOQ+aqPyFAzyCo/75PNOA/jI+83yr344zTCzkBTgbvuhclvrUAiuPM/4+ZdjDuASuOgz/APWqVLyGSvgtLHjIX5jgclj0ApAx+Ud8gZx1PU4pGyu8fMBzz1YjPU0gKLtIHzYwTk4BJ/KmMn2oJHJOSAC2eij60jSDaH49FHbrTG3+WCeC/AAHJUHr9KZGjyMo6IGySR2HXFO4hHHQszE5JwoOfXbSnbmL+/wzL1C/XH61LKQke9mCKMkscDA9ear2+1y0kbjy3yFckEsQcEil1sMnixtG45JJOD0XHtTVBMhdziMtsUdMinjYi4B6dz1ye5zUQPmEKQGVXBUc4Iz1piJF2bCoAAQmTjvjoFpIWJWRvLIZsnLei9KkXEZdSQzYLOQCEAPIRQPSq8bmWT77sQrbs/IgzyeOv0oAzNVhIe0ugf3kLhWUdXjY/NwKtqSAI1Q4JwhH8QbrTpoxJIk0g27V2xxqOCoOSzd6WV2YeXCm3K7i47Y7Csoxs2+4yRlO87j8g2rjP5c0iB8nLD5jxGgBIweuaekIHk+aclUAIP8AE3UGkG5JHRMBn6NjkHv/APWrQBZNwdmLhVJweBwRx1pEAQGRR91tx3AHIHTmnOiqACchACV4JJ68micypbplhvuGbagGSQcnH4UARRj5pJF5WRg7FePmzjmpNqqZHkbG0c+wNLbo4jjiIGQCWzxuLdOKUgs4U7cnCkHoMHqaYiIhXARgdpO5cD7v0pQrsrorBGUY3su5cfSllIzg4JLFQPQD+LFOcvi3ByilsMQME8EdqQzP+3SQTJDNGW5UfuBlmJ/2etTyzPI8hj2RxxgKzMNzEnpheBxRNag30DQgKkCFyFH/AC1YFcux5JHNSNEDKqMSflDYxngcDisoqSvdghIixQrHnnks3BJPc4qQHYoI5kO5RkZP4ClhX5mAPAJb/wDWaGAMpAJwowO2euc1qMr4lK7Fzh5AW5xweOSK5fxdPF9jmtpM+YmoRPbAFseWykuMdOD/ADrsFDkb8AZVgoHscZrlvFdl59pJPGNzQOrZXkkqPmb6f4Vz17qF0XB+8jn7RxtjRVbbld+3t2rTBfrGn3VO3I+Yk1l2LFlTbkKSMtx261pM8rIUUbRjAIwT+dcR29R8ODHJl9zjqVOQMd+KczRoDliF2YBf1xmok8q3jWNAkakdTkl3Y5OAPX0pk0clwEEu6OGNhkADzZiOdqjsPXNAh8SJ5LySyfPKwmxnG1SoCg49qkZo3EW0FgMsoPCgrx1P61FPJEfm8odEwox9MHFIZLluBtAAAAUAAdTjgUDJGmhLC2JUSGME4zhQfT3pJvmjVVIGMAqeu4HvTY4mjkWRwXkJBC4GFHvT2DsGK8jcSx6dSe3WgSGxSKtx5bHcI1Jkxzneuc1I8asTnKjdlQcg4PTioI4wJYyxGXBXkfxLzkn3/pU0q22/MoeRgMuc4WgZagZY8yFWOF2oi5yT0zXPz+b9tnd+Hd23Adu4rbtEiZj8hXbkcknAHPNZmpIY9SmGDtkCTIfVSMHFNEs0bLJUYJ3DHHTj61sRNPkYRfYn5uaxbNwpRcHk85B5HoK3Ym3che4GRiuyBzyJFjcKxYEElS5UnjvUg3sGVQAnULnHHqe9Alh5LMuQMYznJFTxuW+VFA45PqT61sZgjfcRf4QQfl4JPp70hB87zSchMooH5EmpQpHIbOTgYXAXPU+tMfC7QA23kn5eTjvigRHI6cFsnI2lV4GOwpjSuwcKhjCkHbj5iBwBxTlt8ESzZ3MwKITyMHq1Pm2IOEZnY5buQPekMjYynajNs34OxOSBjIBNQ3mk2WsWt3Y3W4I6Boiv+sjlH3ZB9O/5VagVdyMWy5YqSeccCrcrrGr7eGYbflHJLcAZqlYlnh2taNe6HevZ3JV/lEkMsedk0RJAYZ/UdqzK9D+INpcNbaRdhNyWz3FtO4JJQyFWQEehwec155WElZjNPSNTudF1CC9jTc0RKSxNlfMQn5kNetaXeWerol7YsHAG644w0Mjc+UxPevGbj/j4uf8ArtL/AOhGvTfht/yCtZ/6/Yv/AEWaqG9gkdkqFnZmOMqAoBPRaSZGaMRqCXUnAHUjtyalT76f7h/lTh/rfwNbmZHbFYIm84jO4fLySSewFL8qksclmJYkg8D0qKf7y/8AXZKlfof900ugxkjsFbaNowMlh3yOgqPH2hUf5trMQ3GNxHTipZf9W/4f0pLb/j3h/wCujf1pAOi2orPsYvuIXrlh+NIEn+XKnlzx2UDmpl+5H9TUp/h/4F/I00tBFGTezwsNmzp8wYl27k4PQVEGVWO/58E7fkwBz6Cpz922+sn8jVZvvn6/4UFE8gllRVztYjcOoITpzRANqoiKXZQ7HOfmYfdBNS/xf9sP8KS0/wBY/wDvt/Sn1F0M2awup8S6lNvZmJWCEkRIM/xHvVpY9oSFUwqMrNtHyqoGcZ6Vau/uxf7r01fvXP0H9KiMFF6B0KziR2J+bbxnjnr0AFT7ZNqKBjO0NgYOBSJ0k+o/9Cqz/wAtPwqgIgC7MoUnk5bnggdKrwErO4C7mYDdx930FXIOsn+838qrW3/H1L/vJQBHL+7lnLKWYrjrwO4GKVEk8naSAfmdyv8ACP7oou/9fN/10/pUy/6qX6H+dLqPoRYBcjklVCp1wCecnFKsbAgtwwzk+ufSkT/Wn6x/zqzJ1X8f5U0DG7V4AXJwT+PvSSoy+USMPsc7uhGeODUi9aW76J/uD/0I0+hJSjJiUlEYkndk5Jz35NSNkmPOd4JYgD1H8RNKn3F+p/nTj/rW/wB0UhkUI3PI5UZHGcf40kxAZc5YoQRnOFOeOKktukn+8ajm/wBY/wDwH+dLoV1JSSEQhT8+O2Tz1JqIpO0mANseMM54A9MmrJ/1cP8A2z/kaD/q5vqtNiIlYR5iiViM8vjrTfK6Ehh8/rgkj1qWP+o/nT5P+Wf++f5GjcCpcSEghBgKMAjpwe1Z+tS/Y9N1O4kCBBaSiNX4VpJV8tBj6nNXm+4/+8386y/Gv/IAuf8Atz/9GCs5v3WXFapHCaYzmMEkjaMfL3x3Oav/AGp1MishVU2hNqM5fcCcjHHHfmqGmf6o/Q1db7y/7kf82rzjvZGlxcJgrDNNMQQhmiaPy1/2eo/HFXZJ2SOPzFkBAAkZFyoYHnlaQffX/rl/WluP+PeX/faggnDI8SlEcR7t2WU8n1pcAEAsclgWwMYHqMU6H/j0j+g/nTX+8/8A1xP8qBrUmByPMdiqAsIweTtAqNJDL8q7iiFj1wMAdzSy/wDHun0k/kKZY/dm/wB2X+VK4yMOgdAoYFMMTnI54PJolZGDHDHcy4x0yOgz1/So0++/+4acfuRf9daQy/ahQjlQxc/fbIHzHk1Q1aUefHCsQ8yJRmQjk7ucCtG1/wBXN/vPWZqn/IQk/wB2H/0GqWpJfsgGQblOMZFbEcbHaEUDgZBFZVl9xPoP51uwfeH+5XbDY5pjYkZWyFBPOAOAB3NXo1O0yAcPwu0Zy3PNQQffH/XN/wCtXYP+Pe0/3v8A4qtUZMrSvIDFgszOCqKvXI44ApB5q+YzDaV243H7oBwBxTv+W+n/AFk/nTrjpc/Vf5imBDIzZ3A5zsVcDJH+1zxQVKfKudzJyzHuw65NIPuJ/wAB/rUkn3of92P+QpICK1RU4Z2CrztGSWY8Z/GppmLgsVKKpyuOvHYD1qJPvn/gH8xU03+qP+89PoHU5jxtLCvh+9UqVMs1okW7q7+YJCB9ACa8sEFywBEExBAIIjcgg9wcV6Z8QP8AkC2v/X/B/wCiGrk7b/j3tf8ArjF/6CKznuB//9k=;" vertex="1" parent="1">
          <mxGeometry x="534" y="255.15" width="44.98" height="29.7" as="geometry" />
        </mxCell>
        <mxCell id="qNlBSglNtdx8bkVUjUxn-17" value="&lt;h1&gt;Productos destacados&lt;/h1&gt;&lt;div&gt;*cercanos a tu localidad&lt;/div&gt;" style="text;html=1;strokeColor=none;fillColor=none;spacing=5;spacingTop=-20;whiteSpace=wrap;overflow=hidden;rounded=0;" vertex="1" parent="1">
          <mxGeometry x="449" y="70" width="150" height="90" as="geometry" />
        </mxCell>
        <mxCell id="qNlBSglNtdx8bkVUjUxn-18" value="&lt;div&gt;huella c: 50%&lt;/div&gt;&lt;div&gt;huella a: 39%&lt;/div&gt;&lt;div&gt;X: 2&lt;/div&gt;&lt;div&gt;&lt;br&gt;&lt;/div&gt;" style="text;html=1;strokeColor=none;fillColor=none;align=center;verticalAlign=middle;whiteSpace=wrap;rounded=0;" vertex="1" parent="1">
          <mxGeometry x="230" y="245" width="80" height="60" as="geometry" />
        </mxCell>
        <mxCell id="qNlBSglNtdx8bkVUjUxn-19" value="&lt;div&gt;huella c: 90%&lt;/div&gt;&lt;div&gt;huella a: 98%&lt;/div&gt;&lt;div&gt;X: 2&lt;/div&gt;&lt;div&gt;&lt;br&gt;&lt;/div&gt;" style="text;html=1;strokeColor=none;fillColor=none;align=center;verticalAlign=middle;whiteSpace=wrap;rounded=0;" vertex="1" parent="1">
          <mxGeometry x="434" y="257.5" width="80" height="55" as="geometry" />
        </mxCell>
        <mxCell id="qNlBSglNtdx8bkVUjUxn-20" value="$18" style="text;html=1;strokeColor=none;fillColor=none;align=center;verticalAlign=middle;whiteSpace=wrap;rounded=0;" vertex="1" parent="1">
          <mxGeometry x="310" y="290" width="55" height="20" as="geometry" />
        </mxCell>
        <mxCell id="qNlBSglNtdx8bkVUjUxn-21" value="$5" style="text;html=1;strokeColor=none;fillColor=none;align=center;verticalAlign=middle;whiteSpace=wrap;rounded=0;" vertex="1" parent="1">
          <mxGeometry x="523.98" y="295" width="55" height="20" as="geometry" />
        </mxCell>
        <mxCell id="qNlBSglNtdx8bkVUjUxn-22" value="&lt;div&gt;huella c: 90%&lt;/div&gt;&lt;div&gt;huella a: 98%&lt;/div&gt;&lt;div&gt;X: 2&lt;/div&gt;&lt;div&gt;&lt;br&gt;&lt;/div&gt;" style="text;html=1;strokeColor=none;fillColor=none;align=center;verticalAlign=middle;whiteSpace=wrap;rounded=0;" vertex="1" parent="1">
          <mxGeometry x="644" y="252.5" width="80" height="55" as="geometry" />
        </mxCell>
        <mxCell id="qNlBSglNtdx8bkVUjUxn-23" value="$11" style="text;html=1;strokeColor=none;fillColor=none;align=center;verticalAlign=middle;whiteSpace=wrap;rounded=0;" vertex="1" parent="1">
          <mxGeometry x="742.38" y="292.5" width="55" height="20" as="geometry" />
        </mxCell>
        <mxCell id="qNlBSglNtdx8bkVUjUxn-28" value="" style="rounded=0;whiteSpace=wrap;html=1;" vertex="1" parent="1">
          <mxGeometry x="80" y="240" width="40" height="20" as="geometry" />
        </mxCell>
        <mxCell id="qNlBSglNtdx8bkVUjUxn-29" value="&lt;div&gt;Huella de carbono (%)&lt;/div&gt;" style="text;html=1;strokeColor=none;fillColor=none;align=center;verticalAlign=middle;whiteSpace=wrap;rounded=0;" vertex="1" parent="1">
          <mxGeometry x="20" y="240" width="40" height="20" as="geometry" />
        </mxCell>
        <mxCell id="qNlBSglNtdx8bkVUjUxn-32" value="" style="rounded=0;whiteSpace=wrap;html=1;" vertex="1" parent="1">
          <mxGeometry x="80" y="302.64" width="40" height="20" as="geometry" />
        </mxCell>
        <mxCell id="qNlBSglNtdx8bkVUjUxn-33" value="&lt;div&gt;Huella agua (%)&lt;/div&gt;" style="text;html=1;strokeColor=none;fillColor=none;align=center;verticalAlign=middle;whiteSpace=wrap;rounded=0;" vertex="1" parent="1">
          <mxGeometry x="20" y="302.64" width="40" height="20" as="geometry" />
        </mxCell>
        <mxCell id="qNlBSglNtdx8bkVUjUxn-34" value="" style="rounded=0;whiteSpace=wrap;html=1;" vertex="1" parent="1">
          <mxGeometry x="80" y="365.14" width="40" height="20" as="geometry" />
        </mxCell>
        <mxCell id="qNlBSglNtdx8bkVUjUxn-35" value="X" style="text;html=1;strokeColor=none;fillColor=none;align=center;verticalAlign=middle;whiteSpace=wrap;rounded=0;" vertex="1" parent="1">
          <mxGeometry x="20" y="365.14" width="40" height="20" as="geometry" />
        </mxCell>
        <mxCell id="qNlBSglNtdx8bkVUjUxn-36" value="" style="rounded=0;whiteSpace=wrap;html=1;" vertex="1" parent="1">
          <mxGeometry x="80" y="425.14" width="40" height="20" as="geometry" />
        </mxCell>
        <mxCell id="qNlBSglNtdx8bkVUjUxn-37" value="Declaración ambiental" style="text;html=1;strokeColor=none;fillColor=none;align=center;verticalAlign=middle;whiteSpace=wrap;rounded=0;" vertex="1" parent="1">
          <mxGeometry x="20" y="425.14" width="40" height="20" as="geometry" />
        </mxCell>
        <mxCell id="qNlBSglNtdx8bkVUjUxn-38" value="" style="shape=image;verticalLabelPosition=bottom;labelBackgroundColor=#ffffff;verticalAlign=top;aspect=fixed;imageAspect=0;image=data:image/jpeg,/9j/4AAQSkZJRgABAQEAAAAAAAD/4QBCRXhpZgAATU0AKgAAAAgAAYdpAAQAAAABAAAAGgAAAAAAAkAAAAMAAAABAAAAAEABAAEAAAABAAAAAAAAAAAAAP/bAEMACwkJBwkJBwkJCQkLCQkJCQkJCwkLCwwLCwsMDRAMEQ4NDgwSGRIlGh0lHRkfHCkpFiU3NTYaKjI+LSkwGTshE//bAEMBBwgICwkLFQsLFSwdGR0sLCwsLCwsLCwsLCwsLCwsLCwsLCwsLCwsLCwsLCwsLCwsLCwsLCwsLCwsLCwsLCwsLP/AABEIAdoB2gMBIgACEQEDEQH/xAAfAAABBQEBAQEBAQAAAAAAAAAAAQIDBAUGBwgJCgv/xAC1EAACAQMDAgQDBQUEBAAAAX0BAgMABBEFEiExQQYTUWEHInEUMoGRoQgjQrHBFVLR8CQzYnKCCQoWFxgZGiUmJygpKjQ1Njc4OTpDREVGR0hJSlNUVVZXWFlaY2RlZmdoaWpzdHV2d3h5eoOEhYaHiImKkpOUlZaXmJmaoqOkpaanqKmqsrO0tba3uLm6wsPExcbHyMnK0tPU1dbX2Nna4eLj5OXm5+jp6vHy8/T19vf4+fr/xAAfAQADAQEBAQEBAQEBAAAAAAAAAQIDBAUGBwgJCgv/xAC1EQACAQIEBAMEBwUEBAABAncAAQIDEQQFITEGEkFRB2FxEyIygQgUQpGhscEJIzNS8BVictEKFiQ04SXxFxgZGiYnKCkqNTY3ODk6Q0RFRkdISUpTVFVWV1hZWmNkZWZnaGlqc3R1dnd4eXqCg4SFhoeIiYqSk5SVlpeYmZqio6Slpqeoqaqys7S1tre4ubrCw8TFxsfIycrS09TV1tfY2dri4+Tl5ufo6ery8/T19vf4+fr/2gAMAwEAAhEDEQA/APXKKKKADnNBpGJGKb+eOh74oAXJ/wA4pRu70gAP4f8A66dQAUUUUAFFFFABRRRQAUUUUAFFFFABSZI4P4GlpDQAtAz1/SmgmnUAFFFFABRRRQAUUUUAFFFFABRRRQAUUUhOBQAv1puTSZP9evWlGCf8/SgAG7/69OoooAKKKKACiiigAooooAKKKKACiiigBOR7j1paDTcmgB3J+n86KKKACiiigAooooAKKKKACiiigAooooAKQn86C2KaP1/zzQAHJ9+lOA9aAAKWgBOn09u1LRSYI6fl/hQAtFAINFABRRRQAUUUUAFFFFABRRSE9h/+qgAJPQdf5UoFAGKKAD6UgPY9aWgjNABRSZI69PX/ABpaACiiigAooooAKKKKACiikyefrj/9dACkgUwkn6+lGcn/AD6U4Dv+NACBfX8qXp249aWigAopMY6flXLeMfFUnhi209oLVbm6vp3jjSViiKkYDOzFQTnkAfX25AOqorivDnxB0jWplsryL+z79iFjWSQPbzvnG2OQgHd6AgfjXa0AFFFFABRRRQAUUUUAFBP59qCfzoA/OgAA9etFFFACZ7H8PelopOR9P1FAC0UUUAFFFFABRRRQAUUUUAFFITg0tACc579qXAoooAKKKKACiiigAI7jrQD2PWigjNABRSZI6/n/AI0tABRRRQAUUUmc8D8TQAZzwPxPpSgYoxiigAooooAKKKKACk5HTp6f4UtFAADmikI7jr/OlB/OgAooooAKKKCcUAFN5980vXk/gKWgBMD6/WloooAKKKKACvIfixc7tS0K1B/1FnPcHHYzShR/6BXr1eD+Obl9U8W38ELZVJLXSowOTvjwG6f7TN+VD0B6GPeaVf2lnpmrSIsttexRux248mQn5VcL6gAqf8n1T4f+LW1iCTStQfOpWab4XY/NdWoO3JJ6snAb1GD60rWdo9m2nzRLJbNbpasp4+RVC/L78cV5i4vfCetiSEkz2NxHNayEhRPbNk4cDruGVb8a5MPiPa3T3OPD4j2t09z6Joqrp97balZWV/bNugu4I54z3AcZ2n3HQ/SrVdZ2BRRRQAUhPYdaCew60oGKAADH170UUUAFFFFABRRRQAmMdPypQc0UEfnQAUUgPY9aWgAooooAKKKTr9P50AIc5P6U6iigAooooAKKKKACiiigAooooAKTkdOnp/hS0UAHWimliDgAZIzzQDuB7c44oAXrwOnc/wCFL0oooAKKKKACiiigAooooAKKKKACgjNFZ9/rWhaWCdQ1GztiP4ZpkEh+iZ3fpQBfzjr+dLXFXHxM8Ewllinu7sjj/RrV9pJ4+9NsFRn4j6RnCaffnKlhuMC8Dr/EaAO5JxSAdz+XpXAj4o6ArKZ9P1JEb7roLeQEewEgNa9j498F35CrqS27khQt9G9vye29xs/8eoA6iimRSwzIksUkckbjKPGyujD1DLxT6ACiiigAoopGZVDMxACgsSxwABySSaAKWr6lb6RpuoajcECO0geTB/jfoiD3JwB9a8K8LW82p+IUu5/nMMk2o3DHo0rMdvX1Y8fStn4geKl1m4i0vT336baylneM7vtl0vygqB/CvRfUnPYVreHNETTtOi+0RbL24ZZ7n5vmXA+SIkenU+59q5cVV9nTdt2cuLq+zpu27OgO5CBsYscDaOvPeuW8back+n2+oxKDcae374tj54JGAOQeODg/ia6gZ5zxzxg9R61FcWltdWtxaOF8ueGSNgxLZaQFc5PcZz+FePSn7OakjxqM3TmpIpfCzVTcafqGkSN+8sJhc24P/PvcEkqB6Bgf++q9HB7d68H8A3cmmeLLKByVW7+06bMDxl8Er/48o/OvdmbbjjqcV9EfRjqQnsOvf2pFYnIOMj0pwGKAADFFFFABRRRQAUUUUAFFFFABRRRQAHmk5HXp6/40tFABRTc9P0pevX8qADr9P50tFFABRRRQAUUUUAFFFFABRRRQAUUUUAFIT2HX+VBPYf8A6qUDFACYBxkZPvRwvQYHtS0UAFFJyOn5f4UuQaACiiigAooooAKKK87+IPifxJoc+n2mnNDBb3ltJIbryhJOJEfa6Jv+QYBU/dPWgDur7UdM02Fri/u7e2hAPz3EioDjsoPJP0rgtW+KmlwF4tHs5b1xkCe4zb22f9lSPMP5CvMAuva1dLOPtmo3OS7ySl5doBzy7naB7ZFdJY+Crm6Zp9TnFuHYMIbUb2I93YYH4A1jUrU6fxMxqV6dP4mVrrxT458SXH2WC5uFEgI+y6d+4jC55LuvzY9y9PtvA2rz/vr68t4CcAj57ibHueB/48a7XTdOttLSWGzhWGB1UuBkyO68bnc/Mfzq8mC24lSqAZjPBJz3rzqmOk37miPNnjpSfuaI5KHwNpY8oT3dy6Iwb90kUTMc5O44Y/TmtpfBmi7FC3F/jaMHzYzx/wB8VvT4MSFY8ZweB90dcHFVgzjABYegyR1rP6zUT1Zn9ZqRerOW1HwbYbRDFe3IklPyeZBHIqD1JUqa5678DeIYEaW3NveRA8iJ/Lk/74lwP/Hq9VFtCVTzF3sOdzEkg+xqNliRJFMhIU8ANjBPqKtYmrF3bLjia0XdvQ8h07UPFPh64/0OW6spVYCa3uFItnxzh4pPlwegIH41674W8aWeuiO1vI1stU27hCWDQ3AHVrd/5qefr1qrPYw3sMkV3As9uyglJQMY6/IT8wP0IrhNW8KXmlj+0NGe4uIIW8xoufOtFXncGHJA9RyP1rspYqM9JaM7aOKjPSWjPcqK4TwV4ybVo4dO1Q7L8Iot7hiAt6AOQR2f+f1rV8V+Jk0G3jitwsmo3St5CtykKDgzSD07KO5+ldh2GlrGvaNoUAm1C5VCwPlQp888xHOI4xz+PT3ryTXvGHiDxZIul6ZbzQWc7bTb253S3AH/AD3kGBt6ZGQPXNVbWy1PxLdXEk08sm5le6vJ8naC2NiYx83oBj8uvcaXpNhpMMkFrEq7iTJJ1kk/u+a5/lxXJXxMaWi1ZyV8VGlotWY+geFbTS/Jubzy5tRVQ6gENFbk8fJ6t74+nrXS5wQfQ5/zmjMRGVJMikq/TA74oLAbOVy2cDqfl55zXj1Kkqj5pHjVKkqkuaQ4Nj5uN3PBHHPpRt5BI2gkDBzx/Ws2d7tZjgvwfkCg7SPpV4FtqFsbyAW9jisYz5tDCM+Z2seY6i7aZ4ukkQgLba3BdRlcdDKkpP6mvoPAPXnnPNfO/ibH/CQ6mcljHLagAnkny4+B3r6HTJRCepVc/lX0tLWCZ9PS1gmLgDkD64paKTHcf/WNaGgtFAOfrRQAUUUUAFFFFABRRRQAUUUUAFJnPTp60dfpS0AGBRnHH5UUUAFFJyPp+opaACiiigAopOR0/Kl60AFFFFABRRRQAUhJPA/E0deB+JpelAAABRRRQAUUUUAFBHcdaKKAAHsetFBGaTOOv50ALRRRQAVy/jbw6fEOkNHAB/aFkxurHJxvYDDwk+jjj6geldRQehoA8H8IapPYzXGl3m5LR5yoMx2Na3Q+VlYHBAPAPoR716ExIGMHc+RGT90Hrlu+KPFvhBNSW41HTIIBqmwtLC52RXxAwCzDo4HQ9+/qOI0zxPLZSjR9WEkUkKRwRNccNbNgZhnLDdkdFJ7Hn1rzMXh73qQ+Z5mMw971IHbs7KgbJZzhSqDqOpwBzmnRyIJgroSu0NuzwOcfMKgjZZEiliSMDdubOT8/HzArx0qwSxAAXLHaoBwOAfWvLTvqeTFtu5cldVTO7n+EDHzZGOnpVZVd0Y8nZ/hwAamSNCGDD50O7aSCRkZwRREYVYhVIYnbkkHIxkZxWz1abN37zuyHM4bLg7V2cFiC2cjpT1ijaZ1OMAbsA8EntVLVbi8EayafaR3VxC58yGaUwO0ZG3MbHIz9RWRH4jCSpFqGj6pYjbteRoWniVjj5i0IJx/wGhQb1WoKLe2p1xA2kEfLtwR6DHaqBby8GKQOrcAoc4GcYP8AWoor60vo2W1uoLiEDY/2eQMfT5h94H64pscQRG8hywUhSzj5QQechamcne1iakne1jjfFenPpzQ6rYxsLeSbFwI/l+z3BO5HTbyAT+R+tYdzf6xrl7At23m3129taRFwyAoqiNSduPqfqfWvQpLeXUI7y2mYrFKDFIrD+EnII9xwRXDac0lvr2kQkAlL1omI7yAMnB/WvSwuIc6Tb3R6WExLnSbe6PRbKytNNghsoAPKt0wT18yUjLuc+p/zxU2GUnggk7mHcnHU0ADJkXG7Gw464HFcvrPiKX7Q2jaFC0+qSfu3uEw4tiOWVc/Ln+8TwP5efGMqsjz4xlVka2p6xpekKr3VxFl+kaHMpPchB83t0/Gp7S6N1ALk281vE/zRC4AWVo+ztGM4z2Gc/SsTSPC0Fm51HU2N7qJIldnJljhkPOV3cs3ufwHeuj3Z/wB4jPPUe5pTUI6R1FNQjpHUAx5GGGD3GAfcU7A+XByW68dDnFNUShkw+do5JAJcn1FZ3iPU00zS551+Wdo/sturdTNICMj6csfpUQi5uyIhFzdkedTA6v4nKREk32tRwIB3j85Y/wCQzX0YK8S+GmkG+1z+0HQmDSY2kLNyrXUwKRqPcDcx/D1r22vpIrlSR9LFWSQUUUUxgRmkz2NLRQAUUnI9x+opaACiiigAooppJ/nQA7I6Udfp/OmYJPr6/wAu9PoAKKKKACiiigApMEdPypaKAAHNFBHfvRQAUhHcdaWigAB/OigjNJuoAWk68Dp3P+FHJ+n60tABRRRQAUUUUAFFFFABRRRQAUUUUAJ0+lLnNFJkdvqaAAnHakJzSZ7/AI0oGeooAAuceg/zxXJeMPBNh4lj+0wFLXWIUxFc7fkmUdI7gLyR6HqPccV19FAHgtjqviLwndDSNWtJZIYmP+juTv25+/ay9Cp/EfSvR7DUdN1KHzrJlkkAVmgfCzRH0ZTz+PIrptR0rS9WhMF/bJMnJRiMSRMRjdG4+YH6GvPNV8Cavp0hvNEnkuEjJdIw3lXseP7jDCt+n0NctTDRnqtGctTDRnqtGdVt+86YSRlAYgA5OO59u1QvAGdNrfLng7j98A8cVxlj4v1e1m+zaxamREJSUlDBew44xLG2FP6V02n6zpmoK4sp4pwjENFuCzp9Yz82Pf8AWvOq0ZQ+JHnVaLh8S0LJjjVpCxbztoXH8LhuQc96ryQKxXJJl3AANxs5Hyrg96beTrJNFuDjyhmNRn52zg4Kn86nG5xGWC7sYwTnBUZzXG+WTaOF8sm0Zmp+HdMv2ElsZbLVA3yXtriKQEfwyhMbh+vvWBLrHi7wzmDU7VL+Bn8tbkAruj7ESRjGT/tLXYnOQT1PINQqbi4uSIyXj8srMr9GAJBBDfpXRGvaykrnRGvy2Ulcj03UrPU7VbqDdtZikiMAJIpVwSjH2z261wFrZ37eL/s7RuGt9SmvWdlOVt8s4f02njH1rv3iWCaKOJVjB3PsgVVTfkAs4UY9qMzLcD92QhOx3KctnnAbG7aO1THEKm5JLR6EwxKpuSS0ehkeKtXfSbAC2JF5eloYCP8AlkOskoA79l9z7VJ4b0ZdJsYmkRPtt3D511IW/eKzHcsRLdAO/PXn6arafpNzcwz3ttBLPAC1s8i7njAORj8enFOnvLa3QNeSW8A5BaeRE68AEMafMvZqEfmVz/u1CPzHxg740cqCwVTJkctnOMfyqaeGCLEysBu+QkkHPcYNc3d+LPC8Hy/anndCrqLON3+YHgh2wv61i6j4+muImSzsY41JZQ10dxH+0I48D9aqGHqSVuUcMPUkrcp2V5e2dhBJcXU0cUaAkGQ4LEfwqOpPsBXnF7eal4t1W2gsYi43eXYWkmc4Y/PJIenuxzwPpythpHjDxlcxyp5ssKtta8usx2cC9CI8DB+ig17D4Z8J6V4at2EGZr6ZQLq8lUCSTvsQfwp7fnmvSw+FVL3nqz08PhVS956ss+G9CtfD2lwWEOHkyZruYDHnXD43Pj06BfYCtmiiuw7QooooAKKKKACkxjkflS0UAAOaCcY4pCRn36UhOf8AJ/pQAFsikAzn070oGc5p3SgAAAooooAKKKKACiiigAooooAKKKKACiik68D8TQAZ7D8aNvSlxiigAGOnpRQR+dJnsev86AFooooAKKKKACiiigAooooAKKMikJ9KAAnFM7/54NL196cBj60AJtxzn3p1FJjHT8qAFooBzRQAUUUUAZuq6Ho2sxeXqFqkhA+SVcpNH/uyL834dK8u1n4Z63p8r3mgXBuo1JZIi4gvYgOcI4IVvzU+1ex0UAfPkPijxFpFw1rfxSuY1KyQ36SQ3KknJIfAbP4GuktvHmi3KLHNDc20x4XMfnID/vRfN/47Xqd/pek6pEYdRsra6jxgC4jVyv8AuseR+Brj7z4YeHpC8mm3F3p0jZACFbiJc88LN84/77rlnhaUulvQ5Z4SlLpb0K9trugXEbsuqWZk2qmJH8ojGAflkAPpSJdabDLNIdRshIY32oLuIgZ9WDc1jTfCfWAzeRq1jKCwO6eKeJiOcg7C45qEfCrxGHBS80pEJIdC9ywx16iME5rneAi+rOaWXwdtWaseraS0saz6rbeZvSOBFlVmZ3YADCZ/WtdNsoujHKxZc7g7ELHgYyteY+JPDN94YurCK4nimN1E1xHLbI6Ijo+Cg3c8cH8a9IsL+xvrO0mQqsl1bRyMqjgyMMNlunXNclfCxoJNO9zjr4SOHSae5n+JmuF0W6uLWd47uFUkeSJyjyRIwSRBs5wQc/hXnmk6TqviK9NtaNEbmaN5gbuYplIiobk5JPIOMV6RPCxjmtpsgSRujdTvjk4POOlcL4Tkm0nxPpxkyv2TUDYzsxwoilDW5Uj8QR9K6Muq8ycWtUdOW1edSi1qjqLL4U6o7o2paraxx7tzx2kUkrH1G6TYP0rrNM+HnhHT3SWW3kv51wQ9+wdARwMQoBH+YNddkjr09f8AGlr1T1hqRxxIscaKkaAKiIAqqB2VRxTqKKACiiigAooooAKKKOlABQTikJApOv1/D1oAQ8n/ADmlwev+TShe5paAAdKKTHcdf50oP50AFFFFABRRRQAUUUUAFFFFABRRRQAnJ4/OloooAKKKKACjrRRQAnI69PX/ABpaKTBHT8v8KAFooBBooAKKKKACiignH9KAGt1pMZ6Z7U7GevX2paAEAxmloooAKKKKAAj8DRnsetFGM0AFFJyOv5/40tABRRRQAUUUUAFB9B1/lSZ7D86UcUAcH8TdL+2aLbXyD95ptzuc5A/cXA8t8n67DXLeA7mKSC6s5ghaynEkYAJYRzDIIPsQeMd69a1Kxh1LT9QsJgDHeW0tu2RnG9SA3PocH8K8M8MLcaR4lSK5VljlebT5j9zEmSoDL/vCubE0/aU2jmxVP2lNo9JdY5ZYWCSI3l87l+VlB6E81514xhlTW7mWNPLWaOO7BPy7pIx5TFcc5yoI+tekzXCW7MjlyHRGXBAVccdeuTXG+OYvtFhpmoBSDFcvDvOSAsi5AOfdf1rzMJNRq2vueZhJqNa19z1XSL1dS0vSr8HP2uzt5m9nZAWH4HIq7gjp09P8K434bag194aijd90lhd3Nox/2d3mp+jfpXZ17h7gZzRSY7jrSg/nQAUUUUAFFFFABSN2/OlpOv8AT1oAbj0z396cARj6UoAFFABRRRQAUEZoooATJHX8DS0UnI9x+ooAWiiigAooooAKKKTPYf8A6qAFJ/OjmgDFFABRRRQAUUUUAFFFFABRRRQAEdx1oB7d6KCM0AFFHTqaM+nNAATikA7nrSgd+9FABRRRQAUUUUAFFFFABRRRQAUnTp09P8KWigAopCO4pcj1FABSdeB+Jo5PH5mloAOlFFFABXjfje2fTvEs0kO1ftkcGpQH/porbJOvGcrn/gVeyV5z8VLFXsNF1AL+8tr02pYDkLcIWGT6ZUfnRuG+hbZXu0sriBfNju4Um3bsHYwD7T9M8Vl+I7RptF1qMbgkVutxChIO2SBw5xj1Ge3em+H7q4fR7BI2eNLQzWzMANo2t5ige+DgVuyxpcWd1HMRmeCZc8FsMhX5scHrzXz3KoVnboz5vlVOu7dGcz8I7pxN4gsmztkjtrxM9MozRMQPxXNetV4r8N5Vg8QwxAAeda3drI27dl1xLj0/hzXtVfQn0gUEZoooATOOv50tFJ0+lAC0dKMikxnk/gKADGevTsP8aWiigAooooAKKKKACiiigAooooATGOR+VKDmigj86ACijI7kZpMZ69KADk9OlL0oooAKKKKACiiigAooooAKKKKACiiigAoJxQTikxnk/gPSgAOTQKWgj86ACikz2PX+dLQAUUUUAFFFFABRRRQAUUUUAFFVr6/0/TbaW7vrmK3tovvyStgZPRQOpJ7Ac15drvxQvJne18P2xhXdsF1dx7p3Y9PJg6D2zn6UAeryzQwI0k0scUaj5nlZURfqzYFc3d+NPBtluWTVreV0OGWzWS5OfTMKlf1rzKLwx478SGG61OWdEdmLPq07hgvBBitwCQP+Ait+D4Zaamw3GrXTnA3LbRxxLkf7T7j+lZupFdR8rZszfFPwjHny4dUmx3S3RR/5EkB/So2+Kfh0MR9g1QqBneEt9pGMnGZe1Qp8O/CSgblv5OMkvdED/wAcUVK/gXwi0exra+ZVJYFbt9yt65YGp9tFD5WXLb4leFLn+DUYv7xktgwX6mN2/lWzZeLfCV+UW31ez3uMqk7GBz24WcKa5BvhzoRil+y32oQ+bj5ZTFMoHXptU/rWFffDTU40LWN9aXOdoMdyrwudvox3L+opqrF9RcrPZwysAykFSMgg5BHsRXN+OYkk8MauzLu8gQXCjg8pMnrXlEf/AAnXhPdKzahZww4ChW82yk543feiP5Cti9+IjaroOr6Zf2gS8urcxW9xa/6pjlD+8jc7hxnkZH0rXRiG+CJyP7asgx2QyW1wgzxuKtGxx+VdmpGRkgqXBb8Oprg/ABZtQv8ACAlrDhjhVDpKueMnJ56130gO9coqAHChegx9K8TFxtUbPDxkbVGzzbw7JDZ+NdOitmdUOryxMuMpiQyx4H5iveq8A06YL42sRGGBbxEqEAjlRcnk4Fe/17Mdke1HWKCiiiqKCkPPSjr9P50tACAYxS0EZpMkdfzoAWiiigAooooAKKKKACiiigAooooAKCcUE/nQB3PWgCMo3zdOTmpB0A9BiijHcdf50AFFAOfrRQAUUUUAFFGe1FABRRRQAUUUUAFBOKaW9Mj3pRz16igAA7n/APVS0UUAFFFFAB1pOR16ev8AjS0UAFFJgjp+X+FKDmgAooooAKKKKACqGr6tYaJYXOo30myGBRgDG+WRuFjjB6seg/8ArVfJABJOABkk8AD1rwLxr4nm8S6t9ls2ZtPtJTbaei5IuZi2xpserHhPb60AF3e+J/H2rLCqDykLPBFk/ZrCE8GSRh39TjJPA9B6PoXhbR9CjieNFuNQ24lvpkHms3fywchR9Ofen+HNFj0PT4YQkRu51STUpUXG+bH3VP8AdXoPxPetrg5AyepGOvHNcVSq5aLY1UbATg5boRwe+emaRXcGVSMoMDIBBOfenE5wV4BwSD29qcWztJxwOnQViURjCkKD1G4gtk8+1Z19rOg6U5GoanbW0xVMRyOWk2noxRAWwfpWiioC7YPzDPzfw81l6r4f0DWub+1DyouwTxM0UwVTkL5i9vTOaUbX94GSWniDw7e7Vt9XsWkONsZmEbtu7qsmDWoQcL8ykDkehz6Vxcvw68LuhMUuowsVwH8+OUhSP7siYqoPDPjbRzG2ia6Jo4lwttc5jUqMgbll3xZ/KtrQezJ1O9bEisjgNGy4dWAZWA9VPBrmda8D+H9XSSWy2WN3jh4FPkOcceZEP6Y+lZa+Mte0sCLxHoc0Z+bE9tiMMoIGfmzEfwcfrW7pXirwxeGLyr+KJ5jlYr0m3kbBxj958h/BqEpwegaM5LwZa/ZtXv4GC77O2ubaQqdy70nWNiD7keld2IleXe2MZAGMYI9TXE+DpBJP4hu2JDs/lck53zTvKSD6dDXX3NwttptzdBlIhtZZQQeGIU45+tc+ItKryni4i0qvKecaPaw3Pi7R5ol5OutPxx8qO8hPr2r3WvH/AADaef4gt5dvy2Vtc3DegZx5I/8AQjXrxbHAr1Voj1ErKw6k5PXp2H+NIOcZ5706mMKKKKACiiigBOR06UvWikx3HX+dAC0UA/nRQAUUUUAFFFFABQT+dBPbvQBj60AAH50UUUAFFFFAARmkz2P59jS0UAFFJyPp/KloACM0nTr09f8AGlooAKKMY+lIemPWgBaYTk9P/rUf56/ypQD3oAAM/SnUUUAFFFFABRRRQAUUUUAFBHcdaKKAAHt3ooIzSc//AF6AFoopOvTp3P8AhQBy3j3U5dN8Nai0DlJ7xotPicHBUzkhyD/uhq8t8BaWl7r6TzKrLpkRuxtwUEudqZx6E5H0rtviw+3StEj25V9Rdj14KwOAePrWZ8MYQtr4gugvJuLW3Jx/CqM+Mf8AAqzqO0WOO53rSKpxg8dPSmiYDPBwTnrk0TKc8AnA54xj61FgYBODycjODivKbdzexYzuBkA5AIGDxzzSowPIz2PXkfhUaiVV+TB3HHI/xqRRJj5wu0E9ODkDHWrTACqkYI4znrQec5wEIxz/AFpqAgkMvG3t0LdjT+BwSAB054x9Ke4h+EwuM4AGQAMAdKMY+Y/cPGM849qaNoGc57EDPT2NN3KGBOSCdoHYnrxiqugAxxyq0LokkTjDRyqHRh6EMCP0rjNa+H2j3ytLphGn3QBIiwXs3JOcFD8y/h+Vdoh3FSD3z9frS7QMnPzEdDyPxzTjJx1QmjyXTNQ1Lwldzafrdk0VrNL5gmiXcAQAgeJh8rJ+o/StjX9agfSFtra4hlNxIhk+zMjKYF/eMfl6fw8YHeu01PTNO1e1azvYhIhVtpAAkhkZcCSJiOGFeXvpC+HtWig1G1SaLzYCHjHyXVksg3Sqqn7wH3x7e9aRpxqT59mvxOKeFj7RVEQeH9d1XRrtdQgSJoniC3EBJ3TW+7dkD16kd/6+1aPrGm65ZpeafMskZwsi5HmQvjOyRR0P865/X9BsdWspfs0dvFfpA32O5ChUbK5COUxlSOAe2c/XyfRNZ1fwpqplWN42STyNQsZcqssYPKN7jqjf0PPXGakdDVj6LAA6UVS0vU7DV7G21CxlElvOmVPRkYcMjjswPBFXasQUUUUAFFFFABRRRQAEZpM9j+B9aWigAopOR7j9RS0AFIT2HWgnsOv8qUDFAABiiiigAooooAKKKKACiiigAooooAKKKQn0oARjjv8AWk9PyI/qKOT/APX/APr04DH+elACAA8+9OpOR9KWgAooooAKKKKACiiigAooooAKKKKACkJoOTwPxNLjFADVp1BpM+tAHn/xWt2k0TTbgdLfUk3fSWKRf8Kzfhu0R0jWUjBDC/RmI6sTAnGD6V1HxBszeeFNY2jL2ghvkGM/6iRWbj6bq4v4YzsH12z2kZW3u42xjzCpaJyPzXvWVZXgyo7neDJ3ZJ4BJ/D1zT2miVfnChRhmYDkkdsU9pG8zeqrxhMccmq93OsJi3BMsGLA8j0A6Zry9kbblaa+mdVKEiADdtX/AFjHOQQ//wBao1nuEkjja4Zyy+ZuxlQCTjdk9fwpFIYBkcYyzYBxjB5AzQHQNErJu+V8ucA9eFFYtve5ZpW9zFOGj3ZdDhtvPJz09KsBVPDZIXkFhms3T1t4WnO7YZCp3M3OMk4rU3Z4A6DIPH5V009VqQ9BBIBhRt3EEnHp2waAeSPx6dD160x5o4TlnHIOUVcnHrx2pFkiJ+RwwwDgcbQeQSDVc2oh5BVCFbbu5yfvFe/WmpuYg7gQACCONzdxSk9MAN1xnnNDKSu0DG3bz2YcZGOn0o3AkbGUIxuPbPB696wPFWnLf6VcPFG73tiPtdr5a7pW2jbJEoXnkZ49QK2zuALYBwwKg4BHHJ44p3OARg55z/8AXq1OzuK1zgvDfjSwVYNH1cNaT26pbwXE24RSIOFSfeAysOnPH076vi7wymsQreW0atqNsiuiptAvYVGREW9f7hz7dDxo634e0nXoJI72MrPtItruNQJ4W6de6+oP/wBeuM8Patq3h3V4/C2sbjbPOIbaVy22JpPmieJyf9W/THY/jWq196G5PkzN8KeKh4f1bypWcaVfME1CMgj7NcA7BMF6gjo/t7rXuasjqrowZWUMrKQQykZBBFeQePvDYikXxDZwkRllGrRRjHJOBcD68B/wPc1t/DfxHJd28ui3bkvbb30x5GBd7VfvRMTzlM8e3+7XVGSkrohqx6LRRRVCCiiigAooooAKKKCfTrQAGmjOacBj696KACik5HXp6/40tABRRRQAUUUUAFFFFABRRRQAUUUUANJNJ/P3+tOIyaXAoAAAKKKKACkwe1LRQAA5+tFBGfr60mex6/oaAFooooAKKKKACiiigApOvA6dzR1+nrS0AFFFFABR1oooAhuII7iC5tphuhuIZIJB32SKUI/WvCdE1CTwz4lW3uFUJb3Uuk3e5mG2Nj5W/B4x91v1r3yvJPiboCRXUOuQ27NFebYL5ouqTIuEcjp8w4/4D70mrqwHoIRCVKgK/P0FVbtJHWNotpdDgmQHbtPB4HNcr4K8Vx6jDa6Tf4S+iUw20p+UXiIOFz/z0UdfUc+tdwmCPvbh8x4xx7E15s6dnys3Uupz8sTk4EhCt1YcrjaeF780qpJgje7ZAXOBkDG3AwOM1stFAAXaNfvAAAcZz1qpc20qlpIiTG2DsQYMZHU8c4rmdK2pfNcziGZFc70eMnfkLs285Jzzgf56Vs2p3QxsxJYqBuPQgHA5qjbQXMoGxcEllkM/zYU8Enp9a1V+RQoIwox6U6UeopMyJj+/kyGU79jbz8pbk5X2/wAKkt/MaS2Kt8m8k4VSuMMCOKtyW8M4csMeYoBLAH5hkcA96IbaGAoQzZCbACflAIxn0qlB3C+hMVycbsDII455AO3JpQQWwc+vsM9KCGYAE88cnjAHsaCuAGJPGc4GCQRgn/Ctm+xIp6DB7ENkcCmgBVUnG1QcH+dG4Yyx64AB5OOnIxTTsSPjDcjgnnHfjpUvuA7k9SP9n6da4r4g6TPeWNjqtqjPeWFxDCPLBLPFM+E245yrYx/vGu0+XcGOcMAqj2xntShgAQOp+7uxjkcY71UZcruDREqm4t3hvI1cSQiG6RuVfemHUj868Y1Wyv8Awh4gjNtKy/ZZlv8ATZXJxLBuOEb17o3/ANeva9oG7cQc85z9MjFct430ePWNHlkhUNe6aHubbA5kjAzLEPqBke6+9aUZ8rs+pMlc7XR9TttZ02w1K2P7q7hWTbnJjfo8be6nI/Cr9eS/CrV5I5L7RpmAguGN1YqzZKzKo81B/vDDD/dPrXrVd5kFFFFABRRSE9h1/lQAE9h1pQMf1oAxRQAUUUUAFJ06dPT/AApaKADOaKMdx/8AroB/OgAooooAKKKKACiiigBu7rTqZz0p9ABRRRQAUUUUAFFFFABRRRQAnI69KWikwR0/KgBaKAc0UAFJ1+n86Ov0/nS0AFFFFABRRRQAUUUUAFQ3dpa31tcWl1EssE6GOVGHBB/qOoqaigDwXxV4Z1Lw7qMMqK72PmrLbXqHaSyksFcpghx+vUeg7Hwp4wtdQWDT9TlEepFVEEjALFe+nsJPX1+vFeg3llZ6hbT2d5DHNbTqUljkGVYf4+hrxzxP4LuPD3nXdp59zpLPkNktJaE9BNsGQo/v/njvE4Ke407HqGCHAIJDrlFyR0PQ1JhwcHOcnsdv1rz/AMN+Mo4/sek6zOWfCiDUGy21TwqXLj9G/P1r0JsBY+cnIYEHgg9+K4pU3F6mqdyNSGJDcfe2gd8cZ5pORgt1ycYyQM09gTgKR2IHQNn29aYucFsg8kfMffoKzGO5U5/iAJH/AALvg00b2zkKOTgHGTnuBUq45OMk4J9f/wBVRjzOpA6nnGMcU2AJwcMytgct3weec8UwB/ulj0YqB75OT7U8quAOSVznORuyPQ0KSvHc8Dk8ewpWABvb+EggZBPQn2NRlmkZgcDb03YAHfkVNnDYZhtUbVC9s8g1FgEkqpOWGWHceozSYDCzGPnIYEfXHsKYGf5O/wA2R3JPv3ocyBjuzzzjjoT0OKUOAzMFGTjAPrWRQkhbd82eBxnjrSoGDjgE43fNzjvRIxcgkAYBHPr6URttJ+79T1H0pdRHjutQXPhXxWJ7UYjhuY9TsgMjMLtuMZz/AMCQ177aXMN5bWt3AwaG5hiniYc5SRQ46fWvMfiPp4n0yx1VFzJYzeTMwGP3Fwcc49GA/wC+q3PhnqX2zw6tmzZl0q4e1weohf8AexfzI/4DXr0pc0UzBqzO4oopCew/E+laCAnsPx9qUDFA4ooAKKKKACiiigAooooAKCM0UUAJnHX86Wik5HuP1FAC0UUE4oAKTryfwFA55P4CloAKKKKACiiigAooooAKKKKACiiigAoopOvA/E0ANZiGABAyM5pVO4c9jTsCk6duKAFooooAKKKKACiiigAooooAKKKKACkZVdWVgCrAqykAhgeCCDS0E4oA8y8U+AkhW41LQLck4LzWCkjGP4rfB6eq/l6Vj+HPFk2nzppupPv00qvlTFiz2ch4IIPJT1Hb9K9kwTyfwFed+OPBS3Sza1o8IF6mZb61jBAukHLSRhOfMHU4+99fvTKKkrMadjro9rqjxMjK8YePbhgVboysOMGm8bl4+UDB715p4I8VS2s0OjalL/o03y2MspCG2c5xE5b+Bu3ofY8em/MTIrEZUgAHj8q4akOV2NU7iknG1eSRncegA7HFR8oqjJY5zge5596mGGBGztnIPHPcU0jaqso6AYJ6/jioaAYQ2RzgEHOevrmgM/3go2jBJY4/ChiwLPhhkZB6DGOlNMqlsEn6kYGfxqdEMaxIxyAzZ59PTNKg3KQx24HDKeDnrnFOZlIzn5iRuzjNNJCjYmW+XnAHy8dM0tncY1yyjaVXOTyRye2c0AMFT7uMkMf8M+lL5m4Nk/3QWPUKeMAUx/MO1TnC/dz6H1qPMCMkkkk5NL8oORyO35d6DweV/pS9DgAH681AyvqdqmoabqtgDzcWkqR+glC7k2j2IBrhvhbcyW2qahaySD/TrXIUfd8y3bdu+uCw/CvREJ35Ug7ccEdB6815RppbQvH6x7tqNrkltkjGYbpioA7YG8V6GFlujKZ7opJJGc4HUU4DFH0oBzXYZhRRRQAUUUUAFFFFABRRRQAUUUUAFFFJ1+n86AEyeKUc4JpcCkzj6UALRRRQAUUUUAFFFFABRRRQAUUUUAFFFJ16dO5oAOvA/E/4UtFFABRRRQAmO4//AF0oOaKMUAFFJnsev86WgAooooAKKKKACiikyM4oAUnFIB3P4D0oA7nr29qWgAooooA8h8e+GINPu5NXtIcQagzeaqDiG7wT8voH6/UH1rpvBesvqulRJctuvrJYoJ2bBaWLHyTEDucEH3HvXT63pqavpeoaexCtPAwhfAPlzL80bjPoQK8c8G39xpWtWsdyxXzpGsbtCf8AV+Y5UBvdWANROPMhp2Z7FhwPlIx16fyqAkg85IGSQCdwPWpyMd+hyfSq7Plsrg555BIyOMVwy0NUK+3aeSEwAN3uKjBjYqp7dM8A4GOtLucvhgCCpPPYD0xQcHAYrjAbpgjA4FZPUojG3dtx/FnPUg/WkcsSBlgMc55/lUgZsP8AL04znj8KjdnIXJ4OcDpjHFR0AZg8dealVmO1eQRySRnI9+9MHmEqBnOPl9xUoLlwm5NwweM4J9zSQxJRux1yANpxwcnjkVJ5DAYDfNgDkDGKj3ElhnCr0KdOPapBI+CAoOTjPTH+8a0VuohmwLhRln5ODxnBzmvK/Gh+zeKzcOhUhtKuY2TAG9QhJbjPG09DXqzblALkGQEYI4BX0ryj4lP/AMTe2bDZ+wwZAYEZUydQK6MPpIiex7kCCAR0IyPxox3HWorU7ra1b+9BEfzQGpa7jIAex60UEZpOnX8/8aAFooooAKKKKACiiigAopCRnFGCfp/OgA6/T+dLRRQAUUUUAJyOnT09PpS5BopMdx1/nQAtFAP50UAJjuKUHNFBH50AFFID2PWloAKKKTr9P50AHX6fzpaKKACiiigAooooAKKKKACk6e4/lS0UAFFJjHT8v8KUHNABQeKQnHakJzQAE5/+tQAT34oC+tOoAKKKKACiiigArxPxfZf2b4i1byVOLqWLUI9uBhpgCxH/AAIGvbK8p+KJFvfaVcKB5ktlLHju3lS5/TdQB31nOt5ZWFyDk3FtBMTj+J0BNI3yu21uFHPBzn0rI8G3TXPhvQnfO/7KVPGBhJHUYz9K2ZW3EKgJPTI6DPcmvPnY2QxpNu8KF3++OFPemHrhnC9y23I/WjyzG+Gwd3J3dh6mnfJ8zNkq23B7qf5YrHV7lBGVbcPMUYOBxgMPXFMIYgl+ckrkAEgD2pCAv3NhyRhieR/ShmcMxXgnggc5x3FTfTUCLoevtkUg69cepHaj/JNFZjLK42BiOM9ccZHrTBv5P8LHLgdPwpoclSjH5ccexHpShWCqVOOf4s4JPcVd7iJyWIGB04yeVyOteOfEB/N8STRrtHl2VlDkDHJUvlvzr2PcDzu7Dd7t0yK8Z8SOl/4yuLdc/NqVpYpg53MpiiJ+ldlBe9ciWx71brst7Zf7sMS/koFS0DjgdqK7TIKKKKAE5HTp6UvWikx3FAC0UA5+tITigBaaSfbHOaCc0AZ57UAIBnp/n8qeOKOlFABRRRQAUUUUAFFFFAARmiiigAooooACM0maXOenSk2igA649PSloBHT0ooAKKKKACiiigAooooAKKKKACiiigApu70pScU3k5/yc0AHvTgPUCk245p2RQAUUUUAFFFFABRRRQAV5d8Wwyr4ZkXcG336ZBx/DE2K9RrzP4uJ/oHh+XOPLvblMeu+IH+lAGt4T2ReF/D+cq5slJGDkM7M3ArcikKrnA5Xk9OlYHhWcHw54fIG7FjEpJOeULJ/Sthmfrk7TnGOhFeTOfvM3S0Hl0k4YsOASepJ7jApMlAw67RgjtjrmmKygjGV/wBrGTSFv7pPJOcj171ne5Q3oPbP607c4XaDjn8fwNDqoxtOR/I0gVj0B7nP0pAJS9hwe+T61LGqZ2sCxBHHQDNPK7CwxwCegGCM96ajcVyJMYYkHBBAK8n6YqRdxXJLZBHAx09BSgNjOwKnzcjuPSkGHG5RgKQCeRkD17VSVgHAoACzAIMs+eRtHJ61434XiOseNdOn5dG1W61I+gWJnnGfyWvSfFOqR6XoepTFwJpofsVrg4zNcAx8fQZP4VzXwrsmmvtV1E7/ACbK2SxhDABRJK29iuO4AGT/ALVd2HWjkZTPW6KKK6iAooooAKKKCcUAIWxx3ppOc59/880E5P8AnpShaAAA9+lOoGPyooAKKKKACiiigAooooAKKKKACiiigApOv0/nRyfp/OloAKKKKAAjNJkjr+dLRQAUUnI+lL1oAKKKKACiiigAooooAMgUhPYUjdaNue3p3oAOSf8A9fSnAYpAMZ96WgApMdx1/nS0UAAP50UEZ+tJk9D+lAC0VWm1DTLY4uL20hPpPPFGfydhTYdT0m4O231Cymb0huYXP5KxoAt0UUUAFcF8VbZpvDUc6/8ALnqNtK3+5Irwn9WFd7WZr+lrrOjatphwDd2zpETxtmX542yfQgUAee/DzUEuNFeyZsy6dcSKVzz5M5MqH6Z3D8K7VMvlcDAOR3wPSvD/AA9qd14c1cTSo6xBns9SgOQ4QNtbj+8hGR9Pevb7aSCaGKWCVZIriNZYpYzuR0IyCpFedWpuM79GbRd0D7pGwsYBXqB1+tIirlevH3s1MGAZflyTkHBz/wB9YowqlsDALAEY/h9Kw5VuUR7UO4/N1OQRTgQVVVyOBk9/yFKikgnceT147dsGlOOSMkg5+U4PpRYBiYU9SSTknuCDUhO5hkE56g4xgdzim4PJxyc57EA9jSjnJA5wRyMEnHSmuwClQNgBY+4GAM9qTHy7ST6nGO/bmgHhgVOSwOByTjnFed+NfGkSpcaPpEp81gY7+7iIKqM7WgiYd+zEdOn0uEOd2Qm7GD4211NZ1JbSy3NZWDGGDyzkz3TEK8qgdR/Cv/169e8H6INB0Kxs3XbdSD7VfZOT9plALKT/ALIwv4V578N/Cb3c0HiHUIyLS3bdp0Ui4E86nAmx/dX+H1P+7z7FXpRioqyMNwoooqgCgnFFI1AAWHb0zSfz/Gkxnt69/WnBcYoAAKWiigAI/OkB7HrS0YBoAKKTkdenr/jS0AFFFFABRRRQAUUUUAFFIT2H4+1LQAUUUUAFFFFABRRRQAUmO4//AF0tFAADmigjNJnsf/10ALRRRQAUE4+vagn86AMfWgBMevWloooAKKKKACiisHxZ4gi8OaPc3x2tcv8AuLGJuklw4OMgc4Xlm+nvQBV8UeM9J8NII3BudRkXdDZxMAQD0edudq/hk9h3Hld34n8b+JppIUkuTExx9k0zfDCik5w7qdx/4E9UdF0/UPFGpXM97LM0W83N/cty8jOfuITxk9vQD2r0y3srO2gjgtI0hto9rxiIDGR/ExIyT6kmuPEYpUvdjqzixGKVJ8sVdnncfgzX2IedbKNnONtxcbpGz6+WG5/GoZfB+uxtIYYrSdozyLeZQ/8AwESBTx9a9CuNc0S1YxT39ojgkkGVG24OOdmTWdN4l8LrLHJHfwlicMfLl249cFMZrj+tYh6qOnocX1vEPWMbr0OZ0bxf4q8L3Jtbjz5rZCPMsNQL7lX1hdssvt1HtXp+k/ELwjqQRZLs2FwxCmLUAIl3Hss3MZ/76Fc+1x4V1kPC89jdbwdu+RRLyMERFsOPwrm7/wACT75H024jMTHKw3bfNj2kUY/MfjXVTxkXpUVmdlPGRelRWZ7hHLFMiyRSJJGwyrxsHRh6hl4p1fOLxeLvDZ3xtqNiM4ElpI3kN/wKMlMfWtvT/ib4utgouGtL6MAD/SYvLkYevmQEc/8AATXbGSkro7YyUtUzq/Hvgpb5bnXdJjxexqZL+3QcXSIOZYwP+WgHX1+v3uE8M+Lr7QXW3lDXGlyPmSAY8yDdyZIC3TPcdD7Hmu9sPitosoVdR0+7tWxjfAUuYifp8r/+OmvK7Wzk1XVHijHlpc3M0xAGRBAXMmT9AQB+FTU5eVuWwSmoJyeyPbtJ1PTNVjafTruOeID5wDtkjJ7Sxn5gfwrROXHzKCPvDDdx0rx/UdDi0eKTVNLvLq3ktgjMDId5ywUFJI8HOT06Ve03xV8RFtYrgWf9pWXzYmktwXIQ4PzwENx0+6a86HJUjzU3p5k0cXTrR5ovQ9Ty2Dgc8cNxn6YpMKc8bcjrjBz9a86HxLnj3R3WhMkqjDiO5KsD6bJY80knxP4xHop54Hm3fAz/ALkdaexm+h0c6PRRggkbumM9znviq19qGm6XD9p1K8itowH2GVjmTAyAiD5ifoDXlt14/wDFl+4gsI4LZmO0JZQtcXBB9DJuP5LTrHwP451+ZbnUPNt1cgvc6tI5mIPPyw5L/QfKK0jh39oXOL4h8d3eph7TS0ktbJ1CTTE7bq5UnG1cZ2qfQHP8q0PCHw8mv2i1LX4TDZZElvZMDHNcL1BlAwVT26n2B57jw94D8PaC0dyVa91BcEXV2qkRn1hiHyr9eT711mBXVGKirIzbuNjjjiSOKNFSONVSNEUKiIowFVRxgdqdSdOvT1/xpaoAoooJxQAZxSdev5UdeT+A9KWgAxiiiigAooooAKKKKACk5HTp6f4UtFAACDRQR3HWgH86ACiiigApMnoPxPpRnPA/E0o4oAAMUUUUAFFFFABRRRQAUUUUAFFFFABR1ooJxQAnT3oz6UEE/jQOKAFAxRRRQAUUUUAFFFFABXiXxO1N7zX4tNVsw6XbouwHgz3CiV2I+m0V7bXh/i/wv4mvvF+rGx026uYr1reeKdE2wBGhRCGmfCDBBB5/nQBmaV4jttE0pLe2gaW+kuZp5t7bLdMgIm4/eOAO2OvWrEdh8Q/FRDx292bV/uFj9jsQvfbuwD/49XfeFvh3p2lCG81hYb3UAAyRbd1rbHOeAw+Zh6kfQd670DHArJUYKTlbVmUaMFJytqzxq1+E2vthrrUtPg3feSJJpyPxIQVePwkn2nGvJu97I4/9G16vRWpqeLXvwq8SRIrWl3YXjKD8paS3kz6rvBT/AMeFY0cvjPwtcQR3dvNEjPhIr1TJA2Dj93KDt5/2X/CvoHPavLPGnjy2X7VomlQ2t4F3R3lzcxpPAGHBSGNvlJHdjwO2etTKMZq0lcmUIzVpK5Sg8aaRMfLv45LXaNjL/rYHJ6/Mozj6isXWr3wTcJO8cCy3jKfsxsd0Kq56NK+0KQP90mqOleFNV1CMXVwVs7NipQyjMsin/nnF6fUiu103QNDsZVWC1WWdE3Nc3gEkqt/sIfkH4CvJqewozvFu/ZHj1Pq9CpeLd+yPPNP8Pa9qvlm2tmEIODcTfu4gfYtyfwBrv7DQrbRbZAjNNdT4+0zuuGYjoqDso7c8/wAtG91LTdHieS6cRgr+7UHdJPIP4Uj6/U9K4XUvFmqakPsls62VrI2x3dwJWUnrLKBwPUAfnSk62MjZaRCTrYyPKtIlnxBfHUJYdE04rNO8yGcLllLKciPI9OremPy7bTbNLGw06zi+5BEqHkgluSxGfU5/OuU0i88G+HoWdL4XV/IuJ5oLeVsjr5cW5RhfU55/QZ+seMbi9WWDT4ntoZhskldt1w4I2lU28LnocZNL6vKSVKC91dX18xfVpNKjTXurq+vmVPENxJrWvyQ2f75jJDptpsH+tcNtyMdRkkZ9BXrOn/DzwbaRQefp4urhY4xLJcSzOjSBQGYRltmCfasH4e+DZ7R4te1aExz7CNNtZFw8KuMGeVT0YjhR2znqePTa9iEVGKij2YRUIqKKtpp2mWC7LKztbZcYxbwxx5HvsAq1RRVFBRRRQAUnT/ClpOT/ACoAMigDuf8A9VAGMZpaACiiigAooooAKKKKACiiigAooooAKCM0UE/nQAm5RwTzQcnp09aaUPzc9TnpTx0x6cUAHSiiigAooooAKKKKACiiigAooooAKKKCcf0oACcUgHc9f5UAdz1/lS0AFBGaKKAEyR1/OlopOR9KAFooooAKKKKACiiigAooooAKTOeB+Jo5PA6dz/hS0Ach4/1uTSNDlitZfLvdRLWsDDO9I8Zldcd8cD3b2rznwpoEUkR1O+RSMk2Vu/RjG+DK4wcjPC/TNX/irctLrml2YY/6Pp6sBngPczMCcf8AARXQRxwWcVhaxOypDbRQq6gcBeD8x689a8/HVnTgorqedmFZ04KK6lmSOVg0btG+7JDwFdm4Do4Pf0qtqFxDptjdXs2CIIizEEiWSUkBEU9OTgVYxPuAjihQb9wOc7u2RjiuR8eTSxx6fb7xtnklmdec7YVCqCPqSa8mhTVSoonkYemqlRRsYulaVr/jXVrkLMgkWPzrm4nDGG3jJISNAvqeFA9Ce1aU3w08bJKUjhspUB4lS7VUI/3XAf8A8drtvhbYfZvD8t664k1K8kkB9YYB5KfruP4131fSpWVkfTpJKyPHLH4Ua7IVN/qVlbRk8rbrJcSgf8CCL+td1oXgXwzoTxzpC13epgrc3u12RvWKMAIv1xn3rqaKYwooooAKKKKACjIHWgkCk68n8BQAdeT+ApaKKACk5H0/lS0UAFFJgjp+VKCDQAUUUUAFFFFABRRRQAUUUE9h1oAQnsOtKBj696AMUUAFBHfvRRQAA9j1oowDSZx1/P8AxoAWiiigAzzz+FFFJyPcfqKAFooooAKMijPemHn8aAFJP4Uo5/lSAE9adQAUUUUAFFFFABRRRQAmO4//AF0oOaKCM0AFFJnsf/10tABRRRQAUnXp09fX6Udfp/OloAKKKKAPD/iihh8VWk7g7JNOs5B7iOaRSM11pjjuAiw7AoAkyCThJAGA5/OqnxZ06R7XRtVRSyW8sllcgdlnw0bfgQR/wKqXhTU1vtKghLEXGn7be4BGXaIHET9c4I4+orzMwp80VLseVmVLnipdjoMTrGpBA8s7tp7oBjax/WsPxLo8muW1q1qyfaYDI0TOQqShgN0bE9Dxkf8A18jouRjv0H4etNkVt0XkNtVXDZIHOP4SBXmQlKm+aPQ8yEpUmpR6Hk4h8XaJKxi/tay24Ba2aZY2PqTEShq/D4v+IKMka6pfEngCaCNiMDkkyRk16ZAVVysYJAbbLjJCcdX5q+4IKuMbiyhyRkkdMCvThjW1qj1YY5yV2jy+Xxh48jgEp1ecydNq2lsVYk9j5WarDx14/BQ/2pPjGfmtLfaRnGTmKvV8I7SbuRxgdFHUZGO9VJAFZlQngFQTg7eOlVLG26Dljba2PP7b4meM4H/fS2N0qn5kmt1Qn/gUBX+Vd54b+IWj63LFZ3af2ffyYWJZHD287f3YpcDk9gQPbNVZNN067j8i8tLW4ZjlmeFA3PGA4AI/OuH1/wAItZrLeaUJJLWNfMlgJ3SRAHlomHJA6nuPftpSxkJuz0NKWNhUdmrHvGRTSa4DwJ4rkv44tF1O4EmpRW/m2sp5NzbAZ2s3eRR19R7g574An6V2ncKvP4U6iigAooooAKKKKACgj060UUAAPY9aKCM0mcdenr/jQAtFFFABRRSE9h+J9KAAnsOv8qUDFAGKKACiiigAooooAKKKKAE5HTp6f4UtFFABRRRQAY5z+dISMUjH3x60n4c+3f6UAFKF9f8AP1pQPX8KWgAooooAKKKKACiiigAooooAKKKKACk5H0paQ89KAFpOv0/nSAHjPvTqACiiigAooooAp6pp1pq2n3unXS5gu4WifH3lJ5V191OCPpXz9d2+ueD9ZlhchLmDmN2BMF5bluGx0KnvzwfcV9G1la3oGjeILU2mpW/mKMmGVDsngY8bopByPcdD6Umk1ZiaUlZnmth4y0e6QG8kexuAm11YGSAnruRlB+nNaaa/4beRXGq22ChUJ5jZJ9lA61mXvwn1WORzpuqWs8OMIt7G8MwHXBeIMp/IVXh+FXidyPOvdLhUEHIaeVuDnIARf51wPAU27ps895fTbumzRbxnoVmH2m6uWRsSCCFkjLHIG5ptvP4VWu/HV66j+zrCBVKkiS5lLkZHBAXC/Xmtqw+FthE0b6jq15cleTHbokEZJOSCW3sfzFdVaeFPCtkY2i0u2aRPuyXAM7jPfMpNbQwtOCN6eFpwVjxqbxd4pu13Q3cm/ZslS1tE2KSeq7VJ/WqK+KvFdtLmW+mJBG2O6gQh+eh3oDX0XHFDENsUaRr6Rqqj8lFR3NtaXMbR3MEM6EYKzxpIpHuHBFbeyh2Rt7KHZHjWl+NnmkS21O0QiT5fPtMjb3JeJj09cH8K7WG4gubVLmymgnRlxFInzI6qPunIzkVX8Q+ALG6jFzoKQ2d5D84tyP8ARbkAEFMdVOMgYOPbuPOdP1uXQL/yGR4rJpSmoWhVlmimB2M2G/iX9Rx3rkrYSLTlDc462EjZyprU0PEkNzoOo2Wp6VshRpQ8bIoP2e5Q+YYgeuxhzj3Ir2TRNVt9a0vT9TgGFuoQzp3jlHyyRn6EEVwms2a6ro17EmyXfALm0lVs7jGvmo+cd+n41X+E+qHGr6M7HaNmo2wJ6bsRSgf+OH8TWmEqupC0t0aYSq6kLS3R6pRRRXWdgUUUUAFFFFABRRRQAUUUUAJgjp09KWkPpSYP68UAKeeB+J9KUDFFFABRRRQAUUUUAFFFFABRRRQAUUUUAFIT2FIc/wCetIPT3FABgkinAAUoAFFACc9vypQQaKMdx1oAKKAfzooAKKKKACiiigAooooAKKKTr9P50AHX6etLRRQAdaTJHX8/8aWigAopOR9PT/Cl60AFFFFABRRRQAUUUUAFFFNyf8/0oAUnFN/nRzz9KcBQABRXk/xS0COJ7XxBbRgCZ0tNRAHBkx+6mPucbT+Fes1k+JNOTVdC1qxK5aWzlaLjJE0Y82Mj8QKAPNfBF+bqwksJXy9hINinGWt5eVHr8pyPxFY/gyVtO8b2kP8AC93qOntjoVYSbf1Aqp4LnEetInWK6t50bP3iYwJl4HfijQJBP410qRckya80qHgDb5kjHP4VyU4claVutjkpw5K07dbH0HRRRXWdYUUUUAFFFFABRRRQAUhPYdf5UE9h+J9KUDFAABiiiigBOR9P5UtFJgjp+VAC0UA5ooAKKKKACiiigAooooAKKM4o/CgBCCT7UtFFABRRRQAUUUUABGaTOOv5/wCNLRQAUUnI+n8qXrQAUUUUAFFFJ1+n86ADr9P50tFFABRRRQAUUUUAFJjuKWigAB/OigjNJnsfzoAWiiigAoooJxQAH+dN2n/P5UoHc9aWgAAA6UUUUAFFFFAHzdJJ/YfiHUCjbTZX+qRKBy4OZI14/EVufDfT2vPE9vcj54tOtZ7uVuwkkUwoPrkk/hVnW/A3ijV/FOuPa2Ris7m/aZb24dFtxHIFLOADvPOeAK9Q8N+GdJ8NWf2ayUtLKEa7upB+9uJFzgtjgAZO0Dp+pVle4rK9zb5HuP1FLRSY7j8femMWigHNFABRRRQAUmc8D8T6UcngfiaUDFAABiiiigAooooAKKKKAAj8/Wkz2PX+dLR1oAKKTkdenr/jS0AFFFFABTS3p+dIT/h9KAM/1oAcOcZ6ilo6UUAFFFFABRRRQAUUUUAFFFFABSY7j/8AXS0UAANFMYtkAE4x2FKuSOex70AL169PSloooAKKKKACiiigAooooAKKKKACiiigBOR7j9RS0HpTe55/WgBxP50gHfvS4ooAKKKKACiiigAooooAKKKKACiiigAIz9aQHsf/AK1LTXJGMZ684oAdSdenTuaapJLA5IA6mn0AFFFFABRRRQAUUUUAFFFFABRRRQAUmCOnT0/wpaRiR0oAU9P8KZ+dH1z05HWlABzQAAHvTqKKACiiigAooooAKKKKACiiigAooooAKTr9O5paKACg57UUUAAINFFFABRRRQAUUUUAFFFFABRRRQAUE4oooAQDuev8qWiigBMkdenrS0UUAFFFFABRRRQAUUUUAFFFFABRRRQAhPYfj7UoGKB/jRQAHPagHP19KKKACiiigAooooAKKKKACiiigAooooAQnFNOT/8AXp9FACAY5/L2o6fSlooAKKKKACiiigD/2Q==;" vertex="1" parent="1">
          <mxGeometry x="130" y="255" width="54" height="54" as="geometry" />
        </mxCell>
        <mxCell id="qNlBSglNtdx8bkVUjUxn-39" value="&lt;h1&gt;Busqueda&lt;/h1&gt;" style="text;html=1;strokeColor=none;fillColor=none;spacing=5;spacingTop=-20;whiteSpace=wrap;overflow=hidden;rounded=0;" vertex="1" parent="1">
          <mxGeometry x="30" y="100" width="130" height="40" as="geometry" />
        </mxCell>
        <mxCell id="qNlBSglNtdx8bkVUjUxn-41" value="" style="rounded=0;whiteSpace=wrap;html=1;" vertex="1" parent="1">
          <mxGeometry x="10" y="140" width="170" height="20" as="geometry" />
        </mxCell>
        <mxCell id="qNlBSglNtdx8bkVUjUxn-43" value="" style="rounded=0;whiteSpace=wrap;html=1;" vertex="1" parent="1">
          <mxGeometry x="80" y="180" width="40" height="20" as="geometry" />
        </mxCell>
        <mxCell id="qNlBSglNtdx8bkVUjUxn-44" value="Categoria" style="text;html=1;strokeColor=none;fillColor=none;align=center;verticalAlign=middle;whiteSpace=wrap;rounded=0;" vertex="1" parent="1">
          <mxGeometry x="20" y="180" width="40" height="20" as="geometry" />
        </mxCell>
      </root>
    </mxGraphModel>
  </diagram>
</mxfile>
